SplineFontDB: 3.2
FontName: IBMPlexSans-Bold
FullName: IBM Plex Sans Bold
FamilyName: IBM Plex Sans
Weight: Bold
Copyright: Copyright 2018 IBM Corp. All rights reserved.
Version: 3.1
ItalicAngle: 0
UnderlinePosition: -116
UnderlineWidth: 100
Ascent: 780
Descent: 220
InvalidEm: 0
sfntRevision: 0x00030041
LayerCount: 2
Layer: 0 1 "Back" 1
Layer: 1 1 "Fore" 0
XUID: [1021 917 2010324032 8102602]
StyleMap: 0x0020
FSType: 0
OS2Version: 3
OS2_WeightWidthSlopeOnly: 0
OS2_UseTypoMetrics: 0
CreationTime: 1542812781
ModificationTime: 1606245795
PfmFamily: 17
TTFWeight: 700
TTFWidth: 5
LineGap: 0
VLineGap: 0
Panose: 2 11 8 3 5 2 3 0 2 3
OS2TypoAscent: 780
OS2TypoAOffset: 0
OS2TypoDescent: -220
OS2TypoDOffset: 0
OS2TypoLinegap: 300
OS2WinAscent: 1025
OS2WinAOffset: 0
OS2WinDescent: 275
OS2WinDOffset: 0
HheadAscent: 1025
HheadAOffset: 0
HheadDescent: -275
HheadDOffset: 0
OS2SubXSize: 650
OS2SubYSize: 600
OS2SubXOff: 0
OS2SubYOff: 75
OS2SupXSize: 650
OS2SupYSize: 600
OS2SupXOff: 0
OS2SupYOff: 350
OS2StrikeYSize: 100
OS2StrikeYPos: 315
OS2CapHeight: 698
OS2XHeight: 525
OS2Vendor: 'IBM '
OS2CodePages: 2000019f.00000000
OS2UnicodeRanges: a00002ef.5000207b.00000000.00000000
Lookup: 1 0 0 "'aalt' Access All Alternates lookup 0" { "'aalt' Access All Alternates lookup 0 subtable"  } ['aalt' ('DFLT' <'dflt' > 'cyrl' <'dflt' > 'grek' <'dflt' > 'latn' <'dflt' > ) ]
Lookup: 3 0 0 "'aalt' Access All Alternates lookup 1" { "'aalt' Access All Alternates lookup 1 subtable"  } ['aalt' ('DFLT' <'dflt' > 'cyrl' <'dflt' > 'grek' <'dflt' > 'latn' <'dflt' > ) ]
Lookup: 1 0 0 "'ordn' Ordinals lookup 2" { "'ordn' Ordinals lookup 2 subtable"  } ['ordn' ('DFLT' <'dflt' > 'cyrl' <'dflt' > 'grek' <'dflt' > 'latn' <'dflt' > ) ]
Lookup: 1 0 0 "'frac' Diagonal Fractions lookup 3" { "'frac' Diagonal Fractions lookup 3 subtable"  } ['frac' ('DFLT' <'dflt' > 'cyrl' <'dflt' > 'grek' <'dflt' > 'latn' <'dflt' > ) ]

StartChar: .notdef
Encoding: 65536 -1 0
Width: 472
Flags: W
LayerCount: 2
Fore
SplineSet
32 0 m 1,0,-1
 32 780 l 1,1,-1
 440 780 l 1,2,-1
 440 0 l 1,3,-1
 32 0 l 1,0,-1
132 100 m 1,4,-1
 340 100 l 1,5,-1
 340 680 l 1,6,-1
 132 680 l 1,7,-1
 132 100 l 1,4,-1
EndSplineSet
Validated: 1
EndChar

StartChar: a
Encoding: 97 97 4
Width: 569
GlyphClass: 2
Flags: W
AnchorPoint: "Anchor-2" 268 540 basechar 0
AnchorPoint: "Anchor-1" 540 0 basechar 0
AnchorPoint: "Anchor-0" 269 0 basechar 0
LayerCount: 2
Fore
SplineSet
457 0 m 2,0,1
 417 0 417 0 390.5 25 c 128,-1,2
 364 50 364 50 357 92 c 1,3,-1
 351 92 l 1,4,5
 339 41 339 41 298 14.5 c 128,-1,6
 257 -12 257 -12 197 -12 c 0,7,8
 118 -12 118 -12 76 30 c 128,-1,9
 34 72 34 72 34 141 c 0,10,11
 34 224 34 224 94.5 264.5 c 128,-1,12
 155 305 155 305 259 305 c 2,13,-1
 342 305 l 1,14,-1
 342 338 l 2,15,16
 342 376 342 376 322 398.5 c 128,-1,17
 302 421 302 421 255 421 c 0,18,19
 211 421 211 421 185 402 c 128,-1,20
 159 383 159 383 142 359 c 1,21,-1
 54 437 l 1,22,23
 86 484 86 484 134.5 510.5 c 128,-1,24
 183 537 183 537 266 537 c 0,25,26
 378 537 378 537 434 488 c 128,-1,27
 490 439 490 439 490 345 c 2,28,-1
 490 115 l 1,29,-1
 539 115 l 1,30,-1
 539 0 l 1,31,-1
 457 0 l 2,0,1
252 91 m 0,32,33
 289 91 289 91 315.5 107 c 128,-1,34
 342 123 342 123 342 159 c 2,35,-1
 342 221 l 1,36,-1
 270 221 l 2,37,38
 183 221 183 221 183 162 c 2,39,-1
 183 147 l 2,40,41
 183 118 183 118 201 104.5 c 128,-1,42
 219 91 219 91 252 91 c 0,32,33
EndSplineSet
Validated: 1
Substitution2: "'salt' Stylistic Alternatives lookup 16 subtable" a.alt01
Substitution2: "'ss01' Style Set 1 lookup 11 subtable" a.alt01
Substitution2: "'ordn' Ordinals lookup 2 subtable" ordfeminine
Substitution2: "'aalt' Access All Alternates lookup 0 subtable" a.alt01
EndChar

StartChar: a.alt01
Encoding: 65537 -1 5
Width: 608
GlyphClass: 2
Flags: W
AnchorPoint: "Anchor-2" 315 540 basechar 0
AnchorPoint: "Anchor-1" 540 0 basechar 0
AnchorPoint: "Anchor-0" 291 0 basechar 0
LayerCount: 2
Fore
SplineSet
391 88 m 1,0,-1
 386 88 l 1,1,2
 380 67 380 67 367 48.5 c 128,-1,3
 354 30 354 30 335.5 16.5 c 128,-1,4
 317 3 317 3 293.5 -4.5 c 128,-1,5
 270 -12 270 -12 245 -12 c 0,6,7
 145 -12 145 -12 94 58.5 c 128,-1,8
 43 129 43 129 43 263 c 256,9,10
 43 397 43 397 94 467 c 128,-1,11
 145 537 145 537 245 537 c 0,12,13
 296 537 296 537 335.5 509 c 128,-1,14
 375 481 375 481 386 437 c 1,15,-1
 391 437 l 1,16,-1
 391 525 l 1,17,-1
 539 525 l 1,18,-1
 539 0 l 1,19,-1
 391 0 l 1,20,-1
 391 88 l 1,0,-1
294 108 m 256,21,22
 336 108 336 108 363.5 128.5 c 128,-1,23
 391 149 391 149 391 185 c 2,24,-1
 391 340 l 2,25,26
 391 376 391 376 363.5 396.5 c 128,-1,27
 336 417 336 417 294 417 c 256,28,29
 252 417 252 417 224.5 387.5 c 128,-1,30
 197 358 197 358 197 308 c 2,31,-1
 197 217 l 2,32,33
 197 167 197 167 224.5 137.5 c 128,-1,34
 252 108 252 108 294 108 c 256,21,22
EndSplineSet
Validated: 1
EndChar

StartChar: b
Encoding: 98 98 6
Width: 608
GlyphClass: 2
Flags: W
AnchorPoint: "Anchor-0" 317 0 basechar 0
LayerCount: 2
Fore
SplineSet
69 740 m 1,0,-1
 217 740 l 1,1,-1
 217 437 l 1,2,-1
 222 437 l 1,3,4
 233 481 233 481 272.5 509 c 128,-1,5
 312 537 312 537 363 537 c 0,6,7
 463 537 463 537 514 467 c 128,-1,8
 565 397 565 397 565 263 c 256,9,10
 565 129 565 129 514 58.5 c 128,-1,11
 463 -12 463 -12 363 -12 c 0,12,13
 337 -12 337 -12 314 -4.5 c 128,-1,14
 291 3 291 3 272.5 16.5 c 128,-1,15
 254 30 254 30 241 48.5 c 128,-1,16
 228 67 228 67 222 88 c 1,17,-1
 217 88 l 1,18,-1
 217 0 l 1,19,-1
 69 0 l 1,20,-1
 69 740 l 1,0,-1
314 108 m 256,21,22
 356 108 356 108 383.5 137.5 c 128,-1,23
 411 167 411 167 411 217 c 2,24,-1
 411 308 l 2,25,26
 411 358 411 358 383.5 387.5 c 128,-1,27
 356 417 356 417 314 417 c 256,28,29
 272 417 272 417 244.5 396.5 c 128,-1,30
 217 376 217 376 217 340 c 2,31,-1
 217 185 l 2,32,33
 217 149 217 149 244.5 128.5 c 128,-1,34
 272 108 272 108 314 108 c 256,21,22
EndSplineSet
Validated: 1
EndChar

StartChar: c
Encoding: 99 99 7
Width: 517
GlyphClass: 2
Flags: W
AnchorPoint: "Anchor-2" 274 540 basechar 0
AnchorPoint: "Anchor-0" 262 0 basechar 0
LayerCount: 2
Fore
SplineSet
281 -12 m 0,0,1
 222 -12 222 -12 176 7.5 c 128,-1,2
 130 27 130 27 99 62.5 c 128,-1,3
 68 98 68 98 52 149 c 128,-1,4
 36 200 36 200 36 263 c 256,5,6
 36 326 36 326 52 376.5 c 128,-1,7
 68 427 68 427 99 463 c 128,-1,8
 130 499 130 499 176 518 c 128,-1,9
 222 537 222 537 281 537 c 0,10,11
 361 537 361 537 414.5 501 c 128,-1,12
 468 465 468 465 491 400 c 1,13,-1
 371 348 l 1,14,15
 364 378 364 378 342 399 c 128,-1,16
 320 420 320 420 281 420 c 0,17,18
 236 420 236 420 213 390.5 c 128,-1,19
 190 361 190 361 190 311 c 2,20,-1
 190 213 l 2,21,22
 190 163 190 163 213 134 c 128,-1,23
 236 105 236 105 281 105 c 0,24,25
 321 105 321 105 344.5 126.5 c 128,-1,26
 368 148 368 148 379 183 c 1,27,-1
 494 133 l 1,28,29
 468 58 468 58 413.5 23 c 128,-1,30
 359 -12 359 -12 281 -12 c 0,0,1
EndSplineSet
Validated: 1
EndChar

StartChar: d
Encoding: 100 100 8
Width: 608
GlyphClass: 2
Flags: W
AnchorPoint: "Anchor-3" 602 740 basechar 0
AnchorPoint: "Anchor-0" 291 0 basechar 0
LayerCount: 2
Fore
SplineSet
391 88 m 1,0,-1
 386 88 l 1,1,2
 380 67 380 67 367 48.5 c 128,-1,3
 354 30 354 30 335.5 16.5 c 128,-1,4
 317 3 317 3 293.5 -4.5 c 128,-1,5
 270 -12 270 -12 245 -12 c 0,6,7
 145 -12 145 -12 94 58.5 c 128,-1,8
 43 129 43 129 43 263 c 256,9,10
 43 397 43 397 94 467 c 128,-1,11
 145 537 145 537 245 537 c 0,12,13
 296 537 296 537 335.5 509 c 128,-1,14
 375 481 375 481 386 437 c 1,15,-1
 391 437 l 1,16,-1
 391 740 l 1,17,-1
 539 740 l 1,18,-1
 539 0 l 1,19,-1
 391 0 l 1,20,-1
 391 88 l 1,0,-1
294 108 m 256,21,22
 336 108 336 108 363.5 128.5 c 128,-1,23
 391 149 391 149 391 185 c 2,24,-1
 391 340 l 2,25,26
 391 376 391 376 363.5 396.5 c 128,-1,27
 336 417 336 417 294 417 c 256,28,29
 252 417 252 417 224.5 387.5 c 128,-1,30
 197 358 197 358 197 308 c 2,31,-1
 197 217 l 2,32,33
 197 167 197 167 224.5 137.5 c 128,-1,34
 252 108 252 108 294 108 c 256,21,22
EndSplineSet
Validated: 1
EndChar

StartChar: e
Encoding: 101 101 9
Width: 562
GlyphClass: 2
Flags: W
AnchorPoint: "Anchor-2" 287 540 basechar 0
AnchorPoint: "Anchor-1" 383 0 basechar 0
AnchorPoint: "Anchor-0" 283 0 basechar 0
LayerCount: 2
Fore
SplineSet
288 -12 m 0,0,1
 228 -12 228 -12 181 7.5 c 128,-1,2
 134 27 134 27 101.5 62.5 c 128,-1,3
 69 98 69 98 52.5 149 c 128,-1,4
 36 200 36 200 36 263 c 0,5,6
 36 325 36 325 52 375.5 c 128,-1,7
 68 426 68 426 99.5 462 c 128,-1,8
 131 498 131 498 177 517.5 c 128,-1,9
 223 537 223 537 282 537 c 0,10,11
 347 537 347 537 393.5 515 c 128,-1,12
 440 493 440 493 469.5 456 c 128,-1,13
 499 419 499 419 512.5 370.5 c 128,-1,14
 526 322 526 322 526 269 c 2,15,-1
 526 225 l 1,16,-1
 189 225 l 1,17,-1
 189 217 l 2,18,19
 189 165 189 165 217 134.5 c 128,-1,20
 245 104 245 104 305 104 c 0,21,22
 351 104 351 104 380 122.5 c 128,-1,23
 409 141 409 141 434 167 c 1,24,-1
 508 75 l 1,25,26
 473 34 473 34 416.5 11 c 128,-1,27
 360 -12 360 -12 288 -12 c 0,0,1
285 428 m 256,28,29
 240 428 240 428 214.5 398.5 c 128,-1,30
 189 369 189 369 189 320 c 2,31,-1
 189 312 l 1,32,-1
 373 312 l 1,33,-1
 373 321 l 2,34,35
 373 369 373 369 351.5 398.5 c 128,-1,36
 330 428 330 428 285 428 c 256,28,29
EndSplineSet
Validated: 1
EndChar

StartChar: f
Encoding: 102 102 10
Width: 361
GlyphClass: 2
Flags: W
AnchorPoint: "Anchor-0" 170 0 basechar 0
LayerCount: 2
Fore
SplineSet
95 410 m 1,0,-1
 21 410 l 1,1,-1
 21 525 l 1,2,-1
 95 525 l 1,3,-1
 95 587 l 2,4,5
 95 663 95 663 135 701.5 c 128,-1,6
 175 740 175 740 252 740 c 2,7,-1
 348 740 l 1,8,-1
 348 625 l 1,9,-1
 243 625 l 1,10,-1
 243 525 l 1,11,-1
 348 525 l 1,12,-1
 348 410 l 1,13,-1
 243 410 l 1,14,-1
 243 0 l 1,15,-1
 95 0 l 1,16,-1
 95 410 l 1,0,-1
EndSplineSet
Validated: 1
EndChar

StartChar: g
Encoding: 103 103 11
Width: 552
GlyphClass: 2
Flags: W
AnchorPoint: "Anchor-2" 274 540 basechar 0
LayerCount: 2
Fore
SplineSet
555 -38 m 0,0,1
 555 -80 555 -80 540.5 -112 c 128,-1,2
 526 -144 526 -144 493 -166.5 c 128,-1,3
 460 -189 460 -189 405.5 -200.5 c 128,-1,4
 351 -212 351 -212 271 -212 c 0,5,6
 203 -212 203 -212 155.5 -203.5 c 128,-1,7
 108 -195 108 -195 78.5 -179.5 c 128,-1,8
 49 -164 49 -164 35.5 -141.5 c 128,-1,9
 22 -119 22 -119 22 -90 c 0,10,11
 22 -46 22 -46 48 -21 c 128,-1,12
 74 4 74 4 120 10 c 1,13,-1
 120 21 l 1,14,15
 82 28 82 28 63 53.5 c 128,-1,16
 44 79 44 79 44 113 c 0,17,18
 44 134 44 134 52.5 149.5 c 128,-1,19
 61 165 61 165 74.5 176.5 c 128,-1,20
 88 188 88 188 106 195 c 128,-1,21
 124 202 124 202 142 206 c 1,22,-1
 142 210 l 1,23,24
 94 232 94 232 71 270.5 c 128,-1,25
 48 309 48 309 48 360 c 0,26,27
 48 440 48 440 103.5 488.5 c 128,-1,28
 159 537 159 537 273 537 c 0,29,30
 325 537 325 537 362 527 c 1,31,-1
 362 547 l 2,32,33
 362 589 362 589 382.5 607.5 c 128,-1,34
 403 626 403 626 441 626 c 2,35,-1
 524 626 l 1,36,-1
 524 516 l 1,37,-1
 408 516 l 1,38,-1
 408 510 l 1,39,40
 454 488 454 488 476 449.5 c 128,-1,41
 498 411 498 411 498 360 c 0,42,43
 498 281 498 281 442.5 233.5 c 128,-1,44
 387 186 387 186 273 186 c 0,45,46
 222 186 222 186 180 197 c 1,47,48
 157 182 157 182 157 155 c 0,49,50
 157 136 157 136 171.5 125.5 c 128,-1,51
 186 115 186 115 220 115 c 2,52,-1
 372 115 l 2,53,54
 468 115 468 115 511.5 75 c 128,-1,55
 555 35 555 35 555 -38 c 0,0,1
416 -58 m 0,56,57
 416 -35 416 -35 398 -23 c 128,-1,58
 380 -11 380 -11 335 -11 c 2,59,-1
 155 -11 l 1,60,61
 145 -21 145 -21 140.5 -33.5 c 128,-1,62
 136 -46 136 -46 136 -58 c 0,63,64
 136 -87 136 -87 161 -100.5 c 128,-1,65
 186 -114 186 -114 246 -114 c 2,66,-1
 306 -114 l 2,67,68
 366 -114 366 -114 391 -100.5 c 128,-1,69
 416 -87 416 -87 416 -58 c 0,56,57
273 283 m 256,70,71
 317 283 317 283 338.5 301.5 c 128,-1,72
 360 320 360 320 360 355 c 2,73,-1
 360 367 l 2,74,75
 360 402 360 402 338.5 420.5 c 128,-1,76
 317 439 317 439 273 439 c 256,77,78
 229 439 229 439 207.5 420.5 c 128,-1,79
 186 402 186 402 186 367 c 2,80,-1
 186 355 l 2,81,82
 186 320 186 320 207.5 301.5 c 128,-1,83
 229 283 229 283 273 283 c 256,70,71
EndSplineSet
Validated: 1
Substitution2: "'salt' Stylistic Alternatives lookup 16 subtable" g.alt01
Substitution2: "'ss02' Style Set 2 lookup 12 subtable" g.alt01
AlternateSubs2: "'aalt' Access All Alternates lookup 1 subtable" g.alt01 g.alt02
EndChar

StartChar: g.alt01
Encoding: 65538 -1 12
Width: 608
GlyphClass: 2
Flags: W
AnchorPoint: "Anchor-2" 298 540 basechar 0
LayerCount: 2
Fore
SplineSet
539 32 m 2,0,1
 539 -84 539 -84 475 -148 c 128,-1,2
 411 -212 411 -212 282 -212 c 0,3,4
 205 -212 205 -212 155 -190.5 c 128,-1,5
 105 -169 105 -169 75 -137 c 1,6,-1
 154 -43 l 1,7,8
 204 -96 204 -96 278 -96 c 0,9,10
 336 -96 336 -96 363.5 -65.5 c 128,-1,11
 391 -35 391 -35 391 18 c 2,12,-1
 391 102 l 1,13,-1
 386 102 l 1,14,15
 380 81 380 81 367 62.5 c 128,-1,16
 354 44 354 44 335.5 30.5 c 128,-1,17
 317 17 317 17 293.5 9.5 c 128,-1,18
 270 2 270 2 245 2 c 0,19,20
 145 2 145 2 94 70.5 c 128,-1,21
 43 139 43 139 43 269 c 256,22,23
 43 399 43 399 94 468 c 128,-1,24
 145 537 145 537 245 537 c 0,25,26
 296 537 296 537 335.5 508.5 c 128,-1,27
 375 480 375 480 386 436 c 1,28,-1
 391 436 l 1,29,-1
 391 525 l 1,30,-1
 539 525 l 1,31,-1
 539 32 l 2,0,1
294 122 m 256,32,33
 336 122 336 122 363.5 142.5 c 128,-1,34
 391 163 391 163 391 199 c 2,35,-1
 391 340 l 2,36,37
 391 376 391 376 363.5 396.5 c 128,-1,38
 336 417 336 417 294 417 c 256,39,40
 252 417 252 417 224.5 387 c 128,-1,41
 197 357 197 357 197 307 c 2,42,-1
 197 232 l 2,43,44
 197 182 197 182 224.5 152 c 128,-1,45
 252 122 252 122 294 122 c 256,32,33
EndSplineSet
Validated: 1
EndChar

StartChar: g.alt02
Encoding: 65539 -1 13
Width: 562
GlyphClass: 2
Flags: W
AnchorPoint: "Anchor-2" 278 540 basechar 0
LayerCount: 2
Fore
SplineSet
555 -38 m 0,0,1
 555 -80 555 -80 540.5 -112 c 128,-1,2
 526 -144 526 -144 493 -166.5 c 128,-1,3
 460 -189 460 -189 405.5 -200.5 c 128,-1,4
 351 -212 351 -212 271 -212 c 0,5,6
 203 -212 203 -212 155.5 -203.5 c 128,-1,7
 108 -195 108 -195 78.5 -179.5 c 128,-1,8
 49 -164 49 -164 35.5 -141.5 c 128,-1,9
 22 -119 22 -119 22 -90 c 0,10,11
 22 -46 22 -46 48 -21 c 128,-1,12
 74 4 74 4 120 10 c 1,13,-1
 120 21 l 1,14,15
 82 28 82 28 63 53.5 c 128,-1,16
 44 79 44 79 44 113 c 0,17,18
 44 134 44 134 52.5 149.5 c 128,-1,19
 61 165 61 165 74.5 176.5 c 128,-1,20
 88 188 88 188 106 195 c 128,-1,21
 124 202 124 202 142 206 c 1,22,-1
 142 210 l 1,23,24
 94 232 94 232 71 270.5 c 128,-1,25
 48 309 48 309 48 360 c 0,26,27
 48 440 48 440 103.5 488.5 c 128,-1,28
 159 537 159 537 273 537 c 0,29,30
 298 537 298 537 323.5 534.5 c 128,-1,31
 349 532 349 532 372 525 c 1,32,-1
 546 525 l 1,33,-1
 546 426 l 1,34,-1
 482 426 l 1,35,36
 498 398 498 398 498 360 c 0,37,38
 498 281 498 281 442.5 233.5 c 128,-1,39
 387 186 387 186 273 186 c 0,40,41
 222 186 222 186 180 197 c 1,42,43
 157 182 157 182 157 155 c 0,44,45
 157 136 157 136 171.5 125.5 c 128,-1,46
 186 115 186 115 220 115 c 2,47,-1
 372 115 l 2,48,49
 468 115 468 115 511.5 75 c 128,-1,50
 555 35 555 35 555 -38 c 0,0,1
273 283 m 256,51,52
 317 283 317 283 338.5 301.5 c 128,-1,53
 360 320 360 320 360 355 c 2,54,-1
 360 367 l 2,55,56
 360 402 360 402 338.5 420.5 c 128,-1,57
 317 439 317 439 273 439 c 256,58,59
 229 439 229 439 207.5 420.5 c 128,-1,60
 186 402 186 402 186 367 c 2,61,-1
 186 355 l 2,62,63
 186 320 186 320 207.5 301.5 c 128,-1,64
 229 283 229 283 273 283 c 256,51,52
416 -58 m 0,65,66
 416 -35 416 -35 398 -23 c 128,-1,67
 380 -11 380 -11 335 -11 c 2,68,-1
 155 -11 l 1,69,70
 145 -21 145 -21 140.5 -33.5 c 128,-1,71
 136 -46 136 -46 136 -58 c 0,72,73
 136 -87 136 -87 161 -100.5 c 128,-1,74
 186 -114 186 -114 246 -114 c 2,75,-1
 306 -114 l 2,76,77
 366 -114 366 -114 391 -100.5 c 128,-1,78
 416 -87 416 -87 416 -58 c 0,65,66
EndSplineSet
Validated: 1
EndChar

StartChar: h
Encoding: 104 104 14
Width: 596
GlyphClass: 2
Flags: W
AnchorPoint: "Anchor-2" 143 698 basechar 0
AnchorPoint: "Anchor-0" 302 0 basechar 0
LayerCount: 2
Fore
SplineSet
69 740 m 1,0,-1
 217 740 l 1,1,-1
 217 436 l 1,2,-1
 223 436 l 1,3,4
 237 477 237 477 272 507 c 128,-1,5
 307 537 307 537 369 537 c 0,6,7
 450 537 450 537 491.5 483 c 128,-1,8
 533 429 533 429 533 329 c 2,9,-1
 533 0 l 1,10,-1
 385 0 l 1,11,-1
 385 317 l 2,12,13
 385 368 385 368 369 392.5 c 128,-1,14
 353 417 353 417 312 417 c 0,15,16
 294 417 294 417 277 412.5 c 128,-1,17
 260 408 260 408 246.5 398 c 128,-1,18
 233 388 233 388 225 373.5 c 128,-1,19
 217 359 217 359 217 340 c 2,20,-1
 217 0 l 1,21,-1
 69 0 l 1,22,-1
 69 740 l 1,0,-1
EndSplineSet
Validated: 1
EndChar

StartChar: i
Encoding: 105 105 15
Width: 286
GlyphClass: 2
Flags: W
AnchorPoint: "Anchor-1" 218 0 basechar 0
AnchorPoint: "Anchor-0" 143 0 basechar 0
LayerCount: 2
Fore
SplineSet
143 581 m 256,0,1
 98 581 98 581 77.5 601.5 c 128,-1,2
 57 622 57 622 57 654 c 2,3,-1
 57 676 l 2,4,5
 57 708 57 708 77.5 728.5 c 128,-1,6
 98 749 98 749 143 749 c 256,7,8
 188 749 188 749 208.5 728.5 c 128,-1,9
 229 708 229 708 229 676 c 2,10,-1
 229 654 l 2,11,12
 229 622 229 622 208.5 601.5 c 128,-1,13
 188 581 188 581 143 581 c 256,0,1
69 525 m 1,14,-1
 217 525 l 1,15,-1
 217 0 l 1,16,-1
 69 0 l 1,17,-1
 69 525 l 1,14,-1
EndSplineSet
Validated: 1
Substitution2: "Single Substitution lookup 20 subtable" dotlessi
EndChar

StartChar: j
Encoding: 106 106 16
Width: 286
Flags: W
LayerCount: 2
Fore
SplineSet
69 525 m 1,0,-1
 217 525 l 1,1,-1
 217 -56 l 2,2,3
 217 -126 217 -126 182 -163 c 128,-1,4
 147 -200 147 -200 69 -200 c 2,5,-1
 -9 -200 l 1,6,-1
 -9 -85 l 1,7,-1
 69 -85 l 1,8,-1
 69 525 l 1,0,-1
143 581 m 256,9,10
 98 581 98 581 77.5 601.5 c 128,-1,11
 57 622 57 622 57 654 c 2,12,-1
 57 676 l 2,13,14
 57 708 57 708 77.5 728.5 c 128,-1,15
 98 749 98 749 143 749 c 256,16,17
 188 749 188 749 208.5 728.5 c 128,-1,18
 229 708 229 708 229 676 c 2,19,-1
 229 654 l 2,20,21
 229 622 229 622 208.5 601.5 c 128,-1,22
 188 581 188 581 143 581 c 256,9,10
EndSplineSet
Validated: 1
Substitution2: "Single Substitution lookup 20 subtable" uni0237
EndChar

StartChar: k
Encoding: 107 107 17
Width: 577
GlyphClass: 2
Flags: W
AnchorPoint: "Anchor-0" 324 0 basechar 0
LayerCount: 2
Fore
SplineSet
69 740 m 1,0,-1
 217 740 l 1,1,-1
 217 303 l 1,2,-1
 223 303 l 1,3,-1
 288 400 l 1,4,-1
 393 525 l 1,5,-1
 557 525 l 1,6,-1
 382 324 l 1,7,-1
 577 0 l 1,8,-1
 401 0 l 1,9,-1
 283 222 l 1,10,-1
 217 148 l 1,11,-1
 217 0 l 1,12,-1
 69 0 l 1,13,-1
 69 740 l 1,0,-1
EndSplineSet
Validated: 1
EndChar

StartChar: l
Encoding: 108 108 18
Width: 303
GlyphClass: 2
Flags: W
AnchorPoint: "Anchor-3" 280 740 basechar 0
AnchorPoint: "Anchor-2" 143 740 basechar 0
AnchorPoint: "Anchor-0" 175 0 basechar 0
LayerCount: 2
Fore
SplineSet
216 0 m 2,0,1
 140 0 140 0 104.5 37 c 128,-1,2
 69 74 69 74 69 144 c 2,3,-1
 69 740 l 1,4,-1
 217 740 l 1,5,-1
 217 115 l 1,6,-1
 283 115 l 1,7,-1
 283 0 l 1,8,-1
 216 0 l 2,0,1
EndSplineSet
Validated: 1
EndChar

StartChar: m
Encoding: 109 109 19
Width: 894
GlyphClass: 2
Flags: W
AnchorPoint: "Anchor-2" 450 540 basechar 0
AnchorPoint: "Anchor-0" 450 0 basechar 0
LayerCount: 2
Fore
SplineSet
69 0 m 1,0,-1
 69 525 l 1,1,-1
 217 525 l 1,2,-1
 217 436 l 1,3,-1
 223 436 l 1,4,5
 237 478 237 478 271 507.5 c 128,-1,6
 305 537 305 537 364 537 c 0,7,8
 418 537 418 537 456 510 c 128,-1,9
 494 483 494 483 511 431 c 1,10,-1
 514 431 l 1,11,12
 521 453 521 453 535.5 472.5 c 128,-1,13
 550 492 550 492 571 506 c 128,-1,14
 592 520 592 520 618 528.5 c 128,-1,15
 644 537 644 537 674 537 c 0,16,17
 750 537 750 537 790.5 483 c 128,-1,18
 831 429 831 429 831 329 c 2,19,-1
 831 0 l 1,20,-1
 683 0 l 1,21,-1
 683 317 l 2,22,23
 683 417 683 417 611 417 c 0,24,25
 578 417 578 417 551 398 c 128,-1,26
 524 379 524 379 524 340 c 2,27,-1
 524 0 l 1,28,-1
 376 0 l 1,29,-1
 376 317 l 2,30,31
 376 417 376 417 304 417 c 0,32,33
 288 417 288 417 272.5 412.5 c 128,-1,34
 257 408 257 408 244.5 398 c 128,-1,35
 232 388 232 388 224.5 373.5 c 128,-1,36
 217 359 217 359 217 340 c 2,37,-1
 217 0 l 1,38,-1
 69 0 l 1,0,-1
EndSplineSet
Validated: 1
EndChar

StartChar: n
Encoding: 110 110 20
Width: 596
GlyphClass: 2
Flags: W
AnchorPoint: "Anchor-2" 299 540 basechar 0
AnchorPoint: "Anchor-0" 302 0 basechar 0
LayerCount: 2
Fore
SplineSet
69 0 m 1,0,-1
 69 525 l 1,1,-1
 217 525 l 1,2,-1
 217 436 l 1,3,-1
 223 436 l 1,4,5
 237 477 237 477 272 507 c 128,-1,6
 307 537 307 537 369 537 c 0,7,8
 450 537 450 537 491.5 483 c 128,-1,9
 533 429 533 429 533 329 c 2,10,-1
 533 0 l 1,11,-1
 385 0 l 1,12,-1
 385 317 l 2,13,14
 385 368 385 368 369 392.5 c 128,-1,15
 353 417 353 417 312 417 c 0,16,17
 294 417 294 417 277 412.5 c 128,-1,18
 260 408 260 408 246.5 398 c 128,-1,19
 233 388 233 388 225 373.5 c 128,-1,20
 217 359 217 359 217 340 c 2,21,-1
 217 0 l 1,22,-1
 69 0 l 1,0,-1
EndSplineSet
Validated: 1
EndChar

StartChar: o
Encoding: 111 111 21
Width: 564
GlyphClass: 2
Flags: W
AnchorPoint: "Anchor-2" 281 540 basechar 0
AnchorPoint: "Anchor-0" 281 0 basechar 0
LayerCount: 2
Fore
SplineSet
282 -12 m 256,0,1
 224 -12 224 -12 178.5 7 c 128,-1,2
 133 26 133 26 101.5 62 c 128,-1,3
 70 98 70 98 53 149 c 128,-1,4
 36 200 36 200 36 263 c 256,5,6
 36 326 36 326 53 377 c 128,-1,7
 70 428 70 428 101.5 463.5 c 128,-1,8
 133 499 133 499 178.5 518 c 128,-1,9
 224 537 224 537 282 537 c 256,10,11
 340 537 340 537 385.5 518 c 128,-1,12
 431 499 431 499 462.5 463.5 c 128,-1,13
 494 428 494 428 511 377 c 128,-1,14
 528 326 528 326 528 263 c 256,15,16
 528 200 528 200 511 149 c 128,-1,17
 494 98 494 98 462.5 62 c 128,-1,18
 431 26 431 26 385.5 7 c 128,-1,19
 340 -12 340 -12 282 -12 c 256,0,1
282 105 m 256,20,21
 326 105 326 105 350 132 c 128,-1,22
 374 159 374 159 374 209 c 2,23,-1
 374 316 l 2,24,25
 374 366 374 366 350 393 c 128,-1,26
 326 420 326 420 282 420 c 256,27,28
 238 420 238 420 214 393 c 128,-1,29
 190 366 190 366 190 316 c 2,30,-1
 190 209 l 2,31,32
 190 159 190 159 214 132 c 128,-1,33
 238 105 238 105 282 105 c 256,20,21
EndSplineSet
Validated: 1
Substitution2: "'ordn' Ordinals lookup 2 subtable" ordmasculine
EndChar

StartChar: p
Encoding: 112 112 22
Width: 608
GlyphClass: 2
Flags: W
AnchorPoint: "Anchor-2" 317 540 basechar 0
LayerCount: 2
Fore
SplineSet
69 525 m 1,0,-1
 217 525 l 1,1,-1
 217 437 l 1,2,-1
 222 437 l 1,3,4
 233 481 233 481 272.5 509 c 128,-1,5
 312 537 312 537 363 537 c 0,6,7
 463 537 463 537 514 467 c 128,-1,8
 565 397 565 397 565 263 c 256,9,10
 565 129 565 129 514 58.5 c 128,-1,11
 463 -12 463 -12 363 -12 c 0,12,13
 337 -12 337 -12 314 -4.5 c 128,-1,14
 291 3 291 3 272.5 16.5 c 128,-1,15
 254 30 254 30 241 48.5 c 128,-1,16
 228 67 228 67 222 88 c 1,17,-1
 217 88 l 1,18,-1
 217 -200 l 1,19,-1
 69 -200 l 1,20,-1
 69 525 l 1,0,-1
314 108 m 256,21,22
 356 108 356 108 383.5 137.5 c 128,-1,23
 411 167 411 167 411 217 c 2,24,-1
 411 308 l 2,25,26
 411 358 411 358 383.5 387.5 c 128,-1,27
 356 417 356 417 314 417 c 256,28,29
 272 417 272 417 244.5 396.5 c 128,-1,30
 217 376 217 376 217 340 c 2,31,-1
 217 185 l 2,32,33
 217 149 217 149 244.5 128.5 c 128,-1,34
 272 108 272 108 314 108 c 256,21,22
EndSplineSet
Validated: 1
EndChar

StartChar: q
Encoding: 113 113 23
Width: 608
GlyphClass: 2
Flags: W
AnchorPoint: "Anchor-2" 291 540 basechar 0
LayerCount: 2
Fore
SplineSet
391 88 m 1,0,-1
 386 88 l 1,1,2
 380 67 380 67 367 48.5 c 128,-1,3
 354 30 354 30 335.5 16.5 c 128,-1,4
 317 3 317 3 293.5 -4.5 c 128,-1,5
 270 -12 270 -12 245 -12 c 0,6,7
 145 -12 145 -12 94 58.5 c 128,-1,8
 43 129 43 129 43 263 c 256,9,10
 43 397 43 397 94 467 c 128,-1,11
 145 537 145 537 245 537 c 0,12,13
 296 537 296 537 335.5 509 c 128,-1,14
 375 481 375 481 386 437 c 1,15,-1
 391 437 l 1,16,-1
 391 525 l 1,17,-1
 539 525 l 1,18,-1
 539 -200 l 1,19,-1
 391 -200 l 1,20,-1
 391 88 l 1,0,-1
294 108 m 256,21,22
 336 108 336 108 363.5 128.5 c 128,-1,23
 391 149 391 149 391 185 c 2,24,-1
 391 340 l 2,25,26
 391 376 391 376 363.5 396.5 c 128,-1,27
 336 417 336 417 294 417 c 256,28,29
 252 417 252 417 224.5 387.5 c 128,-1,30
 197 358 197 358 197 308 c 2,31,-1
 197 217 l 2,32,33
 197 167 197 167 224.5 137.5 c 128,-1,34
 252 108 252 108 294 108 c 256,21,22
EndSplineSet
Validated: 1
EndChar

StartChar: r
Encoding: 114 114 24
Width: 404
GlyphClass: 2
Flags: W
AnchorPoint: "Anchor-2" 224 540 basechar 0
AnchorPoint: "Anchor-0" 143 0 basechar 0
LayerCount: 2
Fore
SplineSet
69 0 m 1,0,-1
 69 525 l 1,1,-1
 217 525 l 1,2,-1
 217 411 l 1,3,-1
 222 411 l 1,4,5
 226 433 226 433 236 453.5 c 128,-1,6
 246 474 246 474 262.5 490 c 128,-1,7
 279 506 279 506 302 515.5 c 128,-1,8
 325 525 325 525 356 525 c 2,9,-1
 382 525 l 1,10,-1
 382 387 l 1,11,-1
 345 387 l 2,12,13
 280 387 280 387 248.5 370 c 128,-1,14
 217 353 217 353 217 307 c 2,15,-1
 217 0 l 1,16,-1
 69 0 l 1,0,-1
EndSplineSet
Validated: 1
EndChar

StartChar: s
Encoding: 115 115 25
Width: 504
GlyphClass: 2
Flags: W
AnchorPoint: "Anchor-2" 250 540 basechar 0
AnchorPoint: "Anchor-0" 249 0 basechar 0
LayerCount: 2
Fore
SplineSet
247 -12 m 0,0,1
 171 -12 171 -12 119 12.5 c 128,-1,2
 67 37 67 37 26 82 c 1,3,-1
 113 170 l 1,4,5
 141 139 141 139 175 121 c 128,-1,6
 209 103 209 103 252 103 c 0,7,8
 296 103 296 103 313 116.5 c 128,-1,9
 330 130 330 130 330 153 c 0,10,11
 330 190 330 190 277 197 c 2,12,-1
 220 204 l 2,13,14
 43 226 43 226 43 366 c 0,15,16
 43 404 43 404 57.5 435.5 c 128,-1,17
 72 467 72 467 98.5 489.5 c 128,-1,18
 125 512 125 512 162.5 524.5 c 128,-1,19
 200 537 200 537 247 537 c 0,20,21
 288 537 288 537 319.5 531.5 c 128,-1,22
 351 526 351 526 375.5 515.5 c 128,-1,23
 400 505 400 505 420.5 489.5 c 128,-1,24
 441 474 441 474 461 455 c 1,25,-1
 376 368 l 1,26,27
 351 393 351 393 319.5 407.5 c 128,-1,28
 288 422 288 422 255 422 c 0,29,30
 217 422 217 422 201 410 c 128,-1,31
 185 398 185 398 185 378 c 0,32,33
 185 357 185 357 196.5 345.5 c 128,-1,34
 208 334 208 334 240 329 c 2,35,-1
 299 321 l 2,36,37
 472 298 472 298 472 163 c 0,38,39
 472 125 472 125 456 93 c 128,-1,40
 440 61 440 61 410.5 37.5 c 128,-1,41
 381 14 381 14 339.5 1 c 128,-1,42
 298 -12 298 -12 247 -12 c 0,0,1
EndSplineSet
Validated: 1
EndChar

StartChar: t
Encoding: 116 116 26
Width: 383
GlyphClass: 2
Flags: W
AnchorPoint: "Anchor-3" 308 791 basechar 0
AnchorPoint: "Anchor-0" 229 0 basechar 0
LayerCount: 2
Fore
SplineSet
253 0 m 2,0,1
 176 0 176 0 136.5 39 c 128,-1,2
 97 78 97 78 97 153 c 2,3,-1
 97 410 l 1,4,-1
 23 410 l 1,5,-1
 23 525 l 1,6,-1
 60 525 l 2,7,8
 90 525 90 525 101 539.5 c 128,-1,9
 112 554 112 554 112 581 c 2,10,-1
 112 667 l 1,11,-1
 245 667 l 1,12,-1
 245 525 l 1,13,-1
 349 525 l 1,14,-1
 349 410 l 1,15,-1
 245 410 l 1,16,-1
 245 115 l 1,17,-1
 341 115 l 1,18,-1
 341 0 l 1,19,-1
 253 0 l 2,0,1
EndSplineSet
Validated: 1
EndChar

StartChar: u
Encoding: 117 117 27
Width: 596
GlyphClass: 2
Flags: W
AnchorPoint: "Anchor-2" 295 540 basechar 0
AnchorPoint: "Anchor-1" 528 0 basechar 0
AnchorPoint: "Anchor-0" 295 0 basechar 0
LayerCount: 2
Fore
SplineSet
379 88 m 1,0,-1
 374 88 l 1,1,2
 367 68 367 68 355.5 50 c 128,-1,3
 344 32 344 32 326 18 c 128,-1,4
 308 4 308 4 283.5 -4 c 128,-1,5
 259 -12 259 -12 227 -12 c 0,6,7
 146 -12 146 -12 104.5 41.5 c 128,-1,8
 63 95 63 95 63 195 c 2,9,-1
 63 525 l 1,10,-1
 211 525 l 1,11,-1
 211 208 l 2,12,13
 211 160 211 160 228 134 c 128,-1,14
 245 108 245 108 286 108 c 0,15,16
 303 108 303 108 320 113 c 128,-1,17
 337 118 337 118 350 127.5 c 128,-1,18
 363 137 363 137 371 151 c 128,-1,19
 379 165 379 165 379 184 c 2,20,-1
 379 525 l 1,21,-1
 527 525 l 1,22,-1
 527 0 l 1,23,-1
 379 0 l 1,24,-1
 379 88 l 1,0,-1
EndSplineSet
Validated: 1
EndChar

StartChar: v
Encoding: 118 118 28
Width: 538
GlyphClass: 2
Flags: W
AnchorPoint: "Anchor-2" 269 540 basechar 0
AnchorPoint: "Anchor-0" 269 0 basechar 0
LayerCount: 2
Fore
SplineSet
181 0 m 1,0,-1
 9 525 l 1,1,-1
 155 525 l 1,2,-1
 220 313 l 1,3,-1
 269 123 l 1,4,-1
 277 123 l 1,5,-1
 326 313 l 1,6,-1
 389 525 l 1,7,-1
 529 525 l 1,8,-1
 357 0 l 1,9,-1
 181 0 l 1,0,-1
EndSplineSet
Validated: 1
EndChar

StartChar: w
Encoding: 119 119 29
Width: 841
GlyphClass: 2
Flags: W
AnchorPoint: "Anchor-2" 421 540 basechar 0
AnchorPoint: "Anchor-0" 421 0 basechar 0
LayerCount: 2
Fore
SplineSet
19 525 m 1,0,-1
 162 525 l 1,1,-1
 213 313 l 1,2,-1
 249 153 l 1,3,-1
 253 153 l 1,4,-1
 295 313 l 1,5,-1
 355 525 l 1,6,-1
 490 525 l 1,7,-1
 551 313 l 1,8,-1
 594 153 l 1,9,-1
 598 153 l 1,10,-1
 634 313 l 1,11,-1
 685 525 l 1,12,-1
 822 525 l 1,13,-1
 677 0 l 1,14,-1
 522 0 l 1,15,-1
 458 222 l 1,16,-1
 421 358 l 1,17,-1
 418 358 l 1,18,-1
 382 222 l 1,19,-1
 318 0 l 1,20,-1
 166 0 l 1,21,-1
 19 525 l 1,0,-1
EndSplineSet
Validated: 1
EndChar

StartChar: x
Encoding: 120 120 30
Width: 560
GlyphClass: 2
Flags: W
AnchorPoint: "Anchor-2" 280 540 basechar 0
AnchorPoint: "Anchor-0" 280 0 basechar 0
LayerCount: 2
Fore
SplineSet
18 0 m 1,0,-1
 191 267 l 1,1,-1
 20 525 l 1,2,-1
 188 525 l 1,3,-1
 286 360 l 1,4,-1
 290 360 l 1,5,-1
 385 525 l 1,6,-1
 541 525 l 1,7,-1
 367 262 l 1,8,-1
 542 0 l 1,9,-1
 374 0 l 1,10,-1
 273 171 l 1,11,-1
 269 171 l 1,12,-1
 172 0 l 1,13,-1
 18 0 l 1,0,-1
EndSplineSet
Validated: 1
EndChar

StartChar: y
Encoding: 121 121 31
Width: 534
GlyphClass: 2
Flags: W
AnchorPoint: "Anchor-2" 271 540 basechar 0
AnchorPoint: "Anchor-0" 432 0 basechar 0
LayerCount: 2
Fore
SplineSet
390 525 m 1,0,-1
 528 525 l 1,1,-1
 326 -81 l 2,2,3
 306 -142 306 -142 269.5 -171 c 128,-1,4
 233 -200 233 -200 165 -200 c 2,5,-1
 73 -200 l 1,6,-1
 73 -85 l 1,7,-1
 172 -85 l 1,8,-1
 190 -27 l 1,9,-1
 6 525 l 1,10,-1
 153 525 l 1,11,-1
 230 280 l 1,12,-1
 268 128 l 1,13,-1
 274 128 l 1,14,-1
 313 280 l 1,15,-1
 390 525 l 1,0,-1
EndSplineSet
Validated: 1
EndChar

StartChar: z
Encoding: 122 122 32
Width: 518
GlyphClass: 2
Flags: W
AnchorPoint: "Anchor-2" 259 540 basechar 0
AnchorPoint: "Anchor-0" 259 0 basechar 0
LayerCount: 2
Fore
SplineSet
39 0 m 1,0,-1
 39 117 l 1,1,-1
 300 410 l 1,2,-1
 48 410 l 1,3,-1
 48 525 l 1,4,-1
 472 525 l 1,5,-1
 472 409 l 1,6,-1
 210 115 l 1,7,-1
 479 115 l 1,8,-1
 479 0 l 1,9,-1
 39 0 l 1,0,-1
EndSplineSet
Validated: 1
EndChar

StartChar: A
Encoding: 65 65 33
Width: 685
GlyphClass: 2
Flags: W
AnchorPoint: "Anchor-2" 339 698 basechar 0
AnchorPoint: "Anchor-1" 666 0 basechar 0
AnchorPoint: "Anchor-0" 339 0 basechar 0
LayerCount: 2
Fore
SplineSet
507 0 m 1,0,-1
 457 166 l 1,1,-1
 224 166 l 1,2,-1
 174 0 l 1,3,-1
 20 0 l 1,4,-1
 250 698 l 1,5,-1
 438 698 l 1,6,-1
 665 0 l 1,7,-1
 507 0 l 1,0,-1
342 560 m 1,8,-1
 337 560 l 1,9,-1
 260 295 l 1,10,-1
 420 295 l 1,11,-1
 342 560 l 1,8,-1
EndSplineSet
Validated: 1
EndChar

StartChar: B
Encoding: 66 66 34
Width: 667
GlyphClass: 2
Flags: W
AnchorPoint: "Anchor-2" 353 698 basechar 0
AnchorPoint: "Anchor-0" 353 0 basechar 0
LayerCount: 2
Fore
SplineSet
77 698 m 1,0,-1
 416 698 l 2,1,2
 503 698 503 698 551.5 649 c 128,-1,3
 600 600 600 600 600 519 c 0,4,5
 600 479 600 479 589.5 451 c 128,-1,6
 579 423 579 423 561.5 405 c 128,-1,7
 544 387 544 387 520.5 378.5 c 128,-1,8
 497 370 497 370 470 369 c 1,9,-1
 470 363 l 1,10,11
 495 363 495 363 522.5 354 c 128,-1,12
 550 345 550 345 573 325.5 c 128,-1,13
 596 306 596 306 611.5 275 c 128,-1,14
 627 244 627 244 627 199 c 0,15,16
 627 158 627 158 613.5 121.5 c 128,-1,17
 600 85 600 85 576 58 c 128,-1,18
 552 31 552 31 519 15.5 c 128,-1,19
 486 0 486 0 447 0 c 2,20,-1
 77 0 l 1,21,-1
 77 698 l 1,0,-1
229 128 m 1,22,-1
 404 128 l 2,23,24
 434 128 434 128 451.5 144.5 c 128,-1,25
 469 161 469 161 469 191 c 2,26,-1
 469 225 l 2,27,28
 469 255 469 255 451.5 271.5 c 128,-1,29
 434 288 434 288 404 288 c 2,30,-1
 229 288 l 1,31,-1
 229 128 l 1,22,-1
229 412 m 1,32,-1
 380 412 l 2,33,34
 410 412 410 412 427 429 c 128,-1,35
 444 446 444 446 444 476 c 2,36,-1
 444 506 l 2,37,38
 444 536 444 536 427 553 c 128,-1,39
 410 570 410 570 380 570 c 2,40,-1
 229 570 l 1,41,-1
 229 412 l 1,32,-1
EndSplineSet
Validated: 1
EndChar

StartChar: C
Encoding: 67 67 35
Width: 651
GlyphClass: 2
Flags: W
AnchorPoint: "Anchor-2" 355 698 basechar 0
AnchorPoint: "Anchor-0" 335 0 basechar 0
LayerCount: 2
Fore
SplineSet
359 -12 m 0,0,1
 288 -12 288 -12 231 10.5 c 128,-1,2
 174 33 174 33 134 77.5 c 128,-1,3
 94 122 94 122 72 188.5 c 128,-1,4
 50 255 50 255 50 344 c 0,5,6
 50 432 50 432 72 500.5 c 128,-1,7
 94 569 94 569 134 615.5 c 128,-1,8
 174 662 174 662 231 686 c 128,-1,9
 288 710 288 710 359 710 c 0,10,11
 456 710 456 710 519 670.5 c 128,-1,12
 582 631 582 631 620 546 c 1,13,-1
 489 478 l 1,14,15
 475 522 475 522 445.5 548.5 c 128,-1,16
 416 575 416 575 359 575 c 0,17,18
 292 575 292 575 251.5 531.5 c 128,-1,19
 211 488 211 488 211 405 c 2,20,-1
 211 293 l 2,21,22
 211 210 211 210 251.5 166.5 c 128,-1,23
 292 123 292 123 359 123 c 0,24,25
 415 123 415 123 448.5 153.5 c 128,-1,26
 482 184 482 184 498 227 c 1,27,-1
 622 155 l 1,28,29
 583 75 583 75 519.5 31.5 c 128,-1,30
 456 -12 456 -12 359 -12 c 0,0,1
EndSplineSet
Validated: 1
EndChar

StartChar: D
Encoding: 68 68 36
Width: 697
GlyphClass: 2
Flags: W
AnchorPoint: "Anchor-2" 323 698 basechar 0
AnchorPoint: "Anchor-0" 364 0 basechar 0
LayerCount: 2
Fore
SplineSet
77 698 m 1,0,-1
 340 698 l 2,1,2
 409 698 409 698 466 676 c 128,-1,3
 523 654 523 654 563 610.5 c 128,-1,4
 603 567 603 567 625 501.5 c 128,-1,5
 647 436 647 436 647 349 c 256,6,7
 647 262 647 262 625 196.5 c 128,-1,8
 603 131 603 131 563 87.5 c 128,-1,9
 523 44 523 44 466 22 c 128,-1,10
 409 0 409 0 340 0 c 2,11,-1
 77 0 l 1,12,-1
 77 698 l 1,0,-1
340 135 m 2,13,14
 408 135 408 135 447 173 c 128,-1,15
 486 211 486 211 486 295 c 2,16,-1
 486 403 l 2,17,18
 486 487 486 487 447 525 c 128,-1,19
 408 563 408 563 340 563 c 2,20,-1
 229 563 l 1,21,-1
 229 135 l 1,22,-1
 340 135 l 2,13,14
EndSplineSet
Validated: 1
EndChar

StartChar: E
Encoding: 69 69 37
Width: 607
GlyphClass: 2
Flags: W
AnchorPoint: "Anchor-2" 315 698 basechar 0
AnchorPoint: "Anchor-1" 554 0 basechar 0
AnchorPoint: "Anchor-0" 315 0 basechar 0
LayerCount: 2
Fore
SplineSet
77 0 m 1,0,-1
 77 698 l 1,1,-1
 552 698 l 1,2,-1
 552 563 l 1,3,-1
 229 563 l 1,4,-1
 229 420 l 1,5,-1
 506 420 l 1,6,-1
 506 286 l 1,7,-1
 229 286 l 1,8,-1
 229 135 l 1,9,-1
 552 135 l 1,10,-1
 552 0 l 1,11,-1
 77 0 l 1,0,-1
EndSplineSet
Validated: 1
EndChar

StartChar: F
Encoding: 70 70 38
Width: 585
GlyphClass: 2
Flags: W
AnchorPoint: "Anchor-2" 309 698 basechar 0
AnchorPoint: "Anchor-0" 316 0 basechar 0
LayerCount: 2
Fore
SplineSet
77 0 m 1,0,-1
 77 698 l 1,1,-1
 540 698 l 1,2,-1
 540 563 l 1,3,-1
 229 563 l 1,4,-1
 229 420 l 1,5,-1
 494 420 l 1,6,-1
 494 286 l 1,7,-1
 229 286 l 1,8,-1
 229 0 l 1,9,-1
 77 0 l 1,0,-1
EndSplineSet
Validated: 1
EndChar

StartChar: G
Encoding: 71 71 39
Width: 719
GlyphClass: 2
Flags: W
AnchorPoint: "Anchor-2" 358 698 basechar 0
AnchorPoint: "Anchor-0" 349 0 basechar 0
LayerCount: 2
Fore
SplineSet
520 111 m 1,0,-1
 515 111 l 1,1,2
 507 58 507 58 461 23 c 128,-1,3
 415 -12 415 -12 336 -12 c 0,4,5
 276 -12 276 -12 224 11 c 128,-1,6
 172 34 172 34 133 79 c 128,-1,7
 94 124 94 124 72 191 c 128,-1,8
 50 258 50 258 50 346 c 256,9,10
 50 434 50 434 73 502 c 128,-1,11
 96 570 96 570 137.5 616 c 128,-1,12
 179 662 179 662 237 686 c 128,-1,13
 295 710 295 710 366 710 c 0,14,15
 460 710 460 710 528 669.5 c 128,-1,16
 596 629 596 629 635 548 c 1,17,-1
 511 477 l 1,18,19
 495 518 495 518 461 546.5 c 128,-1,20
 427 575 427 575 366 575 c 0,21,22
 295 575 295 575 253 534 c 128,-1,23
 211 493 211 493 211 405 c 2,24,-1
 211 293 l 2,25,26
 211 206 211 206 253 164.5 c 128,-1,27
 295 123 295 123 366 123 c 0,28,29
 394 123 394 123 419 129.5 c 128,-1,30
 444 136 444 136 463 149.5 c 128,-1,31
 482 163 482 163 492.5 182 c 128,-1,32
 503 201 503 201 503 227 c 2,33,-1
 503 262 l 1,34,-1
 373 262 l 1,35,-1
 373 389 l 1,36,-1
 648 389 l 1,37,-1
 648 0 l 1,38,-1
 520 0 l 1,39,-1
 520 111 l 1,0,-1
EndSplineSet
Validated: 1
EndChar

StartChar: H
Encoding: 72 72 40
Width: 724
GlyphClass: 2
Flags: W
AnchorPoint: "Anchor-2" 362 698 basechar 0
AnchorPoint: "Anchor-0" 362 0 basechar 0
LayerCount: 2
Fore
SplineSet
495 286 m 1,0,-1
 229 286 l 1,1,-1
 229 0 l 1,2,-1
 77 0 l 1,3,-1
 77 698 l 1,4,-1
 229 698 l 1,5,-1
 229 420 l 1,6,-1
 495 420 l 1,7,-1
 495 698 l 1,8,-1
 647 698 l 1,9,-1
 647 0 l 1,10,-1
 495 0 l 1,11,-1
 495 286 l 1,0,-1
EndSplineSet
Validated: 1
EndChar

StartChar: I
Encoding: 73 73 41
Width: 432
GlyphClass: 2
Flags: W
AnchorPoint: "Anchor-2" 216 698 basechar 0
AnchorPoint: "Anchor-1" 384 0 basechar 0
AnchorPoint: "Anchor-0" 216 0 basechar 0
LayerCount: 2
Fore
SplineSet
50 0 m 1,0,-1
 50 121 l 1,1,-1
 140 121 l 1,2,-1
 140 577 l 1,3,-1
 50 577 l 1,4,-1
 50 698 l 1,5,-1
 382 698 l 1,6,-1
 382 577 l 1,7,-1
 292 577 l 1,8,-1
 292 121 l 1,9,-1
 382 121 l 1,10,-1
 382 0 l 1,11,-1
 50 0 l 1,0,-1
EndSplineSet
Validated: 1
EndChar

StartChar: J
Encoding: 74 74 42
Width: 559
GlyphClass: 2
Flags: W
AnchorPoint: "Anchor-2" 303 698 basechar 0
AnchorPoint: "Anchor-0" 256 0 basechar 0
LayerCount: 2
Fore
SplineSet
486 698 m 1,0,-1
 486 202 l 2,1,2
 486 154 486 154 470.5 114.5 c 128,-1,3
 455 75 455 75 425 47.5 c 128,-1,4
 395 20 395 20 352.5 4.5 c 128,-1,5
 310 -11 310 -11 256 -11 c 0,6,7
 204 -11 204 -11 164.5 3 c 128,-1,8
 125 17 125 17 96.5 43 c 128,-1,9
 68 69 68 69 50 105 c 128,-1,10
 32 141 32 141 25 185 c 1,11,-1
 167 213 l 1,12,13
 184 122 184 122 254 122 c 0,14,15
 287 122 287 122 310.5 143 c 128,-1,16
 334 164 334 164 334 209 c 2,17,-1
 334 576 l 1,18,-1
 122 576 l 1,19,-1
 122 698 l 1,20,-1
 486 698 l 1,0,-1
EndSplineSet
Validated: 1
EndChar

StartChar: K
Encoding: 75 75 43
Width: 696
GlyphClass: 2
Flags: W
AnchorPoint: "Anchor-2" 382 698 basechar 0
AnchorPoint: "Anchor-0" 365 0 basechar 0
LayerCount: 2
Fore
SplineSet
320 304 m 1,0,-1
 229 194 l 1,1,-1
 229 0 l 1,2,-1
 77 0 l 1,3,-1
 77 698 l 1,4,-1
 229 698 l 1,5,-1
 229 366 l 1,6,-1
 235 366 l 1,7,-1
 334 501 l 1,8,-1
 491 698 l 1,9,-1
 663 698 l 1,10,-1
 428 411 l 1,11,-1
 684 0 l 1,12,-1
 505 0 l 1,13,-1
 320 304 l 1,0,-1
EndSplineSet
Validated: 1
EndChar

StartChar: L
Encoding: 76 76 44
Width: 530
GlyphClass: 2
Flags: W
AnchorPoint: "Anchor-3" 301 740 basechar 0
AnchorPoint: "Anchor-2" 153 698 basechar 0
AnchorPoint: "Anchor-0" 286 0 basechar 0
LayerCount: 2
Fore
SplineSet
77 0 m 1,0,-1
 77 698 l 1,1,-1
 229 698 l 1,2,-1
 229 135 l 1,3,-1
 495 135 l 1,4,-1
 495 0 l 1,5,-1
 77 0 l 1,0,-1
EndSplineSet
Validated: 1
EndChar

StartChar: M
Encoding: 77 77 45
Width: 819
GlyphClass: 2
Flags: W
AnchorPoint: "Anchor-2" 409 698 basechar 0
AnchorPoint: "Anchor-0" 409 0 basechar 0
LayerCount: 2
Fore
SplineSet
599 458 m 1,0,-1
 596 458 l 1,1,-1
 545 356 l 1,2,-1
 409 109 l 1,3,-1
 276 355 l 1,4,-1
 223 465 l 1,5,-1
 220 465 l 1,6,-1
 220 0 l 1,7,-1
 77 0 l 1,8,-1
 77 698 l 1,9,-1
 238 698 l 1,10,-1
 409 371 l 1,11,-1
 411 371 l 1,12,-1
 580 698 l 1,13,-1
 742 698 l 1,14,-1
 742 0 l 1,15,-1
 599 0 l 1,16,-1
 599 458 l 1,0,-1
EndSplineSet
Validated: 1
EndChar

StartChar: N
Encoding: 78 78 46
Width: 724
GlyphClass: 2
Flags: W
AnchorPoint: "Anchor-2" 361 698 basechar 0
AnchorPoint: "Anchor-0" 361 0 basechar 0
LayerCount: 2
Fore
SplineSet
290 330 m 1,0,-1
 223 470 l 1,1,-1
 220 470 l 1,2,-1
 220 0 l 1,3,-1
 77 0 l 1,4,-1
 77 698 l 1,5,-1
 243 698 l 1,6,-1
 434 368 l 1,7,-1
 501 228 l 1,8,-1
 504 228 l 1,9,-1
 504 698 l 1,10,-1
 647 698 l 1,11,-1
 647 0 l 1,12,-1
 481 0 l 1,13,-1
 290 330 l 1,0,-1
EndSplineSet
Validated: 1
EndChar

StartChar: O
Encoding: 79 79 47
Width: 714
GlyphClass: 2
Flags: W
AnchorPoint: "Anchor-2" 357 698 basechar 0
AnchorPoint: "Anchor-0" 357 0 basechar 0
LayerCount: 2
Fore
SplineSet
357 -12 m 256,0,1
 288 -12 288 -12 231 11 c 128,-1,2
 174 34 174 34 134 79.5 c 128,-1,3
 94 125 94 125 72 192.5 c 128,-1,4
 50 260 50 260 50 349 c 256,5,6
 50 438 50 438 72 505.5 c 128,-1,7
 94 573 94 573 134 618.5 c 128,-1,8
 174 664 174 664 231 687 c 128,-1,9
 288 710 288 710 357 710 c 256,10,11
 426 710 426 710 483 687 c 128,-1,12
 540 664 540 664 580 618.5 c 128,-1,13
 620 573 620 573 642 505.5 c 128,-1,14
 664 438 664 438 664 349 c 256,15,16
 664 260 664 260 642 192.5 c 128,-1,17
 620 125 620 125 580 79.5 c 128,-1,18
 540 34 540 34 483 11 c 128,-1,19
 426 -12 426 -12 357 -12 c 256,0,1
357 123 m 256,20,21
 426 123 426 123 464.5 168 c 128,-1,22
 503 213 503 213 503 297 c 2,23,-1
 503 401 l 2,24,25
 503 485 503 485 464.5 530 c 128,-1,26
 426 575 426 575 357 575 c 256,27,28
 288 575 288 575 249.5 530 c 128,-1,29
 211 485 211 485 211 401 c 2,30,-1
 211 297 l 2,31,32
 211 213 211 213 249.5 168 c 128,-1,33
 288 123 288 123 357 123 c 256,20,21
EndSplineSet
Validated: 1
EndChar

StartChar: P
Encoding: 80 80 48
Width: 656
GlyphClass: 2
Flags: W
AnchorPoint: "Anchor-2" 349 698 basechar 0
AnchorPoint: "Anchor-0" 357 0 basechar 0
LayerCount: 2
Fore
SplineSet
77 0 m 1,0,-1
 77 698 l 1,1,-1
 407 698 l 2,2,3
 456 698 456 698 495 681.5 c 128,-1,4
 534 665 534 665 561.5 636 c 128,-1,5
 589 607 589 607 604 565.5 c 128,-1,6
 619 524 619 524 619 475 c 0,7,8
 619 425 619 425 604 384 c 128,-1,9
 589 343 589 343 561.5 314 c 128,-1,10
 534 285 534 285 495 268.5 c 128,-1,11
 456 252 456 252 407 252 c 2,12,-1
 229 252 l 1,13,-1
 229 0 l 1,14,-1
 77 0 l 1,0,-1
229 384 m 1,15,-1
 389 384 l 2,16,17
 423 384 423 384 442.5 401.5 c 128,-1,18
 462 419 462 419 462 453 c 2,19,-1
 462 497 l 2,20,21
 462 531 462 531 442.5 548.5 c 128,-1,22
 423 566 423 566 389 566 c 2,23,-1
 229 566 l 1,24,-1
 229 384 l 1,15,-1
EndSplineSet
Validated: 1
EndChar

StartChar: Q
Encoding: 81 81 49
Width: 714
GlyphClass: 2
Flags: W
AnchorPoint: "Anchor-2" 357 698 basechar 0
LayerCount: 2
Fore
SplineSet
542 -184 m 1,0,-1
 448 -184 l 2,1,2
 367 -184 367 -184 330 -146 c 128,-1,3
 293 -108 293 -108 293 -36 c 2,4,-1
 293 -7 l 1,5,6
 181 13 181 13 115.5 102.5 c 128,-1,7
 50 192 50 192 50 349 c 0,8,9
 50 438 50 438 72 505.5 c 128,-1,10
 94 573 94 573 134 618.5 c 128,-1,11
 174 664 174 664 231 687 c 128,-1,12
 288 710 288 710 357 710 c 256,13,14
 426 710 426 710 483 687 c 128,-1,15
 540 664 540 664 580 618.5 c 128,-1,16
 620 573 620 573 642 505.5 c 128,-1,17
 664 438 664 438 664 349 c 0,18,19
 664 197 664 197 602.5 108 c 128,-1,20
 541 19 541 19 435 -4 c 1,21,-1
 435 -60 l 1,22,-1
 542 -60 l 1,23,-1
 542 -184 l 1,0,-1
357 123 m 256,24,25
 426 123 426 123 464.5 168 c 128,-1,26
 503 213 503 213 503 297 c 2,27,-1
 503 401 l 2,28,29
 503 485 503 485 464.5 530 c 128,-1,30
 426 575 426 575 357 575 c 256,31,32
 288 575 288 575 249.5 530 c 128,-1,33
 211 485 211 485 211 401 c 2,34,-1
 211 297 l 2,35,36
 211 213 211 213 249.5 168 c 128,-1,37
 288 123 288 123 357 123 c 256,24,25
EndSplineSet
Validated: 1
EndChar

StartChar: R
Encoding: 82 82 50
Width: 674
GlyphClass: 2
Flags: W
AnchorPoint: "Anchor-2" 324 698 basechar 0
AnchorPoint: "Anchor-0" 354 0 basechar 0
LayerCount: 2
Fore
SplineSet
229 0 m 1,0,-1
 77 0 l 1,1,-1
 77 698 l 1,2,-1
 408 698 l 2,3,4
 456 698 456 698 495 682 c 128,-1,5
 534 666 534 666 561.5 636.5 c 128,-1,6
 589 607 589 607 604 566 c 128,-1,7
 619 525 619 525 619 475 c 0,8,9
 619 404 619 404 587.5 351 c 128,-1,10
 556 298 556 298 492 274 c 1,11,-1
 629 0 l 1,12,-1
 460 0 l 1,13,-1
 338 256 l 1,14,-1
 229 256 l 1,15,-1
 229 0 l 1,0,-1
389 384 m 2,16,17
 423 384 423 384 442.5 401.5 c 128,-1,18
 462 419 462 419 462 453 c 2,19,-1
 462 497 l 2,20,21
 462 531 462 531 442.5 548.5 c 128,-1,22
 423 566 423 566 389 566 c 2,23,-1
 229 566 l 1,24,-1
 229 384 l 1,25,-1
 389 384 l 2,16,17
EndSplineSet
Validated: 1
EndChar

StartChar: S
Encoding: 83 83 51
Width: 624
GlyphClass: 2
Flags: W
AnchorPoint: "Anchor-2" 310 698 basechar 0
AnchorPoint: "Anchor-0" 310 0 basechar 0
LayerCount: 2
Fore
SplineSet
303 -12 m 0,0,1
 211 -12 211 -12 147 19.5 c 128,-1,2
 83 51 83 51 38 101 c 1,3,-1
 138 202 l 1,4,5
 209 122 209 122 313 122 c 0,6,7
 369 122 369 122 396 145 c 128,-1,8
 423 168 423 168 423 206 c 0,9,10
 423 235 423 235 407 254.5 c 128,-1,11
 391 274 391 274 342 281 c 2,12,-1
 273 290 l 2,13,14
 162 304 162 304 110.5 357 c 128,-1,15
 59 410 59 410 59 498 c 0,16,17
 59 545 59 545 77 584 c 128,-1,18
 95 623 95 623 128.5 651 c 128,-1,19
 162 679 162 679 210.5 694.5 c 128,-1,20
 259 710 259 710 321 710 c 0,21,22
 400 710 400 710 460 685 c 128,-1,23
 520 660 520 660 563 612 c 1,24,-1
 462 510 l 1,25,26
 437 539 437 539 401.5 557.5 c 128,-1,27
 366 576 366 576 312 576 c 0,28,29
 261 576 261 576 236 558 c 128,-1,30
 211 540 211 540 211 508 c 0,31,32
 211 472 211 472 230.5 456 c 128,-1,33
 250 440 250 440 294 433 c 2,34,-1
 363 422 l 2,35,36
 471 405 471 405 523 355.5 c 128,-1,37
 575 306 575 306 575 215 c 0,38,39
 575 165 575 165 557 123 c 128,-1,40
 539 81 539 81 504.5 51 c 128,-1,41
 470 21 470 21 419 4.5 c 128,-1,42
 368 -12 368 -12 303 -12 c 0,0,1
EndSplineSet
Validated: 1
EndChar

StartChar: T
Encoding: 84 84 52
Width: 584
GlyphClass: 2
Flags: W
AnchorPoint: "Anchor-2" 292 698 basechar 0
AnchorPoint: "Anchor-0" 292 0 basechar 0
LayerCount: 2
Fore
SplineSet
368 563 m 1,0,-1
 368 0 l 1,1,-1
 216 0 l 1,2,-1
 216 563 l 1,3,-1
 27 563 l 1,4,-1
 27 698 l 1,5,-1
 557 698 l 1,6,-1
 557 563 l 1,7,-1
 368 563 l 1,0,-1
EndSplineSet
Validated: 1
EndChar

StartChar: U
Encoding: 85 85 53
Width: 694
GlyphClass: 2
Flags: W
AnchorPoint: "Anchor-2" 347 698 basechar 0
AnchorPoint: "Anchor-1" 455 0 basechar 0
AnchorPoint: "Anchor-0" 347 0 basechar 0
LayerCount: 2
Fore
SplineSet
221 698 m 1,0,-1
 221 270 l 2,1,2
 221 196 221 196 250 159.5 c 128,-1,3
 279 123 279 123 347 123 c 256,4,5
 415 123 415 123 444 159.5 c 128,-1,6
 473 196 473 196 473 270 c 2,7,-1
 473 698 l 1,8,-1
 621 698 l 1,9,-1
 621 286 l 2,10,11
 621 209 621 209 606.5 152.5 c 128,-1,12
 592 96 592 96 559 59.5 c 128,-1,13
 526 23 526 23 474 5.5 c 128,-1,14
 422 -12 422 -12 347 -12 c 256,15,16
 272 -12 272 -12 220 5.5 c 128,-1,17
 168 23 168 23 135 59.5 c 128,-1,18
 102 96 102 96 87.5 152.5 c 128,-1,19
 73 209 73 209 73 286 c 2,20,-1
 73 698 l 1,21,-1
 221 698 l 1,0,-1
EndSplineSet
Validated: 1
EndChar

StartChar: V
Encoding: 86 86 54
Width: 650
GlyphClass: 2
Flags: W
AnchorPoint: "Anchor-2" 325 698 basechar 0
AnchorPoint: "Anchor-0" 325 0 basechar 0
LayerCount: 2
Fore
SplineSet
239 0 m 1,0,-1
 14 698 l 1,1,-1
 168 698 l 1,2,-1
 272 363 l 1,3,-1
 327 144 l 1,4,-1
 330 144 l 1,5,-1
 383 363 l 1,6,-1
 487 698 l 1,7,-1
 636 698 l 1,8,-1
 409 0 l 1,9,-1
 239 0 l 1,0,-1
EndSplineSet
Validated: 1
EndChar

StartChar: W
Encoding: 87 87 55
Width: 973
GlyphClass: 2
Flags: W
AnchorPoint: "Anchor-2" 487 698 basechar 0
AnchorPoint: "Anchor-0" 487 0 basechar 0
LayerCount: 2
Fore
SplineSet
187 0 m 1,0,-1
 29 698 l 1,1,-1
 179 698 l 1,2,-1
 245 363 l 1,3,-1
 282 169 l 1,4,-1
 285 169 l 1,5,-1
 329 363 l 1,6,-1
 406 698 l 1,7,-1
 572 698 l 1,8,-1
 650 363 l 1,9,-1
 693 169 l 1,10,-1
 696 169 l 1,11,-1
 733 363 l 1,12,-1
 800 698 l 1,13,-1
 944 698 l 1,14,-1
 782 0 l 1,15,-1
 609 0 l 1,16,-1
 521 378 l 1,17,-1
 487 531 l 1,18,-1
 484 531 l 1,19,-1
 449 378 l 1,20,-1
 361 0 l 1,21,-1
 187 0 l 1,0,-1
EndSplineSet
Validated: 1
EndChar

StartChar: X
Encoding: 88 88 56
Width: 673
GlyphClass: 2
Flags: W
AnchorPoint: "Anchor-2" 337 698 basechar 0
AnchorPoint: "Anchor-0" 337 0 basechar 0
LayerCount: 2
Fore
SplineSet
657 0 m 1,0,-1
 481 0 l 1,1,-1
 330 257 l 1,2,-1
 327 257 l 1,3,-1
 180 0 l 1,4,-1
 16 0 l 1,5,-1
 240 361 l 1,6,-1
 27 698 l 1,7,-1
 204 698 l 1,8,-1
 340 462 l 1,9,-1
 343 462 l 1,10,-1
 481 698 l 1,11,-1
 645 698 l 1,12,-1
 430 358 l 1,13,-1
 657 0 l 1,0,-1
EndSplineSet
Validated: 1
EndChar

StartChar: Y
Encoding: 89 89 57
Width: 649
GlyphClass: 2
Flags: W
AnchorPoint: "Anchor-2" 325 698 basechar 0
AnchorPoint: "Anchor-0" 323 0 basechar 0
LayerCount: 2
Fore
SplineSet
248 0 m 1,0,-1
 248 273 l 1,1,-1
 9 698 l 1,2,-1
 179 698 l 1,3,-1
 329 420 l 1,4,-1
 331 420 l 1,5,-1
 475 698 l 1,6,-1
 640 698 l 1,7,-1
 401 274 l 1,8,-1
 401 0 l 1,9,-1
 248 0 l 1,0,-1
EndSplineSet
Validated: 1
EndChar

StartChar: Z
Encoding: 90 90 58
Width: 607
GlyphClass: 2
Flags: W
AnchorPoint: "Anchor-2" 303 698 basechar 0
AnchorPoint: "Anchor-0" 303 0 basechar 0
LayerCount: 2
Fore
SplineSet
568 0 m 1,0,-1
 39 0 l 1,1,-1
 39 135 l 1,2,-1
 383 563 l 1,3,-1
 56 563 l 1,4,-1
 56 698 l 1,5,-1
 560 698 l 1,6,-1
 560 563 l 1,7,-1
 215 135 l 1,8,-1
 568 135 l 1,9,-1
 568 0 l 1,0,-1
EndSplineSet
Validated: 1
EndChar

StartChar: zero
Encoding: 48 48 59
Width: 600
Flags: W
LayerCount: 2
Fore
SplineSet
300 -12 m 256,0,1
 163 -12 163 -12 97 83 c 128,-1,2
 31 178 31 178 31 349 c 256,3,4
 31 520 31 520 97 615 c 128,-1,5
 163 710 163 710 300 710 c 256,6,7
 437 710 437 710 503 615 c 128,-1,8
 569 520 569 520 569 349 c 256,9,10
 569 178 569 178 503 83 c 128,-1,11
 437 -12 437 -12 300 -12 c 256,0,1
300 115 m 256,12,13
 360 115 360 115 383 159 c 128,-1,14
 406 203 406 203 406 283 c 2,15,-1
 406 415 l 2,16,17
 406 495 406 495 383 539 c 128,-1,18
 360 583 360 583 300 583 c 256,19,20
 240 583 240 583 217 539 c 128,-1,21
 194 495 194 495 194 415 c 2,22,-1
 194 283 l 2,23,24
 194 203 194 203 217 159 c 128,-1,25
 240 115 240 115 300 115 c 256,12,13
EndSplineSet
Validated: 1
Substitution2: "'salt' Stylistic Alternatives lookup 16 subtable" zero.alt01
Substitution2: "'ss04' Style Set 4 lookup 14 subtable" zero.alt01
Substitution2: "'ss03' Style Set 3 lookup 13 subtable" zero.alt02
Substitution2: "'zero' Slashed Zero lookup 10 subtable" zero.alt02
Substitution2: "'subs' Subscript lookup 9 subtable" uni2080
Substitution2: "'sinf' Scientific Inferiors lookup 8 subtable" uni2080
Substitution2: "'sups' Superscript lookup 7 subtable" uni2070
Substitution2: "'dnom' Denominators lookup 6 subtable" uni2080
Substitution2: "'numr' Numerators lookup 5 subtable" uni2070
Substitution2: "'frac' Diagonal Fractions lookup 3 subtable" uni2070
AlternateSubs2: "'aalt' Access All Alternates lookup 1 subtable" zero.alt01 zero.alt02
EndChar

StartChar: zero.alt01
Encoding: 65540 -1 60
Width: 600
Flags: W
LayerCount: 2
Fore
SplineSet
300 -12 m 256,0,1
 163 -12 163 -12 97 83 c 128,-1,2
 31 178 31 178 31 349 c 256,3,4
 31 520 31 520 97 615 c 128,-1,5
 163 710 163 710 300 710 c 256,6,7
 437 710 437 710 503 615 c 128,-1,8
 569 520 569 520 569 349 c 256,9,10
 569 178 569 178 503 83 c 128,-1,11
 437 -12 437 -12 300 -12 c 256,0,1
300 115 m 0,12,13
 361 115 361 115 385 159 c 128,-1,14
 409 203 409 203 409 283 c 2,15,-1
 409 415 l 2,16,17
 409 494 409 494 385 538.5 c 128,-1,18
 361 583 361 583 300 583 c 0,19,20
 238 583 238 583 214.5 538.5 c 128,-1,21
 191 494 191 494 191 415 c 2,22,-1
 191 283 l 2,23,24
 191 243 191 243 196.5 212 c 128,-1,25
 202 181 202 181 214.5 159.5 c 128,-1,26
 227 138 227 138 248 126.5 c 128,-1,27
 269 115 269 115 300 115 c 0,12,13
302 286 m 256,28,29
 270 286 270 286 255 302 c 128,-1,30
 240 318 240 318 240 342 c 2,31,-1
 240 356 l 2,32,33
 240 380 240 380 255 396 c 128,-1,34
 270 412 270 412 302 412 c 256,35,36
 334 412 334 412 349 396 c 128,-1,37
 364 380 364 380 364 356 c 2,38,-1
 364 342 l 2,39,40
 364 318 364 318 349 302 c 128,-1,41
 334 286 334 286 302 286 c 256,28,29
EndSplineSet
Validated: 1
EndChar

StartChar: zero.alt02
Encoding: 65541 -1 61
Width: 600
Flags: W
LayerCount: 2
Fore
SplineSet
300 -12 m 256,0,1
 163 -12 163 -12 97 83 c 128,-1,2
 31 178 31 178 31 349 c 256,3,4
 31 520 31 520 97 615 c 128,-1,5
 163 710 163 710 300 710 c 256,6,7
 437 710 437 710 503 615 c 128,-1,8
 569 520 569 520 569 349 c 256,9,10
 569 178 569 178 503 83 c 128,-1,11
 437 -12 437 -12 300 -12 c 256,0,1
300 115 m 0,12,13
 360 115 360 115 383 159 c 128,-1,14
 406 203 406 203 406 283 c 2,15,-1
 406 400 l 1,16,-1
 207 181 l 1,17,18
 218 149 218 149 240.5 132 c 128,-1,19
 263 115 263 115 300 115 c 0,12,13
194 306 m 1,20,-1
 390 523 l 1,21,22
 379 552 379 552 357 567.5 c 128,-1,23
 335 583 335 583 300 583 c 0,24,25
 240 583 240 583 217 539 c 128,-1,26
 194 495 194 495 194 415 c 2,27,-1
 194 306 l 1,20,-1
EndSplineSet
Validated: 1
EndChar

StartChar: one
Encoding: 49 49 62
Width: 600
Flags: W
LayerCount: 2
Fore
SplineSet
94 0 m 1,0,-1
 94 121 l 1,1,-1
 282 121 l 1,2,-1
 282 589 l 1,3,-1
 273 589 l 1,4,-1
 131 403 l 1,5,-1
 35 478 l 1,6,-1
 202 698 l 1,7,-1
 432 698 l 1,8,-1
 432 121 l 1,9,-1
 580 121 l 1,10,-1
 580 0 l 1,11,-1
 94 0 l 1,0,-1
EndSplineSet
Validated: 1
Substitution2: "'subs' Subscript lookup 9 subtable" uni2081
Substitution2: "'sinf' Scientific Inferiors lookup 8 subtable" uni2081
Substitution2: "'sups' Superscript lookup 7 subtable" onesuperior
Substitution2: "'dnom' Denominators lookup 6 subtable" uni2081
Substitution2: "'numr' Numerators lookup 5 subtable" onesuperior
Substitution2: "'frac' Diagonal Fractions lookup 3 subtable" onesuperior
EndChar

StartChar: two
Encoding: 50 50 63
Width: 600
Flags: W
LayerCount: 2
Fore
SplineSet
551 0 m 1,0,-1
 57 0 l 1,1,-1
 57 137 l 1,2,-1
 272 321 l 2,3,4
 301 346 301 346 321 366.5 c 128,-1,5
 341 387 341 387 353.5 406.5 c 128,-1,6
 366 426 366 426 371.5 445 c 128,-1,7
 377 464 377 464 377 486 c 2,8,-1
 377 500 l 2,9,10
 377 520 377 520 369 535 c 128,-1,11
 361 550 361 550 348 560 c 128,-1,12
 335 570 335 570 318.5 575 c 128,-1,13
 302 580 302 580 285 580 c 0,14,15
 260 580 260 580 241.5 572 c 128,-1,16
 223 564 223 564 209.5 550.5 c 128,-1,17
 196 537 196 537 187 519.5 c 128,-1,18
 178 502 178 502 173 482 c 1,19,-1
 42 532 l 1,20,21
 54 568 54 568 75 600.5 c 128,-1,22
 96 633 96 633 127.5 657.5 c 128,-1,23
 159 682 159 682 202 696 c 128,-1,24
 245 710 245 710 299 710 c 0,25,26
 356 710 356 710 400 694 c 128,-1,27
 444 678 444 678 474.5 650 c 128,-1,28
 505 622 505 622 521 583.5 c 128,-1,29
 537 545 537 545 537 500 c 256,30,31
 537 455 537 455 522 418 c 128,-1,32
 507 381 507 381 481.5 348.5 c 128,-1,33
 456 316 456 316 422 287 c 128,-1,34
 388 258 388 258 351 228 c 2,35,-1
 221 126 l 1,36,-1
 551 126 l 1,37,-1
 551 0 l 1,0,-1
EndSplineSet
Validated: 1
Substitution2: "'subs' Subscript lookup 9 subtable" uni2082
Substitution2: "'sinf' Scientific Inferiors lookup 8 subtable" uni2082
Substitution2: "'sups' Superscript lookup 7 subtable" twosuperior
Substitution2: "'dnom' Denominators lookup 6 subtable" uni2082
Substitution2: "'numr' Numerators lookup 5 subtable" twosuperior
Substitution2: "'frac' Diagonal Fractions lookup 3 subtable" twosuperior
EndChar

StartChar: three
Encoding: 51 51 64
Width: 600
Flags: W
LayerCount: 2
Fore
SplineSet
262 422 m 2,0,1
 318 422 318 422 343.5 443.5 c 128,-1,2
 369 465 369 465 369 497 c 2,3,-1
 369 504 l 2,4,5
 369 542 369 542 344.5 565 c 128,-1,6
 320 588 320 588 275 588 c 0,7,8
 233 588 233 588 196 566.5 c 128,-1,9
 159 545 159 545 133 505 c 1,10,-1
 39 593 l 1,11,12
 59 619 59 619 82 640.5 c 128,-1,13
 105 662 105 662 134 677.5 c 128,-1,14
 163 693 163 693 199 701.5 c 128,-1,15
 235 710 235 710 280 710 c 0,16,17
 336 710 336 710 381.5 697 c 128,-1,18
 427 684 427 684 459.5 659.5 c 128,-1,19
 492 635 492 635 509.5 601 c 128,-1,20
 527 567 527 567 527 525 c 0,21,22
 527 492 527 492 516.5 465 c 128,-1,23
 506 438 506 438 487.5 418 c 128,-1,24
 469 398 469 398 445 385.5 c 128,-1,25
 421 373 421 373 394 368 c 1,26,-1
 394 362 l 1,27,28
 425 356 425 356 451.5 342.5 c 128,-1,29
 478 329 478 329 497.5 308 c 128,-1,30
 517 287 517 287 528 258.5 c 128,-1,31
 539 230 539 230 539 194 c 0,32,33
 539 147 539 147 520 109 c 128,-1,34
 501 71 501 71 466 44 c 128,-1,35
 431 17 431 17 382 2.5 c 128,-1,36
 333 -12 333 -12 274 -12 c 0,37,38
 221 -12 221 -12 180 -1 c 128,-1,39
 139 10 139 10 108.5 28.5 c 128,-1,40
 78 47 78 47 55.5 71 c 128,-1,41
 33 95 33 95 16 122 c 1,42,-1
 127 208 l 1,43,44
 150 165 150 165 183.5 137.5 c 128,-1,45
 217 110 217 110 274 110 c 0,46,47
 325 110 325 110 353.5 135.5 c 128,-1,48
 382 161 382 161 382 205 c 2,49,-1
 382 211 l 2,50,51
 382 254 382 254 349.5 275.5 c 128,-1,52
 317 297 317 297 260 297 c 2,53,-1
 197 297 l 1,54,-1
 197 422 l 1,55,-1
 262 422 l 2,0,1
EndSplineSet
Validated: 1
Substitution2: "'subs' Subscript lookup 9 subtable" uni2083
Substitution2: "'sinf' Scientific Inferiors lookup 8 subtable" uni2083
Substitution2: "'sups' Superscript lookup 7 subtable" threesuperior
Substitution2: "'dnom' Denominators lookup 6 subtable" uni2083
Substitution2: "'numr' Numerators lookup 5 subtable" threesuperior
Substitution2: "'frac' Diagonal Fractions lookup 3 subtable" threesuperior
EndChar

StartChar: four
Encoding: 52 52 65
Width: 600
Flags: W
LayerCount: 2
Fore
SplineSet
337 0 m 1,0,-1
 337 134 l 1,1,-1
 30 134 l 1,2,-1
 30 262 l 1,3,-1
 302 698 l 1,4,-1
 480 698 l 1,5,-1
 480 250 l 1,6,-1
 568 250 l 1,7,-1
 568 134 l 1,8,-1
 480 134 l 1,9,-1
 480 0 l 1,10,-1
 337 0 l 1,0,-1
150 250 m 1,11,-1
 337 250 l 1,12,-1
 337 543 l 1,13,-1
 327 543 l 1,14,-1
 150 250 l 1,11,-1
EndSplineSet
Validated: 1
Substitution2: "'subs' Subscript lookup 9 subtable" uni2084
Substitution2: "'sinf' Scientific Inferiors lookup 8 subtable" uni2084
Substitution2: "'sups' Superscript lookup 7 subtable" uni2074
Substitution2: "'dnom' Denominators lookup 6 subtable" uni2084
Substitution2: "'numr' Numerators lookup 5 subtable" uni2074
Substitution2: "'frac' Diagonal Fractions lookup 3 subtable" uni2074
EndChar

StartChar: five
Encoding: 53 53 66
Width: 600
Flags: W
LayerCount: 2
Fore
SplineSet
522 567 m 1,0,-1
 205 567 l 1,1,-1
 190 346 l 1,2,-1
 198 346 l 1,3,4
 208 371 208 371 220.5 391.5 c 128,-1,5
 233 412 233 412 250 426.5 c 128,-1,6
 267 441 267 441 291 449 c 128,-1,7
 315 457 315 457 348 457 c 0,8,9
 393 457 393 457 432 442 c 128,-1,10
 471 427 471 427 500 398.5 c 128,-1,11
 529 370 529 370 546 328.5 c 128,-1,12
 563 287 563 287 563 235 c 0,13,14
 563 182 563 182 545.5 136.5 c 128,-1,15
 528 91 528 91 493.5 58 c 128,-1,16
 459 25 459 25 409 6.5 c 128,-1,17
 359 -12 359 -12 295 -12 c 0,18,19
 244 -12 244 -12 205 -1 c 128,-1,20
 166 10 166 10 136 28.5 c 128,-1,21
 106 47 106 47 84 71 c 128,-1,22
 62 95 62 95 46 122 c 1,23,-1
 155 208 l 1,24,25
 178 167 178 167 210 138.5 c 128,-1,26
 242 110 242 110 296 110 c 256,27,28
 350 110 350 110 377.5 141 c 128,-1,29
 405 172 405 172 405 223 c 2,30,-1
 405 231 l 2,31,32
 405 279 405 279 377 307 c 128,-1,33
 349 335 349 335 300 335 c 0,34,35
 259 335 259 335 232.5 318.5 c 128,-1,36
 206 302 206 302 192 286 c 1,37,-1
 69 303 l 1,38,-1
 95 698 l 1,39,-1
 522 698 l 1,40,-1
 522 567 l 1,0,-1
EndSplineSet
Validated: 1
Substitution2: "'subs' Subscript lookup 9 subtable" uni2085
Substitution2: "'sinf' Scientific Inferiors lookup 8 subtable" uni2085
Substitution2: "'sups' Superscript lookup 7 subtable" uni2075
Substitution2: "'dnom' Denominators lookup 6 subtable" uni2085
Substitution2: "'numr' Numerators lookup 5 subtable" uni2075
Substitution2: "'frac' Diagonal Fractions lookup 3 subtable" uni2075
EndChar

StartChar: six
Encoding: 54 54 67
Width: 600
Flags: W
LayerCount: 2
Fore
SplineSet
304 -12 m 0,0,1
 242 -12 242 -12 193 7.5 c 128,-1,2
 144 27 144 27 110.5 63.5 c 128,-1,3
 77 100 77 100 59.5 151 c 128,-1,4
 42 202 42 202 42 265 c 0,5,6
 42 338 42 338 64.5 403.5 c 128,-1,7
 87 469 87 469 122.5 524.5 c 128,-1,8
 158 580 158 580 202.5 624 c 128,-1,9
 247 668 247 668 292 698 c 1,10,-1
 499 698 l 1,11,12
 435 652 435 652 384 610.5 c 128,-1,13
 333 569 333 569 295.5 527 c 128,-1,14
 258 485 258 485 233.5 441.5 c 128,-1,15
 209 398 209 398 199 348 c 1,16,-1
 208 345 l 1,17,18
 217 365 217 365 229.5 384 c 128,-1,19
 242 403 242 403 260.5 417.5 c 128,-1,20
 279 432 279 432 304 441 c 128,-1,21
 329 450 329 450 362 450 c 0,22,23
 405 450 405 450 442.5 434.5 c 128,-1,24
 480 419 480 419 507.5 391 c 128,-1,25
 535 363 535 363 550.5 322.5 c 128,-1,26
 566 282 566 282 566 233 c 0,27,28
 566 179 566 179 547.5 134 c 128,-1,29
 529 89 529 89 494.5 56.5 c 128,-1,30
 460 24 460 24 412 6 c 128,-1,31
 364 -12 364 -12 304 -12 c 0,0,1
304 105 m 256,32,33
 354 105 354 105 382 132.5 c 128,-1,34
 410 160 410 160 410 211 c 2,35,-1
 410 229 l 2,36,37
 410 280 410 280 382 307.5 c 128,-1,38
 354 335 354 335 304 335 c 256,39,40
 254 335 254 335 226 307.5 c 128,-1,41
 198 280 198 280 198 229 c 2,42,-1
 198 211 l 2,43,44
 198 160 198 160 226 132.5 c 128,-1,45
 254 105 254 105 304 105 c 256,32,33
EndSplineSet
Validated: 1
Substitution2: "'subs' Subscript lookup 9 subtable" uni2086
Substitution2: "'sinf' Scientific Inferiors lookup 8 subtable" uni2086
Substitution2: "'sups' Superscript lookup 7 subtable" uni2076
Substitution2: "'dnom' Denominators lookup 6 subtable" uni2086
Substitution2: "'numr' Numerators lookup 5 subtable" uni2076
Substitution2: "'frac' Diagonal Fractions lookup 3 subtable" uni2076
EndChar

StartChar: seven
Encoding: 55 55 68
Width: 600
Flags: W
LayerCount: 2
Fore
SplineSet
166 0 m 1,0,-1
 400 576 l 1,1,-1
 182 576 l 1,2,-1
 182 449 l 1,3,-1
 55 449 l 1,4,-1
 55 698 l 1,5,-1
 549 698 l 1,6,-1
 549 568 l 1,7,-1
 324 0 l 1,8,-1
 166 0 l 1,0,-1
EndSplineSet
Validated: 1
Substitution2: "'subs' Subscript lookup 9 subtable" uni2087
Substitution2: "'sinf' Scientific Inferiors lookup 8 subtable" uni2087
Substitution2: "'sups' Superscript lookup 7 subtable" uni2077
Substitution2: "'dnom' Denominators lookup 6 subtable" uni2087
Substitution2: "'numr' Numerators lookup 5 subtable" uni2077
Substitution2: "'frac' Diagonal Fractions lookup 3 subtable" uni2077
EndChar

StartChar: eight
Encoding: 56 56 69
Width: 600
Flags: W
LayerCount: 2
Fore
SplineSet
300 -12 m 256,0,1
 238 -12 238 -12 189.5 3.5 c 128,-1,2
 141 19 141 19 108 46 c 128,-1,3
 75 73 75 73 57.5 110 c 128,-1,4
 40 147 40 147 40 191 c 0,5,6
 40 258 40 258 77 300.5 c 128,-1,7
 114 343 114 343 177 360 c 1,8,-1
 177 368 l 1,9,10
 126 387 126 387 93.5 426 c 128,-1,11
 61 465 61 465 61 526 c 0,12,13
 61 566 61 566 76.5 600 c 128,-1,14
 92 634 92 634 122.5 658.5 c 128,-1,15
 153 683 153 683 197.5 696.5 c 128,-1,16
 242 710 242 710 300 710 c 256,17,18
 358 710 358 710 402.5 696.5 c 128,-1,19
 447 683 447 683 477.5 658.5 c 128,-1,20
 508 634 508 634 523.5 600 c 128,-1,21
 539 566 539 566 539 526 c 0,22,23
 539 465 539 465 506.5 426 c 128,-1,24
 474 387 474 387 423 368 c 1,25,-1
 423 360 l 1,26,27
 486 343 486 343 523 300.5 c 128,-1,28
 560 258 560 258 560 191 c 0,29,30
 560 147 560 147 542.5 110 c 128,-1,31
 525 73 525 73 492 46 c 128,-1,32
 459 19 459 19 410.5 3.5 c 128,-1,33
 362 -12 362 -12 300 -12 c 256,0,1
300 103 m 256,34,35
 350 103 350 103 376.5 126.5 c 128,-1,36
 403 150 403 150 403 192 c 2,37,-1
 403 212 l 2,38,39
 403 254 403 254 376.5 277.5 c 128,-1,40
 350 301 350 301 300 301 c 256,41,42
 250 301 250 301 223.5 277.5 c 128,-1,43
 197 254 197 254 197 212 c 2,44,-1
 197 192 l 2,45,46
 197 150 197 150 223.5 126.5 c 128,-1,47
 250 103 250 103 300 103 c 256,34,35
300 411 m 256,48,49
 348 411 348 411 373 433.5 c 128,-1,50
 398 456 398 456 398 495 c 2,51,-1
 398 511 l 2,52,53
 398 550 398 550 373 572.5 c 128,-1,54
 348 595 348 595 300 595 c 256,55,56
 252 595 252 595 227 572.5 c 128,-1,57
 202 550 202 550 202 511 c 2,58,-1
 202 495 l 2,59,60
 202 456 202 456 227 433.5 c 128,-1,61
 252 411 252 411 300 411 c 256,48,49
EndSplineSet
Validated: 1
Substitution2: "'subs' Subscript lookup 9 subtable" uni2088
Substitution2: "'sinf' Scientific Inferiors lookup 8 subtable" uni2088
Substitution2: "'sups' Superscript lookup 7 subtable" uni2078
Substitution2: "'dnom' Denominators lookup 6 subtable" uni2088
Substitution2: "'numr' Numerators lookup 5 subtable" uni2078
Substitution2: "'frac' Diagonal Fractions lookup 3 subtable" uni2078
EndChar

StartChar: nine
Encoding: 57 57 70
Width: 600
Flags: W
LayerCount: 2
Fore
SplineSet
558 433 m 0,0,1
 558 359 558 359 535.5 294 c 128,-1,2
 513 229 513 229 477.5 173.5 c 128,-1,3
 442 118 442 118 397.5 74 c 128,-1,4
 353 30 353 30 308 0 c 1,5,-1
 101 0 l 1,6,7
 165 46 165 46 216 87.5 c 128,-1,8
 267 129 267 129 304.5 171 c 128,-1,9
 342 213 342 213 366 256.5 c 128,-1,10
 390 300 390 300 401 350 c 1,11,-1
 392 353 l 1,12,13
 383 333 383 333 370.5 314 c 128,-1,14
 358 295 358 295 339.5 280.5 c 128,-1,15
 321 266 321 266 296 257 c 128,-1,16
 271 248 271 248 238 248 c 0,17,18
 195 248 195 248 157.5 263.5 c 128,-1,19
 120 279 120 279 92.5 307 c 128,-1,20
 65 335 65 335 49.5 375 c 128,-1,21
 34 415 34 415 34 465 c 0,22,23
 34 519 34 519 52.5 564 c 128,-1,24
 71 609 71 609 105.5 641.5 c 128,-1,25
 140 674 140 674 188 692 c 128,-1,26
 236 710 236 710 296 710 c 0,27,28
 358 710 358 710 407 690.5 c 128,-1,29
 456 671 456 671 489.5 634.5 c 128,-1,30
 523 598 523 598 540.5 547 c 128,-1,31
 558 496 558 496 558 433 c 0,0,1
296 363 m 256,32,33
 346 363 346 363 374 390.5 c 128,-1,34
 402 418 402 418 402 469 c 2,35,-1
 402 487 l 2,36,37
 402 538 402 538 374 565.5 c 128,-1,38
 346 593 346 593 296 593 c 256,39,40
 246 593 246 593 218 565.5 c 128,-1,41
 190 538 190 538 190 487 c 2,42,-1
 190 469 l 2,43,44
 190 418 190 418 218 390.5 c 128,-1,45
 246 363 246 363 296 363 c 256,32,33
EndSplineSet
Validated: 1
Substitution2: "'subs' Subscript lookup 9 subtable" uni2089
Substitution2: "'sinf' Scientific Inferiors lookup 8 subtable" uni2089
Substitution2: "'sups' Superscript lookup 7 subtable" uni2079
Substitution2: "'dnom' Denominators lookup 6 subtable" uni2089
Substitution2: "'numr' Numerators lookup 5 subtable" uni2079
Substitution2: "'frac' Diagonal Fractions lookup 3 subtable" uni2079
EndChar

StartChar: ampersand
Encoding: 38 38 71
Width: 721
Flags: W
LayerCount: 2
Fore
SplineSet
487 57 m 1,0,1
 454 30 454 30 407 9 c 128,-1,2
 360 -12 360 -12 287 -12 c 0,3,4
 229 -12 229 -12 185 2.5 c 128,-1,5
 141 17 141 17 111 43.5 c 128,-1,6
 81 70 81 70 65.5 105.5 c 128,-1,7
 50 141 50 141 50 183 c 0,8,9
 50 219 50 219 60.5 247 c 128,-1,10
 71 275 71 275 89.5 298 c 128,-1,11
 108 321 108 321 134 340 c 128,-1,12
 160 359 160 359 190 377 c 1,13,14
 175 393 175 393 161 412 c 128,-1,15
 147 431 147 431 136 452 c 128,-1,16
 125 473 125 473 118.5 496 c 128,-1,17
 112 519 112 519 112 543 c 0,18,19
 112 577 112 577 126.5 607.5 c 128,-1,20
 141 638 141 638 168.5 661 c 128,-1,21
 196 684 196 684 234.5 697 c 128,-1,22
 273 710 273 710 321 710 c 0,23,24
 364 710 364 710 400.5 699.5 c 128,-1,25
 437 689 437 689 464 668.5 c 128,-1,26
 491 648 491 648 506.5 618 c 128,-1,27
 522 588 522 588 522 550 c 0,28,29
 522 517 522 517 511 490 c 128,-1,30
 500 463 500 463 481 440.5 c 128,-1,31
 462 418 462 418 436.5 399 c 128,-1,32
 411 380 411 380 383 363 c 1,33,-1
 491 246 l 1,34,35
 504 278 504 278 511 314 c 128,-1,36
 518 350 518 350 520 385 c 1,37,-1
 687 385 l 1,38,-1
 687 262 l 1,39,-1
 624 262 l 1,40,41
 607 198 607 198 579 151 c 1,42,-1
 718 0 l 1,43,-1
 539 0 l 1,44,-1
 487 57 l 1,0,1
317 597 m 256,45,46
 290 597 290 597 271.5 582 c 128,-1,47
 253 567 253 567 253 540 c 2,48,-1
 253 536 l 2,49,50
 253 516 253 516 266 496.5 c 128,-1,51
 279 477 279 477 310 442 c 1,52,53
 345 463 345 463 363 484.5 c 128,-1,54
 381 506 381 506 381 536 c 2,55,-1
 381 540 l 2,56,57
 381 567 381 567 362.5 582 c 128,-1,58
 344 597 344 597 317 597 c 256,45,46
309 111 m 0,59,60
 368 111 368 111 410 139 c 1,61,-1
 263 298 l 1,62,63
 229 278 229 278 215 257 c 128,-1,64
 201 236 201 236 201 209 c 2,65,-1
 201 199 l 2,66,67
 201 161 201 161 228 136 c 128,-1,68
 255 111 255 111 309 111 c 0,59,60
EndSplineSet
Validated: 1
EndChar

StartChar: at
Encoding: 64 64 72
Width: 903
Flags: W
LayerCount: 2
Fore
SplineSet
672 -121 m 1,0,-1
 462 -121 l 2,1,2
 367 -121 367 -121 292.5 -91 c 128,-1,3
 218 -61 218 -61 166.5 -6.5 c 128,-1,4
 115 48 115 48 88 123.5 c 128,-1,5
 61 199 61 199 61 291 c 0,6,7
 61 382 61 382 89 459 c 128,-1,8
 117 536 117 536 169 591.5 c 128,-1,9
 221 647 221 647 295 678 c 128,-1,10
 369 709 369 709 462 709 c 0,11,12
 548 709 548 709 619 682.5 c 128,-1,13
 690 656 690 656 740.5 607.5 c 128,-1,14
 791 559 791 559 818.5 489.5 c 128,-1,15
 846 420 846 420 846 335 c 0,16,17
 846 215 846 215 795.5 148.5 c 128,-1,18
 745 82 745 82 659 82 c 0,19,20
 605 82 605 82 571 108 c 128,-1,21
 537 134 537 134 534 176 c 1,22,-1
 529 176 l 1,23,24
 519 134 519 134 491.5 109 c 128,-1,25
 464 84 464 84 414 84 c 0,26,27
 348 84 348 84 304 136.5 c 128,-1,28
 260 189 260 189 260 291 c 256,29,30
 260 393 260 393 304 445.5 c 128,-1,31
 348 498 348 498 414 498 c 0,32,33
 456 498 456 498 482 475.5 c 128,-1,34
 508 453 508 453 517 420 c 1,35,-1
 522 420 l 1,36,-1
 522 489 l 1,37,-1
 633 489 l 1,38,-1
 633 220 l 2,39,40
 633 170 633 170 677 170 c 0,41,42
 711 170 711 170 732 206.5 c 128,-1,43
 753 243 753 243 753 320 c 2,44,-1
 753 348 l 2,45,46
 753 412 753 412 731.5 463 c 128,-1,47
 710 514 710 514 671.5 549 c 128,-1,48
 633 584 633 584 579.5 603 c 128,-1,49
 526 622 526 622 462 622 c 0,50,51
 391 622 391 622 334.5 599 c 128,-1,52
 278 576 278 576 237.5 534.5 c 128,-1,53
 197 493 197 493 175.5 435.5 c 128,-1,54
 154 378 154 378 154 310 c 2,55,-1
 154 272 l 2,56,57
 154 204 154 204 175.5 147.5 c 128,-1,58
 197 91 197 91 237.5 51 c 128,-1,59
 278 11 278 11 334.5 -11 c 128,-1,60
 391 -33 391 -33 462 -33 c 2,61,-1
 672 -33 l 1,62,-1
 672 -121 l 1,0,-1
455 175 m 0,63,64
 481 175 481 175 501.5 194.5 c 128,-1,65
 522 214 522 214 522 237 c 2,66,-1
 522 353 l 2,67,68
 522 376 522 376 501.5 391.5 c 128,-1,69
 481 407 481 407 455 407 c 0,70,71
 419 407 419 407 397.5 384 c 128,-1,72
 376 361 376 361 376 325 c 2,73,-1
 376 257 l 2,74,75
 376 221 376 221 397.5 198 c 128,-1,76
 419 175 419 175 455 175 c 0,63,64
EndSplineSet
Validated: 1
EndChar

StartChar: hyphen
Encoding: 45 45 73
Width: 403
Flags: W
LayerCount: 2
Fore
SplineSet
53 233 m 1,0,-1
 53 377 l 1,1,-1
 350 377 l 1,2,-1
 350 233 l 1,3,-1
 53 233 l 1,0,-1
EndSplineSet
Validated: 1
EndChar

StartChar: endash
Encoding: 8211 8211 75
Width: 588
Flags: W
LayerCount: 2
Fore
SplineSet
36 244 m 1,0,-1
 36 364 l 1,1,-1
 552 364 l 1,2,-1
 552 244 l 1,3,-1
 36 244 l 1,0,-1
EndSplineSet
Validated: 1
EndChar

StartChar: emdash
Encoding: 8212 8212 76
Width: 780
Flags: W
LayerCount: 2
Fore
SplineSet
36 244 m 1,0,-1
 36 364 l 1,1,-1
 744 364 l 1,2,-1
 744 244 l 1,3,-1
 36 244 l 1,0,-1
EndSplineSet
Validated: 1
EndChar

StartChar: underscore
Encoding: 95 95 77
Width: 556
Flags: W
LayerCount: 2
Fore
SplineSet
30 -190 m 1,0,-1
 30 -67 l 1,1,-1
 526 -67 l 1,2,-1
 526 -190 l 1,3,-1
 30 -190 l 1,0,-1
EndSplineSet
Validated: 1
EndChar

StartChar: period
Encoding: 46 46 78
Width: 310
Flags: W
LayerCount: 2
Fore
SplineSet
155 -11 m 256,0,1
 110 -11 110 -11 88.5 11.5 c 128,-1,2
 67 34 67 34 67 69 c 2,3,-1
 67 89 l 2,4,5
 67 124 67 124 88.5 146.5 c 128,-1,6
 110 169 110 169 155 169 c 256,7,8
 200 169 200 169 221.5 146.5 c 128,-1,9
 243 124 243 124 243 89 c 2,10,-1
 243 69 l 2,11,12
 243 34 243 34 221.5 11.5 c 128,-1,13
 200 -11 200 -11 155 -11 c 256,0,1
EndSplineSet
Validated: 1
EndChar

StartChar: comma
Encoding: 44 44 81
Width: 310
Flags: W
LayerCount: 2
Fore
SplineSet
157 169 m 256,0,1
 202 169 202 169 223.5 146.5 c 128,-1,2
 245 124 245 124 245 89 c 2,3,-1
 245 69 l 2,4,5
 245 8 245 8 215.5 -51 c 128,-1,6
 186 -110 186 -110 138 -147 c 1,7,-1
 38 -147 l 1,8,9
 73 -114 73 -114 98 -81.5 c 128,-1,10
 123 -49 123 -49 136 -9 c 1,11,12
 101 -3 101 -3 85 18.5 c 128,-1,13
 69 40 69 40 69 69 c 2,14,-1
 69 89 l 2,15,16
 69 124 69 124 90.5 146.5 c 128,-1,17
 112 169 112 169 157 169 c 256,0,1
EndSplineSet
Validated: 1
EndChar

StartChar: quotesingle
Encoding: 39 39 84
Width: 268
Flags: W
LayerCount: 2
Fore
SplineSet
68 414 m 1,0,-1
 68 740 l 1,1,-1
 200 740 l 1,2,-1
 200 414 l 1,3,-1
 68 414 l 1,0,-1
EndSplineSet
Validated: 1
EndChar

StartChar: uni2032
Encoding: 8242 8242 86
Width: 268
Flags: W
LayerCount: 2
Fore
SplineSet
36 346 m 1,0,-1
 98 698 l 1,1,-1
 232 698 l 1,2,-1
 170 346 l 1,3,-1
 36 346 l 1,0,-1
EndSplineSet
Validated: 1
EndChar

StartChar: quoteleft
Encoding: 8216 8216 88
Width: 300
Flags: W
LayerCount: 2
Fore
SplineSet
148 440 m 256,0,1
 103 440 103 440 82.5 460.5 c 128,-1,2
 62 481 62 481 62 512 c 2,3,-1
 62 533 l 2,4,5
 62 562 62 562 70.5 591.5 c 128,-1,6
 79 621 79 621 93.5 648 c 128,-1,7
 108 675 108 675 128 698.5 c 128,-1,8
 148 722 148 722 171 740 c 1,9,-1
 264 740 l 1,10,11
 231 710 231 710 207.5 679 c 128,-1,12
 184 648 184 648 172 610 c 1,13,14
 204 604 204 604 219 583.5 c 128,-1,15
 234 563 234 563 234 537 c 2,16,-1
 234 512 l 2,17,18
 234 481 234 481 213.5 460.5 c 128,-1,19
 193 440 193 440 148 440 c 256,0,1
EndSplineSet
Validated: 1
EndChar

StartChar: quoteright
Encoding: 8217 8217 89
Width: 300
Flags: W
LayerCount: 2
Fore
SplineSet
152 750 m 256,0,1
 197 750 197 750 217.5 729.5 c 128,-1,2
 238 709 238 709 238 678 c 2,3,-1
 238 657 l 2,4,5
 238 628 238 628 229.5 598.5 c 128,-1,6
 221 569 221 569 206.5 542 c 128,-1,7
 192 515 192 515 172 491.5 c 128,-1,8
 152 468 152 468 129 450 c 1,9,-1
 36 450 l 1,10,11
 69 480 69 480 92.5 511 c 128,-1,12
 116 542 116 542 128 580 c 1,13,14
 96 586 96 586 81 606.5 c 128,-1,15
 66 627 66 627 66 653 c 2,16,-1
 66 678 l 2,17,18
 66 709 66 709 86.5 729.5 c 128,-1,19
 107 750 107 750 152 750 c 256,0,1
EndSplineSet
Validated: 1
EndChar

StartChar: quotesinglbase
Encoding: 8218 8218 92
Width: 304
Flags: W
LayerCount: 2
Fore
SplineSet
155 183 m 256,0,1
 201 183 201 183 220.5 162 c 128,-1,2
 240 141 240 141 240 109 c 2,3,-1
 240 87 l 2,4,5
 240 58 240 58 232 29 c 128,-1,6
 224 0 224 0 209.5 -26.5 c 128,-1,7
 195 -53 195 -53 175.5 -76 c 128,-1,8
 156 -99 156 -99 134 -117 c 1,9,-1
 38 -117 l 1,10,11
 72 -87 72 -87 96 -56 c 128,-1,12
 120 -25 120 -25 132 13 c 1,13,14
 99 19 99 19 84.5 40 c 128,-1,15
 70 61 70 61 70 87 c 2,16,-1
 70 109 l 2,17,18
 70 141 70 141 89.5 162 c 128,-1,19
 109 183 109 183 155 183 c 256,0,1
EndSplineSet
Validated: 1
EndChar

StartChar: guilsinglleft
Encoding: 8249 8249 94
Width: 317
Flags: W
LayerCount: 2
Fore
SplineSet
224 49 m 1,0,-1
 38 209 l 1,1,-1
 38 335 l 1,2,-1
 224 495 l 1,3,-1
 267 403 l 1,4,-1
 147 272 l 1,5,-1
 267 141 l 1,6,-1
 224 49 l 1,0,-1
EndSplineSet
Validated: 1
EndChar

StartChar: guilsinglright
Encoding: 8250 8250 95
Width: 317
Flags: W
LayerCount: 2
Fore
SplineSet
50 141 m 1,0,-1
 170 272 l 1,1,-1
 50 403 l 1,2,-1
 93 495 l 1,3,-1
 279 335 l 1,4,-1
 279 209 l 1,5,-1
 93 49 l 1,6,-1
 50 141 l 1,0,-1
EndSplineSet
Validated: 1
EndChar

StartChar: exclamdown
Encoding: 161 161 98
Width: 320
Flags: W
LayerCount: 2
Fore
SplineSet
82 -173 m 1,0,-1
 82 21 l 1,1,-1
 128 305 l 1,2,-1
 191 305 l 1,3,-1
 238 21 l 1,4,-1
 238 -173 l 1,5,-1
 82 -173 l 1,0,-1
160 361 m 256,6,7
 112 361 112 361 91.5 383 c 128,-1,8
 71 405 71 405 71 437 c 2,9,-1
 71 461 l 2,10,11
 71 493 71 493 91.5 515 c 128,-1,12
 112 537 112 537 160 537 c 256,13,14
 208 537 208 537 228.5 515 c 128,-1,15
 249 493 249 493 249 461 c 2,16,-1
 249 437 l 2,17,18
 249 405 249 405 228.5 383 c 128,-1,19
 208 361 208 361 160 361 c 256,6,7
EndSplineSet
Validated: 1
EndChar

StartChar: exclam
Encoding: 33 33 99
Width: 320
Flags: W
LayerCount: 2
Fore
SplineSet
130 220 m 1,0,-1
 83 504 l 1,1,-1
 83 698 l 1,2,-1
 239 698 l 1,3,-1
 239 504 l 1,4,-1
 193 220 l 1,5,-1
 130 220 l 1,0,-1
160 -12 m 256,6,7
 112 -12 112 -12 91.5 10 c 128,-1,8
 71 32 71 32 71 64 c 2,9,-1
 71 88 l 2,10,11
 71 120 71 120 91.5 142 c 128,-1,12
 112 164 112 164 160 164 c 256,13,14
 208 164 208 164 228.5 142 c 128,-1,15
 249 120 249 120 249 88 c 2,16,-1
 249 64 l 2,17,18
 249 32 249 32 228.5 10 c 128,-1,19
 208 -12 208 -12 160 -12 c 256,6,7
EndSplineSet
Validated: 1
EndChar

StartChar: questiondown
Encoding: 191 191 100
Width: 494
Flags: W
LayerCount: 2
Fore
SplineSet
260 -185 m 0,0,1
 207 -185 207 -185 164.5 -170 c 128,-1,2
 122 -155 122 -155 91 -128 c 128,-1,3
 60 -101 60 -101 43.5 -63 c 128,-1,4
 27 -25 27 -25 27 21 c 0,5,6
 27 63 27 63 41 97 c 128,-1,7
 55 131 55 131 79 156.5 c 128,-1,8
 103 182 103 182 135 198 c 128,-1,9
 167 214 167 214 202 220 c 1,10,-1
 202 292 l 1,11,-1
 342 292 l 1,12,-1
 342 139 l 1,13,14
 263 136 263 136 223.5 112.5 c 128,-1,15
 184 89 184 89 184 33 c 2,16,-1
 184 19 l 2,17,18
 184 -19 184 -19 206.5 -39 c 128,-1,19
 229 -59 229 -59 265 -59 c 0,20,21
 304 -59 304 -59 329.5 -35 c 128,-1,22
 355 -11 355 -11 364 26 c 1,23,-1
 486 -25 l 1,24,25
 477 -55 477 -55 460 -84 c 128,-1,26
 443 -113 443 -113 415.5 -135.5 c 128,-1,27
 388 -158 388 -158 349.5 -171.5 c 128,-1,28
 311 -185 311 -185 260 -185 c 0,0,1
270 361 m 256,29,30
 222 361 222 361 201.5 383 c 128,-1,31
 181 405 181 405 181 437 c 2,32,-1
 181 461 l 2,33,34
 181 493 181 493 201.5 515 c 128,-1,35
 222 537 222 537 270 537 c 256,36,37
 318 537 318 537 338.5 515 c 128,-1,38
 359 493 359 493 359 461 c 2,39,-1
 359 437 l 2,40,41
 359 405 359 405 338.5 383 c 128,-1,42
 318 361 318 361 270 361 c 256,29,30
EndSplineSet
Validated: 1
EndChar

StartChar: question
Encoding: 63 63 101
Width: 500
Flags: W
LayerCount: 2
Fore
SplineSet
158 233 m 1,0,-1
 158 386 l 1,1,2
 237 389 237 389 276.5 412.5 c 128,-1,3
 316 436 316 436 316 492 c 2,4,-1
 316 506 l 2,5,6
 316 544 316 544 293.5 564 c 128,-1,7
 271 584 271 584 235 584 c 0,8,9
 196 584 196 584 170.5 560 c 128,-1,10
 145 536 145 536 136 499 c 1,11,-1
 14 550 l 1,12,13
 23 580 23 580 40 608.5 c 128,-1,14
 57 637 57 637 84.5 659.5 c 128,-1,15
 112 682 112 682 150.5 696 c 128,-1,16
 189 710 189 710 240 710 c 0,17,18
 292 710 292 710 335 695 c 128,-1,19
 378 680 378 680 409 653 c 128,-1,20
 440 626 440 626 456.5 588 c 128,-1,21
 473 550 473 550 473 504 c 0,22,23
 473 462 473 462 459 428 c 128,-1,24
 445 394 445 394 421 368.5 c 128,-1,25
 397 343 397 343 365 327 c 128,-1,26
 333 311 333 311 298 305 c 1,27,-1
 298 233 l 1,28,-1
 158 233 l 1,0,-1
230 -12 m 256,29,30
 182 -12 182 -12 161.5 10 c 128,-1,31
 141 32 141 32 141 64 c 2,32,-1
 141 88 l 2,33,34
 141 120 141 120 161.5 142 c 128,-1,35
 182 164 182 164 230 164 c 256,36,37
 278 164 278 164 298.5 142 c 128,-1,38
 319 120 319 120 319 88 c 2,39,-1
 319 64 l 2,40,41
 319 32 319 32 298.5 10 c 128,-1,42
 278 -12 278 -12 230 -12 c 256,29,30
EndSplineSet
Validated: 1
EndChar

StartChar: parenleft
Encoding: 40 40 102
Width: 338
Flags: W
LayerCount: 2
Fore
SplineSet
37 312 m 0,0,1
 37 384 37 384 50.5 451 c 128,-1,2
 64 518 64 518 87 575.5 c 128,-1,3
 110 633 110 633 142 680 c 128,-1,4
 174 727 174 727 212 760 c 1,5,-1
 351 760 l 1,6,7
 270 685 270 685 223.5 579.5 c 128,-1,8
 177 474 177 474 177 346 c 2,9,-1
 177 276 l 2,10,11
 177 143 177 143 224 39 c 128,-1,12
 271 -65 271 -65 351 -138 c 1,13,-1
 211 -138 l 1,14,15
 175 -107 175 -107 143 -60 c 128,-1,16
 111 -13 111 -13 87.5 45.5 c 128,-1,17
 64 104 64 104 50.5 171.5 c 128,-1,18
 37 239 37 239 37 312 c 0,0,1
EndSplineSet
Validated: 1
EndChar

StartChar: parenright
Encoding: 41 41 103
Width: 338
Flags: W
LayerCount: 2
Fore
SplineSet
301 312 m 0,0,1
 301 239 301 239 287.5 171.5 c 128,-1,2
 274 104 274 104 250.5 45.5 c 128,-1,3
 227 -13 227 -13 195 -60 c 128,-1,4
 163 -107 163 -107 127 -138 c 1,5,-1
 -13 -138 l 1,6,7
 67 -65 67 -65 114 39 c 128,-1,8
 161 143 161 143 161 276 c 2,9,-1
 161 346 l 2,10,11
 161 474 161 474 114.5 579.5 c 128,-1,12
 68 685 68 685 -13 760 c 1,13,-1
 126 760 l 1,14,15
 164 727 164 727 196 680 c 128,-1,16
 228 633 228 633 251 575.5 c 128,-1,17
 274 518 274 518 287.5 451 c 128,-1,18
 301 384 301 384 301 312 c 0,0,1
EndSplineSet
Validated: 1
EndChar

StartChar: bracketleft
Encoding: 91 91 104
Width: 334
Flags: W
LayerCount: 2
Fore
SplineSet
77 -138 m 1,0,-1
 77 760 l 1,1,-1
 284 760 l 1,2,-1
 284 656 l 1,3,-1
 214 656 l 1,4,-1
 214 -34 l 1,5,-1
 284 -34 l 1,6,-1
 284 -138 l 1,7,-1
 77 -138 l 1,0,-1
EndSplineSet
Validated: 1
EndChar

StartChar: bracketright
Encoding: 93 93 105
Width: 334
Flags: W
LayerCount: 2
Fore
SplineSet
257 760 m 1,0,-1
 257 -138 l 1,1,-1
 50 -138 l 1,2,-1
 50 -34 l 1,3,-1
 120 -34 l 1,4,-1
 120 656 l 1,5,-1
 50 656 l 1,6,-1
 50 760 l 1,7,-1
 257 760 l 1,0,-1
EndSplineSet
Validated: 1
EndChar

StartChar: braceleft
Encoding: 123 123 106
Width: 372
Flags: W
LayerCount: 2
Fore
SplineSet
213 -138 m 2,0,1
 172 -138 172 -138 144 -112 c 128,-1,2
 116 -86 116 -86 116 -37 c 2,3,-1
 116 166 l 2,4,5
 116 210 116 210 88.5 232.5 c 128,-1,6
 61 255 61 255 19 255 c 1,7,-1
 19 368 l 1,8,9
 61 368 61 368 88.5 390.5 c 128,-1,10
 116 413 116 413 116 457 c 2,11,-1
 116 659 l 2,12,13
 116 708 116 708 144 734 c 128,-1,14
 172 760 172 760 213 760 c 2,15,-1
 322 760 l 1,16,-1
 322 656 l 1,17,-1
 253 656 l 1,18,-1
 253 441 l 2,19,20
 253 417 253 417 244.5 395.5 c 128,-1,21
 236 374 236 374 222 357 c 128,-1,22
 208 340 208 340 189 328.5 c 128,-1,23
 170 317 170 317 149 313 c 1,24,-1
 149 309 l 1,25,26
 170 305 170 305 189 293.5 c 128,-1,27
 208 282 208 282 222 265 c 128,-1,28
 236 248 236 248 244.5 226.5 c 128,-1,29
 253 205 253 205 253 181 c 2,30,-1
 253 -34 l 1,31,-1
 322 -34 l 1,32,-1
 322 -138 l 1,33,-1
 213 -138 l 2,0,1
EndSplineSet
Validated: 1
EndChar

StartChar: braceright
Encoding: 125 125 107
Width: 372
Flags: W
LayerCount: 2
Fore
SplineSet
159 760 m 2,0,1
 200 760 200 760 228 734 c 128,-1,2
 256 708 256 708 256 659 c 2,3,-1
 256 457 l 2,4,5
 256 413 256 413 283.5 390.5 c 128,-1,6
 311 368 311 368 353 368 c 1,7,-1
 353 255 l 1,8,9
 311 255 311 255 283.5 232.5 c 128,-1,10
 256 210 256 210 256 166 c 2,11,-1
 256 -37 l 2,12,13
 256 -86 256 -86 228 -112 c 128,-1,14
 200 -138 200 -138 159 -138 c 2,15,-1
 50 -138 l 1,16,-1
 50 -34 l 1,17,-1
 119 -34 l 1,18,-1
 119 182 l 2,19,20
 119 206 119 206 127.5 227.5 c 128,-1,21
 136 249 136 249 150 266 c 128,-1,22
 164 283 164 283 183 294.5 c 128,-1,23
 202 306 202 306 223 310 c 1,24,-1
 223 314 l 1,25,26
 202 318 202 318 183 329.5 c 128,-1,27
 164 341 164 341 150 358 c 128,-1,28
 136 375 136 375 127.5 396.5 c 128,-1,29
 119 418 119 418 119 442 c 2,30,-1
 119 656 l 1,31,-1
 50 656 l 1,32,-1
 50 760 l 1,33,-1
 159 760 l 2,0,1
EndSplineSet
Validated: 1
EndChar

StartChar: slash
Encoding: 47 47 108
Width: 460
Flags: W
LayerCount: 2
Fore
SplineSet
3 -151 m 1,0,-1
 301 740 l 1,1,-1
 423 740 l 1,2,-1
 125 -151 l 1,3,-1
 3 -151 l 1,0,-1
EndSplineSet
Validated: 1
Substitution2: "'frac' Diagonal Fractions lookup 3 subtable" fraction
EndChar

StartChar: backslash
Encoding: 92 92 109
Width: 460
Flags: W
LayerCount: 2
Fore
SplineSet
334 -151 m 1,0,-1
 36 740 l 1,1,-1
 158 740 l 1,2,-1
 456 -151 l 1,3,-1
 334 -151 l 1,0,-1
EndSplineSet
Validated: 1
EndChar

StartChar: fraction
Encoding: 8260 8260 110
Width: 147
Flags: W
LayerCount: 2
Fore
SplineSet
-245 0 m 1,0,-1
 284 698 l 1,1,-1
 392 698 l 1,2,-1
 -137 0 l 1,3,-1
 -245 0 l 1,0,-1
EndSplineSet
Validated: 1
EndChar

StartChar: percent
Encoding: 37 37 111
Width: 974
Flags: W
LayerCount: 2
Fore
SplineSet
179 0 m 1,0,-1
 663 698 l 1,1,-1
 795 698 l 1,2,-1
 311 0 l 1,3,-1
 179 0 l 1,0,-1
230 314 m 256,4,5
 142 314 142 314 96 364 c 128,-1,6
 50 414 50 414 50 512 c 256,7,8
 50 610 50 610 96 660 c 128,-1,9
 142 710 142 710 230 710 c 256,10,11
 318 710 318 710 364 660 c 128,-1,12
 410 610 410 610 410 512 c 256,13,14
 410 414 410 414 364 364 c 128,-1,15
 318 314 318 314 230 314 c 256,4,5
230 400 m 256,16,17
 256 400 256 400 269 420.5 c 128,-1,18
 282 441 282 441 282 486 c 2,19,-1
 282 538 l 2,20,21
 282 583 282 583 269 603.5 c 128,-1,22
 256 624 256 624 230 624 c 256,23,24
 204 624 204 624 191 603.5 c 128,-1,25
 178 583 178 583 178 538 c 2,26,-1
 178 486 l 2,27,28
 178 441 178 441 191 420.5 c 128,-1,29
 204 400 204 400 230 400 c 256,16,17
744 -12 m 256,30,31
 656 -12 656 -12 610 38 c 128,-1,32
 564 88 564 88 564 186 c 256,33,34
 564 284 564 284 610 334 c 128,-1,35
 656 384 656 384 744 384 c 256,36,37
 832 384 832 384 878 334 c 128,-1,38
 924 284 924 284 924 186 c 256,39,40
 924 88 924 88 878 38 c 128,-1,41
 832 -12 832 -12 744 -12 c 256,30,31
744 74 m 256,42,43
 770 74 770 74 783 94.5 c 128,-1,44
 796 115 796 115 796 160 c 2,45,-1
 796 212 l 2,46,47
 796 257 796 257 783 277.5 c 128,-1,48
 770 298 770 298 744 298 c 256,49,50
 718 298 718 298 705 277.5 c 128,-1,51
 692 257 692 257 692 212 c 2,52,-1
 692 160 l 2,53,54
 692 115 692 115 705 94.5 c 128,-1,55
 718 74 718 74 744 74 c 256,42,43
EndSplineSet
Validated: 1
EndChar

StartChar: perthousand
Encoding: 8240 8240 112
Width: 1382
Flags: W
LayerCount: 2
Fore
SplineSet
179 0 m 1,0,-1
 663 698 l 1,1,-1
 795 698 l 1,2,-1
 311 0 l 1,3,-1
 179 0 l 1,0,-1
230 314 m 256,4,5
 142 314 142 314 96 364 c 128,-1,6
 50 414 50 414 50 512 c 256,7,8
 50 610 50 610 96 660 c 128,-1,9
 142 710 142 710 230 710 c 256,10,11
 318 710 318 710 364 660 c 128,-1,12
 410 610 410 610 410 512 c 256,13,14
 410 414 410 414 364 364 c 128,-1,15
 318 314 318 314 230 314 c 256,4,5
230 400 m 256,16,17
 256 400 256 400 269 420.5 c 128,-1,18
 282 441 282 441 282 486 c 2,19,-1
 282 538 l 2,20,21
 282 583 282 583 269 603.5 c 128,-1,22
 256 624 256 624 230 624 c 256,23,24
 204 624 204 624 191 603.5 c 128,-1,25
 178 583 178 583 178 538 c 2,26,-1
 178 486 l 2,27,28
 178 441 178 441 191 420.5 c 128,-1,29
 204 400 204 400 230 400 c 256,16,17
744 -12 m 256,30,31
 656 -12 656 -12 610 38 c 128,-1,32
 564 88 564 88 564 186 c 256,33,34
 564 284 564 284 610 334 c 128,-1,35
 656 384 656 384 744 384 c 256,36,37
 832 384 832 384 878 334 c 128,-1,38
 924 284 924 284 924 186 c 256,39,40
 924 88 924 88 878 38 c 128,-1,41
 832 -12 832 -12 744 -12 c 256,30,31
744 74 m 256,42,43
 770 74 770 74 783 94.5 c 128,-1,44
 796 115 796 115 796 160 c 2,45,-1
 796 212 l 2,46,47
 796 257 796 257 783 277.5 c 128,-1,48
 770 298 770 298 744 298 c 256,49,50
 718 298 718 298 705 277.5 c 128,-1,51
 692 257 692 257 692 212 c 2,52,-1
 692 160 l 2,53,54
 692 115 692 115 705 94.5 c 128,-1,55
 718 74 718 74 744 74 c 256,42,43
1152 -12 m 256,56,57
 1064 -12 1064 -12 1018 38 c 128,-1,58
 972 88 972 88 972 186 c 256,59,60
 972 284 972 284 1018 334 c 128,-1,61
 1064 384 1064 384 1152 384 c 256,62,63
 1240 384 1240 384 1286 334 c 128,-1,64
 1332 284 1332 284 1332 186 c 256,65,66
 1332 88 1332 88 1286 38 c 128,-1,67
 1240 -12 1240 -12 1152 -12 c 256,56,57
1152 74 m 256,68,69
 1178 74 1178 74 1191 94.5 c 128,-1,70
 1204 115 1204 115 1204 160 c 2,71,-1
 1204 212 l 2,72,73
 1204 257 1204 257 1191 277.5 c 128,-1,74
 1178 298 1178 298 1152 298 c 256,75,76
 1126 298 1126 298 1113 277.5 c 128,-1,77
 1100 257 1100 257 1100 212 c 2,78,-1
 1100 160 l 2,79,80
 1100 115 1100 115 1113 94.5 c 128,-1,81
 1126 74 1126 74 1152 74 c 256,68,69
EndSplineSet
Validated: 1
EndChar

StartChar: bar
Encoding: 124 124 113
Width: 402
Flags: W
LayerCount: 2
Fore
SplineSet
138 -138 m 1,0,-1
 138 760 l 1,1,-1
 264 760 l 1,2,-1
 264 -138 l 1,3,-1
 138 -138 l 1,0,-1
EndSplineSet
Validated: 1
EndChar

StartChar: brokenbar
Encoding: 166 166 114
Width: 402
Flags: W
LayerCount: 2
Fore
SplineSet
138 401 m 1,0,-1
 138 760 l 1,1,-1
 264 760 l 1,2,-1
 264 401 l 1,3,-1
 138 401 l 1,0,-1
138 -138 m 1,4,-1
 138 221 l 1,5,-1
 264 221 l 1,6,-1
 264 -138 l 1,7,-1
 138 -138 l 1,4,-1
EndSplineSet
Validated: 1
EndChar

StartChar: section
Encoding: 167 167 115
Width: 569
Flags: W
LayerCount: 2
Fore
SplineSet
488 13 m 0,0,1
 488 -28 488 -28 472 -60 c 128,-1,2
 456 -92 456 -92 427.5 -114.5 c 128,-1,3
 399 -137 399 -137 359 -149 c 128,-1,4
 319 -161 319 -161 271 -161 c 0,5,6
 219 -161 219 -161 167 -145 c 128,-1,7
 115 -129 115 -129 72 -89 c 1,8,-1
 144 -1 l 1,9,10
 170 -27 170 -27 202 -41.5 c 128,-1,11
 234 -56 234 -56 273 -56 c 0,12,13
 314 -56 314 -56 339 -40 c 128,-1,14
 364 -24 364 -24 364 7 c 0,15,16
 364 35 364 35 343 50.5 c 128,-1,17
 322 66 322 66 277 78 c 2,18,-1
 200 99 l 2,19,20
 158 111 158 111 129 127 c 128,-1,21
 100 143 100 143 82.5 162.5 c 128,-1,22
 65 182 65 182 57.5 203.5 c 128,-1,23
 50 225 50 225 50 247 c 0,24,25
 50 290 50 290 76 326 c 128,-1,26
 102 362 102 362 157 385 c 1,27,-1
 157 402 l 1,28,29
 122 425 122 425 101 459.5 c 128,-1,30
 80 494 80 494 80 541 c 0,31,32
 80 582 80 582 96 613.5 c 128,-1,33
 112 645 112 645 140.5 666.5 c 128,-1,34
 169 688 169 688 209 699 c 128,-1,35
 249 710 249 710 296 710 c 0,36,37
 350 710 350 710 401.5 694.5 c 128,-1,38
 453 679 453 679 497 638 c 1,39,-1
 424 550 l 1,40,41
 398 576 398 576 367.5 590.5 c 128,-1,42
 337 605 337 605 293 605 c 0,43,44
 255 605 255 605 229.5 591.5 c 128,-1,45
 204 578 204 578 204 546 c 0,46,47
 204 520 204 520 225 505 c 128,-1,48
 246 490 246 490 291 478 c 2,49,-1
 368 457 l 2,50,51
 410 445 410 445 439 428.5 c 128,-1,52
 468 412 468 412 486 392.5 c 128,-1,53
 504 373 504 373 511.5 351 c 128,-1,54
 519 329 519 329 519 307 c 0,55,56
 519 264 519 264 493 228 c 128,-1,57
 467 192 467 192 411 169 c 1,58,-1
 411 153 l 1,59,60
 446 130 446 130 467 95.5 c 128,-1,61
 488 61 488 61 488 13 c 0,0,1
396 262 m 0,62,63
 396 288 396 288 380 309.5 c 128,-1,64
 364 331 364 331 316 345 c 2,65,-1
 240 366 l 2,66,67
 222 371 222 371 208 376 c 1,68,69
 191 356 191 356 181.5 335.5 c 128,-1,70
 172 315 172 315 172 292 c 0,71,72
 172 267 172 267 188 246 c 128,-1,73
 204 225 204 225 252 211 c 2,74,-1
 328 190 l 2,75,76
 336 188 336 188 344.5 185 c 128,-1,77
 353 182 353 182 361 179 c 1,78,79
 378 199 378 199 387 219 c 128,-1,80
 396 239 396 239 396 262 c 0,62,63
EndSplineSet
Validated: 1
EndChar

StartChar: paragraph
Encoding: 182 182 116
Width: 677
Flags: W
LayerCount: 2
Fore
SplineSet
242 260 m 1,0,1
 198 260 198 260 159.5 277.5 c 128,-1,2
 121 295 121 295 92.5 324.5 c 128,-1,3
 64 354 64 354 47.5 394 c 128,-1,4
 31 434 31 434 31 479 c 256,5,6
 31 524 31 524 47.5 564 c 128,-1,7
 64 604 64 604 92.5 633.5 c 128,-1,8
 121 663 121 663 159.5 680.5 c 128,-1,9
 198 698 198 698 242 698 c 2,10,-1
 624 698 l 1,11,-1
 624 592 l 1,12,-1
 558 592 l 1,13,-1
 558 -149 l 1,14,-1
 449 -149 l 1,15,-1
 449 592 l 1,16,-1
 351 592 l 1,17,-1
 351 -149 l 1,18,-1
 242 -149 l 1,19,-1
 242 260 l 1,0,1
EndSplineSet
Validated: 1
EndChar

StartChar: copyright
Encoding: 169 169 117
Width: 792
Flags: W
LayerCount: 2
Fore
SplineSet
396 -12 m 256,0,1
 320 -12 320 -12 256 13 c 128,-1,2
 192 38 192 38 146 85 c 128,-1,3
 100 132 100 132 74 198.5 c 128,-1,4
 48 265 48 265 48 349 c 256,5,6
 48 433 48 433 74 499.5 c 128,-1,7
 100 566 100 566 146 613 c 128,-1,8
 192 660 192 660 256 685 c 128,-1,9
 320 710 320 710 396 710 c 256,10,11
 472 710 472 710 536 685 c 128,-1,12
 600 660 600 660 646 613 c 128,-1,13
 692 566 692 566 718 499.5 c 128,-1,14
 744 433 744 433 744 349 c 256,15,16
 744 265 744 265 718 198.5 c 128,-1,17
 692 132 692 132 646 85 c 128,-1,18
 600 38 600 38 536 13 c 128,-1,19
 472 -12 472 -12 396 -12 c 256,0,1
396 52 m 256,20,21
 456 52 456 52 506 72.5 c 128,-1,22
 556 93 556 93 592.5 128 c 128,-1,23
 629 163 629 163 649.5 211 c 128,-1,24
 670 259 670 259 670 315 c 2,25,-1
 670 383 l 2,26,27
 670 438 670 438 649.5 486.5 c 128,-1,28
 629 535 629 535 592.5 570 c 128,-1,29
 556 605 556 605 506 625.5 c 128,-1,30
 456 646 456 646 396 646 c 256,31,32
 336 646 336 646 286 625.5 c 128,-1,33
 236 605 236 605 199.5 570 c 128,-1,34
 163 535 163 535 142.5 486.5 c 128,-1,35
 122 438 122 438 122 383 c 2,36,-1
 122 315 l 2,37,38
 122 259 122 259 142.5 211 c 128,-1,39
 163 163 163 163 199.5 128 c 128,-1,40
 236 93 236 93 286 72.5 c 128,-1,41
 336 52 336 52 396 52 c 256,20,21
403 134 m 0,42,43
 354 134 354 134 315.5 149.5 c 128,-1,44
 277 165 277 165 250 193 c 128,-1,45
 223 221 223 221 209 260.5 c 128,-1,46
 195 300 195 300 195 349 c 256,47,48
 195 398 195 398 209 437.5 c 128,-1,49
 223 477 223 477 250 505 c 128,-1,50
 277 533 277 533 315.5 548.5 c 128,-1,51
 354 564 354 564 403 564 c 0,52,53
 476 564 476 564 520 533 c 128,-1,54
 564 502 564 502 584 451 c 1,55,-1
 484 403 l 1,56,57
 472 429 472 429 454 445 c 128,-1,58
 436 461 436 461 403 461 c 256,59,60
 370 461 370 461 351 441.5 c 128,-1,61
 332 422 332 422 332 389 c 2,62,-1
 332 309 l 2,63,64
 332 276 332 276 351 256.5 c 128,-1,65
 370 237 370 237 403 237 c 256,66,67
 436 237 436 237 457 253.5 c 128,-1,68
 478 270 478 270 491 295 c 1,69,-1
 592 248 l 1,70,71
 581 225 581 225 565.5 204.5 c 128,-1,72
 550 184 550 184 527 168 c 128,-1,73
 504 152 504 152 473.5 143 c 128,-1,74
 443 134 443 134 403 134 c 0,42,43
EndSplineSet
Validated: 1
EndChar

StartChar: registered
Encoding: 174 174 118
Width: 464
Flags: W
LayerCount: 2
Fore
SplineSet
232 298 m 256,0,1
 190 298 190 298 153 313.5 c 128,-1,2
 116 329 116 329 88.5 356.5 c 128,-1,3
 61 384 61 384 45.5 422 c 128,-1,4
 30 460 30 460 30 504 c 256,5,6
 30 548 30 548 45.5 586 c 128,-1,7
 61 624 61 624 88.5 651.5 c 128,-1,8
 116 679 116 679 153 694.5 c 128,-1,9
 190 710 190 710 232 710 c 256,10,11
 274 710 274 710 311 694.5 c 128,-1,12
 348 679 348 679 375.5 651.5 c 128,-1,13
 403 624 403 624 418.5 586 c 128,-1,14
 434 548 434 548 434 504 c 256,15,16
 434 460 434 460 418.5 422 c 128,-1,17
 403 384 403 384 375.5 356.5 c 128,-1,18
 348 329 348 329 311 313.5 c 128,-1,19
 274 298 274 298 232 298 c 256,0,1
232 345 m 256,20,21
 262 345 262 345 289 354.5 c 128,-1,22
 316 364 316 364 336 382.5 c 128,-1,23
 356 401 356 401 368 427.5 c 128,-1,24
 380 454 380 454 380 488 c 2,25,-1
 380 520 l 2,26,27
 380 554 380 554 368 580.5 c 128,-1,28
 356 607 356 607 336 625.5 c 128,-1,29
 316 644 316 644 289 653.5 c 128,-1,30
 262 663 262 663 232 663 c 256,31,32
 202 663 202 663 175 653.5 c 128,-1,33
 148 644 148 644 128 625.5 c 128,-1,34
 108 607 108 607 96 580.5 c 128,-1,35
 84 554 84 554 84 520 c 2,36,-1
 84 488 l 2,37,38
 84 454 84 454 96 427.5 c 128,-1,39
 108 401 108 401 128 382.5 c 128,-1,40
 148 364 148 364 175 354.5 c 128,-1,41
 202 345 202 345 232 345 c 256,20,21
209 400 m 1,42,-1
 145 400 l 1,43,-1
 145 609 l 1,44,-1
 247 609 l 2,45,46
 289 609 289 609 308 589 c 128,-1,47
 327 569 327 569 327 539 c 0,48,49
 327 514 327 514 317 497.5 c 128,-1,50
 307 481 307 481 290 473 c 1,51,-1
 333 400 l 1,52,-1
 264 400 l 1,53,-1
 232 461 l 1,54,-1
 209 461 l 1,55,-1
 209 400 l 1,42,-1
234 508 m 2,56,57
 262 508 262 508 262 531 c 2,58,-1
 262 538 l 2,59,60
 262 561 262 561 234 561 c 2,61,-1
 209 561 l 1,62,-1
 209 508 l 1,63,-1
 234 508 l 2,56,57
EndSplineSet
Validated: 1
EndChar

StartChar: trademark
Encoding: 8482 8482 119
Width: 614
Flags: W
LayerCount: 2
Fore
SplineSet
91 409 m 1,0,-1
 91 637 l 1,1,-1
 24 637 l 1,2,-1
 24 698 l 1,3,-1
 243 698 l 1,4,-1
 243 637 l 1,5,-1
 177 637 l 1,6,-1
 177 409 l 1,7,-1
 91 409 l 1,0,-1
273 409 m 1,8,-1
 273 698 l 1,9,-1
 363 698 l 1,10,-1
 418 591 l 1,11,-1
 424 591 l 1,12,-1
 478 698 l 1,13,-1
 562 698 l 1,14,-1
 562 409 l 1,15,-1
 491 409 l 1,16,-1
 491 504 l 1,17,-1
 499 598 l 1,18,-1
 495 598 l 1,19,-1
 418 453 l 1,20,-1
 340 598 l 1,21,-1
 336 598 l 1,22,-1
 345 504 l 1,23,-1
 345 409 l 1,24,-1
 273 409 l 1,8,-1
EndSplineSet
Validated: 1
EndChar

StartChar: ordfeminine
Encoding: 170 170 120
Width: 449
Flags: W
LayerCount: 2
Fore
SplineSet
405 330 m 1,0,-1
 345 330 l 2,1,2
 320 330 320 330 298.5 343.5 c 128,-1,3
 277 357 277 357 272 394 c 1,4,-1
 268 394 l 1,5,6
 258 359 258 359 229.5 341.5 c 128,-1,7
 201 324 201 324 160 324 c 0,8,9
 109 324 109 324 77.5 352.5 c 128,-1,10
 46 381 46 381 46 433 c 0,11,12
 46 490 46 490 87 517 c 128,-1,13
 128 544 128 544 206 544 c 2,14,-1
 262 544 l 1,15,-1
 262 563 l 2,16,17
 262 596 262 596 248 612 c 128,-1,18
 234 628 234 628 199 628 c 0,19,20
 167 628 167 628 146.5 615.5 c 128,-1,21
 126 603 126 603 112 583 c 1,22,-1
 56 633 l 1,23,24
 74 665 74 665 112.5 684.5 c 128,-1,25
 151 704 151 704 211 704 c 0,26,27
 283 704 283 704 324.5 670 c 128,-1,28
 366 636 366 636 366 567 c 2,29,-1
 366 405 l 1,30,-1
 405 405 l 1,31,-1
 405 330 l 1,0,-1
209 488 m 2,32,33
 147 488 147 488 147 445 c 2,34,-1
 147 431 l 2,35,36
 147 411 147 411 161.5 401.5 c 128,-1,37
 176 392 176 392 200 392 c 0,38,39
 226 392 226 392 244 405 c 128,-1,40
 262 418 262 418 262 444 c 2,41,-1
 262 488 l 1,42,-1
 209 488 l 2,32,33
EndSplineSet
Validated: 1
EndChar

StartChar: ordmasculine
Encoding: 186 186 121
Width: 433
Flags: W
LayerCount: 2
Fore
SplineSet
217 324 m 256,0,1
 132 324 132 324 85 375 c 128,-1,2
 38 426 38 426 38 514 c 256,3,4
 38 602 38 602 85 653 c 128,-1,5
 132 704 132 704 217 704 c 256,6,7
 302 704 302 704 349 653 c 128,-1,8
 396 602 396 602 396 514 c 256,9,10
 396 426 396 426 349 375 c 128,-1,11
 302 324 302 324 217 324 c 256,0,1
217 402 m 256,12,13
 251 402 251 402 270 422.5 c 128,-1,14
 289 443 289 443 289 485 c 2,15,-1
 289 543 l 2,16,17
 289 585 289 585 270 605.5 c 128,-1,18
 251 626 251 626 217 626 c 256,19,20
 183 626 183 626 164 605.5 c 128,-1,21
 145 585 145 585 145 543 c 2,22,-1
 145 485 l 2,23,24
 145 443 145 443 164 422.5 c 128,-1,25
 183 402 183 402 217 402 c 256,12,13
EndSplineSet
Validated: 1
EndChar

StartChar: degree
Encoding: 176 176 122
Width: 470
Flags: W
LayerCount: 2
Fore
SplineSet
235 334 m 256,0,1
 196 334 196 334 162 348 c 128,-1,2
 128 362 128 362 103 387.5 c 128,-1,3
 78 413 78 413 64 447 c 128,-1,4
 50 481 50 481 50 522 c 0,5,6
 50 562 50 562 64 596.5 c 128,-1,7
 78 631 78 631 103 656.5 c 128,-1,8
 128 682 128 682 162 696 c 128,-1,9
 196 710 196 710 235 710 c 256,10,11
 274 710 274 710 308 696 c 128,-1,12
 342 682 342 682 367 656.5 c 128,-1,13
 392 631 392 631 406 596.5 c 128,-1,14
 420 562 420 562 420 522 c 0,15,16
 420 481 420 481 406 447 c 128,-1,17
 392 413 392 413 367 387.5 c 128,-1,18
 342 362 342 362 308 348 c 128,-1,19
 274 334 274 334 235 334 c 256,0,1
235 429 m 256,20,21
 273 429 273 429 296 455.5 c 128,-1,22
 319 482 319 482 319 522 c 256,23,24
 319 562 319 562 296 588.5 c 128,-1,25
 273 615 273 615 235 615 c 256,26,27
 197 615 197 615 174 588.5 c 128,-1,28
 151 562 151 562 151 522 c 256,29,30
 151 482 151 482 174 455.5 c 128,-1,31
 197 429 197 429 235 429 c 256,20,21
EndSplineSet
Validated: 1
EndChar

StartChar: asterisk
Encoding: 42 42 123
Width: 601
Flags: W
LayerCount: 2
Fore
SplineSet
192 238 m 1,0,-1
 88 308 l 1,1,-1
 215 461 l 1,2,-1
 32 516 l 1,3,-1
 71 630 l 1,4,-1
 245 557 l 1,5,-1
 236 747 l 1,6,-1
 365 747 l 1,7,-1
 356 557 l 1,8,-1
 530 630 l 1,9,-1
 569 516 l 1,10,-1
 386 461 l 1,11,-1
 512 308 l 1,12,-1
 408 239 l 1,13,-1
 300 401 l 1,14,-1
 192 238 l 1,0,-1
EndSplineSet
Validated: 1
EndChar

StartChar: dagger
Encoding: 8224 8224 124
Width: 522
Flags: W
LayerCount: 2
Fore
SplineSet
198 -200 m 1,0,-1
 198 408 l 1,1,-1
 26 408 l 1,2,-1
 26 516 l 1,3,-1
 198 516 l 1,4,-1
 198 740 l 1,5,-1
 324 740 l 1,6,-1
 324 516 l 1,7,-1
 496 516 l 1,8,-1
 496 408 l 1,9,-1
 324 408 l 1,10,-1
 324 -200 l 1,11,-1
 198 -200 l 1,0,-1
EndSplineSet
Validated: 1
EndChar

StartChar: daggerdbl
Encoding: 8225 8225 125
Width: 542
Flags: W
LayerCount: 2
Fore
SplineSet
208 -200 m 1,0,-1
 208 24 l 1,1,-1
 36 24 l 1,2,-1
 36 132 l 1,3,-1
 208 132 l 1,4,-1
 208 408 l 1,5,-1
 36 408 l 1,6,-1
 36 516 l 1,7,-1
 208 516 l 1,8,-1
 208 740 l 1,9,-1
 334 740 l 1,10,-1
 334 516 l 1,11,-1
 506 516 l 1,12,-1
 506 408 l 1,13,-1
 334 408 l 1,14,-1
 334 132 l 1,15,-1
 506 132 l 1,16,-1
 506 24 l 1,17,-1
 334 24 l 1,18,-1
 334 -200 l 1,19,-1
 208 -200 l 1,0,-1
EndSplineSet
Validated: 1
EndChar

StartChar: numbersign
Encoding: 35 35 126
Width: 632
Flags: W
LayerCount: 2
Fore
SplineSet
366 173 m 1,0,-1
 206 173 l 1,1,-1
 176 0 l 1,2,-1
 82 0 l 1,3,-1
 112 173 l 1,4,-1
 11 173 l 1,5,-1
 11 263 l 1,6,-1
 128 263 l 1,7,-1
 157 435 l 1,8,-1
 56 435 l 1,9,-1
 56 525 l 1,10,-1
 173 525 l 1,11,-1
 203 698 l 1,12,-1
 296 698 l 1,13,-1
 266 525 l 1,14,-1
 426 525 l 1,15,-1
 456 698 l 1,16,-1
 550 698 l 1,17,-1
 520 525 l 1,18,-1
 621 525 l 1,19,-1
 621 435 l 1,20,-1
 504 435 l 1,21,-1
 475 263 l 1,22,-1
 576 263 l 1,23,-1
 576 173 l 1,24,-1
 459 173 l 1,25,-1
 429 0 l 1,26,-1
 336 0 l 1,27,-1
 366 173 l 1,0,-1
381 263 m 1,28,-1
 411 435 l 1,29,-1
 251 435 l 1,30,-1
 221 263 l 1,31,-1
 381 263 l 1,28,-1
EndSplineSet
Validated: 1
EndChar

StartChar: asciicircum
Encoding: 94 94 127
Width: 600
Flags: W
LayerCount: 2
Fore
SplineSet
440 277 m 1,0,-1
 300 537 l 1,1,-1
 294 537 l 1,2,-1
 154 277 l 1,3,-1
 42 334 l 1,4,-1
 242 698 l 1,5,-1
 362 698 l 1,6,-1
 559 334 l 1,7,-1
 440 277 l 1,0,-1
EndSplineSet
Validated: 1
EndChar

StartChar: asciitilde
Encoding: 126 126 128
Width: 600
Flags: W
LayerCount: 2
Fore
SplineSet
416 212 m 0,0,1
 379 212 379 212 351 221.5 c 128,-1,2
 323 231 323 231 290 248 c 0,3,4
 263 262 263 262 237 271.5 c 128,-1,5
 211 281 211 281 180 281 c 0,6,7
 157 281 157 281 140.5 274.5 c 128,-1,8
 124 268 124 268 102 254 c 1,9,-1
 53 338 l 1,10,11
 71 364 71 364 103 382 c 128,-1,12
 135 400 135 400 184 400 c 0,13,14
 221 400 221 400 249 390.5 c 128,-1,15
 277 381 277 381 310 364 c 0,16,17
 337 350 337 350 363 340.5 c 128,-1,18
 389 331 389 331 420 331 c 0,19,20
 443 331 443 331 459.5 337.5 c 128,-1,21
 476 344 476 344 498 358 c 1,22,-1
 547 274 l 1,23,24
 529 248 529 248 497 230 c 128,-1,25
 465 212 465 212 416 212 c 0,0,1
EndSplineSet
Validated: 1
EndChar

StartChar: plus
Encoding: 43 43 129
Width: 600
Flags: W
LayerCount: 2
Fore
SplineSet
236 63 m 1,0,-1
 236 247 l 1,1,-1
 67 247 l 1,2,-1
 67 365 l 1,3,-1
 236 365 l 1,4,-1
 236 549 l 1,5,-1
 364 549 l 1,6,-1
 364 365 l 1,7,-1
 533 365 l 1,8,-1
 533 247 l 1,9,-1
 364 247 l 1,10,-1
 364 63 l 1,11,-1
 236 63 l 1,0,-1
EndSplineSet
Validated: 1
EndChar

StartChar: minus
Encoding: 8722 8722 130
Width: 600
Flags: W
LayerCount: 2
Fore
SplineSet
67 247 m 1,0,-1
 67 365 l 1,1,-1
 533 365 l 1,2,-1
 533 247 l 1,3,-1
 67 247 l 1,0,-1
EndSplineSet
Validated: 1
EndChar

StartChar: plusminus
Encoding: 177 177 131
Width: 600
Flags: W
LayerCount: 2
Fore
SplineSet
236 184 m 1,0,-1
 236 351 l 1,1,-1
 67 351 l 1,2,-1
 67 470 l 1,3,-1
 236 470 l 1,4,-1
 236 635 l 1,5,-1
 364 635 l 1,6,-1
 364 470 l 1,7,-1
 533 470 l 1,8,-1
 533 351 l 1,9,-1
 364 351 l 1,10,-1
 364 184 l 1,11,-1
 236 184 l 1,0,-1
67 0 m 1,12,-1
 67 119 l 1,13,-1
 533 119 l 1,14,-1
 533 0 l 1,15,-1
 67 0 l 1,12,-1
EndSplineSet
Validated: 1
EndChar

StartChar: multiply
Encoding: 215 215 132
Width: 600
Flags: W
LayerCount: 2
Fore
SplineSet
300 217 m 1,0,-1
 161 71 l 1,1,-1
 79 153 l 1,2,-1
 218 299 l 1,3,-1
 79 445 l 1,4,-1
 161 527 l 1,5,-1
 300 381 l 1,6,-1
 439 527 l 1,7,-1
 521 445 l 1,8,-1
 382 299 l 1,9,-1
 521 153 l 1,10,-1
 439 71 l 1,11,-1
 300 217 l 1,0,-1
EndSplineSet
Validated: 1
EndChar

StartChar: divide
Encoding: 247 247 133
Width: 600
Flags: W
LayerCount: 2
Fore
SplineSet
67 247 m 1,0,-1
 67 365 l 1,1,-1
 532 365 l 1,2,-1
 532 247 l 1,3,-1
 67 247 l 1,0,-1
300 28 m 256,4,5
 253 28 253 28 233 48.5 c 128,-1,6
 213 69 213 69 213 97 c 2,7,-1
 213 121 l 2,8,9
 213 149 213 149 233 169.5 c 128,-1,10
 253 190 253 190 300 190 c 256,11,12
 347 190 347 190 367 169.5 c 128,-1,13
 387 149 387 149 387 121 c 2,14,-1
 387 97 l 2,15,16
 387 69 387 69 367 48.5 c 128,-1,17
 347 28 347 28 300 28 c 256,4,5
300 420 m 256,18,19
 253 420 253 420 233 440.5 c 128,-1,20
 213 461 213 461 213 489 c 2,21,-1
 213 513 l 2,22,23
 213 541 213 541 233 561.5 c 128,-1,24
 253 582 253 582 300 582 c 256,25,26
 347 582 347 582 367 561.5 c 128,-1,27
 387 541 387 541 387 513 c 2,28,-1
 387 489 l 2,29,30
 387 461 387 461 367 440.5 c 128,-1,31
 347 420 347 420 300 420 c 256,18,19
EndSplineSet
Validated: 1
EndChar

StartChar: equal
Encoding: 61 61 134
Width: 600
Flags: W
LayerCount: 2
Fore
SplineSet
67 362 m 1,0,-1
 67 480 l 1,1,-1
 533 480 l 1,2,-1
 533 362 l 1,3,-1
 67 362 l 1,0,-1
67 130 m 1,4,-1
 67 248 l 1,5,-1
 533 248 l 1,6,-1
 533 130 l 1,7,-1
 67 130 l 1,4,-1
EndSplineSet
Validated: 1
EndChar

StartChar: notequal
Encoding: 8800 8800 136
Width: 600
Flags: W
LayerCount: 2
Fore
SplineSet
93 37 m 1,0,-1
 143 130 l 1,1,-1
 67 130 l 1,2,-1
 67 246 l 1,3,-1
 205 246 l 1,4,-1
 266 364 l 1,5,-1
 67 364 l 1,6,-1
 67 480 l 1,7,-1
 327 480 l 1,8,-1
 378 575 l 1,9,-1
 504 575 l 1,10,-1
 453 480 l 1,11,-1
 533 480 l 1,12,-1
 533 364 l 1,13,-1
 392 364 l 1,14,-1
 330 246 l 1,15,-1
 533 246 l 1,16,-1
 533 130 l 1,17,-1
 268 130 l 1,18,-1
 218 37 l 1,19,-1
 93 37 l 1,0,-1
EndSplineSet
Validated: 1
EndChar

StartChar: less
Encoding: 60 60 137
Width: 600
Flags: W
LayerCount: 2
Fore
SplineSet
103 258 m 1,0,-1
 103 345 l 1,1,-1
 497 604 l 1,2,-1
 497 455 l 1,3,-1
 259 305 l 1,4,-1
 259 298 l 1,5,-1
 497 148 l 1,6,-1
 497 -2 l 1,7,-1
 103 258 l 1,0,-1
EndSplineSet
Validated: 1
EndChar

StartChar: greater
Encoding: 62 62 138
Width: 600
Flags: W
LayerCount: 2
Fore
SplineSet
103 148 m 1,0,-1
 341 298 l 1,1,-1
 341 305 l 1,2,-1
 103 455 l 1,3,-1
 103 604 l 1,4,-1
 497 346 l 1,5,-1
 497 259 l 1,6,-1
 103 -2 l 1,7,-1
 103 148 l 1,0,-1
EndSplineSet
Validated: 1
EndChar

StartChar: lessequal
Encoding: 8804 8804 139
Width: 600
Flags: W
LayerCount: 2
Fore
SplineSet
103 0 m 1,0,-1
 103 116 l 1,1,-1
 497 116 l 1,2,-1
 497 0 l 1,3,-1
 103 0 l 1,0,-1
497 472 m 1,4,-1
 279 377 l 1,5,-1
 279 370 l 1,6,-1
 497 276 l 1,7,-1
 497 139 l 1,8,-1
 103 328 l 1,9,-1
 103 418 l 1,10,-1
 497 609 l 1,11,-1
 497 472 l 1,4,-1
EndSplineSet
Validated: 1
EndChar

StartChar: greaterequal
Encoding: 8805 8805 140
Width: 600
Flags: W
LayerCount: 2
Fore
SplineSet
103 276 m 1,0,-1
 321 371 l 1,1,-1
 321 378 l 1,2,-1
 103 472 l 1,3,-1
 103 609 l 1,4,-1
 497 420 l 1,5,-1
 497 330 l 1,6,-1
 103 139 l 1,7,-1
 103 276 l 1,0,-1
103 116 m 1,8,-1
 497 116 l 1,9,-1
 497 0 l 1,10,-1
 103 0 l 1,11,-1
 103 116 l 1,8,-1
EndSplineSet
Validated: 1
EndChar

StartChar: periodcentered
Encoding: 183 183 141
Width: 358
Flags: W
LayerCount: 2
Fore
SplineSet
179 213 m 256,0,1
 134 213 134 213 112.5 235.5 c 128,-1,2
 91 258 91 258 91 293 c 2,3,-1
 91 313 l 2,4,5
 91 348 91 348 112.5 370.5 c 128,-1,6
 134 393 134 393 179 393 c 256,7,8
 224 393 224 393 245.5 370.5 c 128,-1,9
 267 348 267 348 267 313 c 2,10,-1
 267 293 l 2,11,12
 267 258 267 258 245.5 235.5 c 128,-1,13
 224 213 224 213 179 213 c 256,0,1
EndSplineSet
Validated: 1
EndChar

StartChar: bullet
Encoding: 8226 8226 143
Width: 430
Flags: W
LayerCount: 2
Fore
SplineSet
215 150 m 256,0,1
 173 150 173 150 144 160 c 128,-1,2
 115 170 115 170 97 187.5 c 128,-1,3
 79 205 79 205 70.5 229 c 128,-1,4
 62 253 62 253 62 281 c 2,5,-1
 62 317 l 2,6,7
 62 345 62 345 70.5 369 c 128,-1,8
 79 393 79 393 97 410.5 c 128,-1,9
 115 428 115 428 144 438 c 128,-1,10
 173 448 173 448 215 448 c 256,11,12
 257 448 257 448 286 438 c 128,-1,13
 315 428 315 428 333 410.5 c 128,-1,14
 351 393 351 393 359.5 369 c 128,-1,15
 368 345 368 345 368 317 c 2,16,-1
 368 281 l 2,17,18
 368 253 368 253 359.5 229 c 128,-1,19
 351 205 351 205 333 187.5 c 128,-1,20
 315 170 315 170 286 160 c 128,-1,21
 257 150 257 150 215 150 c 256,0,1
EndSplineSet
Validated: 1
EndChar

StartChar: lozenge
Encoding: 9674 9674 144
Width: 600
Flags: W
LayerCount: 2
Fore
SplineSet
258 0 m 1,0,-1
 53 349 l 1,1,-1
 258 698 l 1,2,-1
 342 698 l 1,3,-1
 547 349 l 1,4,-1
 342 0 l 1,5,-1
 258 0 l 1,0,-1
303 143 m 1,6,-1
 416 349 l 1,7,-1
 303 555 l 1,8,-1
 297 555 l 1,9,-1
 184 349 l 1,10,-1
 297 143 l 1,11,-1
 303 143 l 1,6,-1
EndSplineSet
Validated: 1
EndChar

StartChar: logicalnot
Encoding: 172 172 145
Width: 600
Flags: W
LayerCount: 2
Fore
SplineSet
412 78 m 1,0,-1
 412 247 l 1,1,-1
 52 247 l 1,2,-1
 52 365 l 1,3,-1
 533 365 l 1,4,-1
 533 78 l 1,5,-1
 412 78 l 1,0,-1
EndSplineSet
Validated: 1
EndChar

StartChar: radical
Encoding: 8730 8730 146
Width: 600
Flags: W
LayerCount: 2
Fore
SplineSet
207 0 m 1,0,-1
 90 401 l 1,1,-1
 14 401 l 1,2,-1
 14 525 l 1,3,-1
 184 525 l 1,4,-1
 248 299 l 1,5,-1
 293 123 l 1,6,-1
 301 123 l 1,7,-1
 346 299 l 1,8,-1
 462 698 l 1,9,-1
 585 698 l 1,10,-1
 383 0 l 1,11,-1
 207 0 l 1,0,-1
EndSplineSet
Validated: 1
EndChar

StartChar: integral
Encoding: 8747 8747 147
Width: 448
Flags: W
LayerCount: 2
Fore
SplineSet
35 -85 m 1,0,-1
 150 -85 l 1,1,-1
 150 590 l 2,2,3
 150 623 150 623 159.5 650.5 c 128,-1,4
 169 678 169 678 188.5 698 c 128,-1,5
 208 718 208 718 237.5 729 c 128,-1,6
 267 740 267 740 307 740 c 2,7,-1
 413 740 l 1,8,-1
 413 625 l 1,9,-1
 298 625 l 1,10,-1
 298 -50 l 2,11,12
 298 -83 298 -83 288.5 -110.5 c 128,-1,13
 279 -138 279 -138 259.5 -158 c 128,-1,14
 240 -178 240 -178 210.5 -189 c 128,-1,15
 181 -200 181 -200 141 -200 c 2,16,-1
 35 -200 l 1,17,-1
 35 -85 l 1,0,-1
EndSplineSet
Validated: 1
EndChar

StartChar: infinity
Encoding: 8734 8734 148
Width: 792
Flags: W
LayerCount: 2
Fore
SplineSet
223 85 m 0,0,1
 129 85 129 85 75.5 139 c 128,-1,2
 22 193 22 193 22 290 c 256,3,4
 22 387 22 387 75.5 441 c 128,-1,5
 129 495 129 495 223 495 c 0,6,7
 290 495 290 495 341 464.5 c 128,-1,8
 392 434 392 434 417 359 c 1,9,-1
 423 359 l 1,10,11
 425 389 425 389 438.5 414 c 128,-1,12
 452 439 452 439 473 457 c 128,-1,13
 494 475 494 475 519 485 c 128,-1,14
 544 495 544 495 569 495 c 0,15,16
 663 495 663 495 716.5 441 c 128,-1,17
 770 387 770 387 770 290 c 256,18,19
 770 193 770 193 716.5 139 c 128,-1,20
 663 85 663 85 569 85 c 0,21,22
 502 85 502 85 451 115.5 c 128,-1,23
 400 146 400 146 375 221 c 1,24,-1
 369 221 l 1,25,26
 367 191 367 191 353.5 166 c 128,-1,27
 340 141 340 141 319 123 c 128,-1,28
 298 105 298 105 273 95 c 128,-1,29
 248 85 248 85 223 85 c 0,0,1
223 198 m 0,30,31
 266 198 266 198 297.5 222.5 c 128,-1,32
 329 247 329 247 340 278 c 1,33,34
 332 298 332 298 321 317 c 128,-1,35
 310 336 310 336 295.5 350.5 c 128,-1,36
 281 365 281 365 262.5 373.5 c 128,-1,37
 244 382 244 382 223 382 c 0,38,39
 189 382 189 382 170 361 c 128,-1,40
 151 340 151 340 151 299 c 2,41,-1
 151 281 l 2,42,43
 151 240 151 240 170 219 c 128,-1,44
 189 198 189 198 223 198 c 0,30,31
569 198 m 0,45,46
 603 198 603 198 622 219 c 128,-1,47
 641 240 641 240 641 281 c 2,48,-1
 641 299 l 2,49,50
 641 340 641 340 622 361 c 128,-1,51
 603 382 603 382 569 382 c 0,52,53
 526 382 526 382 494.5 357.5 c 128,-1,54
 463 333 463 333 452 302 c 1,55,56
 459 282 459 282 470.5 263 c 128,-1,57
 482 244 482 244 496.5 229.5 c 128,-1,58
 511 215 511 215 529.5 206.5 c 128,-1,59
 548 198 548 198 569 198 c 0,45,46
EndSplineSet
Validated: 1
EndChar

StartChar: uni212E
Encoding: 8494 8494 149
Width: 714
Flags: W
LayerCount: 2
Fore
SplineSet
214 88 m 1,0,1
 243 70 243 70 278 59.5 c 128,-1,2
 313 49 313 49 357 49 c 0,3,4
 447 49 447 49 506 90 c 128,-1,5
 565 131 565 131 601 198 c 1,6,-1
 656 166 l 1,7,8
 636 128 636 128 607 95.5 c 128,-1,9
 578 63 578 63 540 39 c 128,-1,10
 502 15 502 15 456 1.5 c 128,-1,11
 410 -12 410 -12 357 -12 c 0,12,13
 286 -12 286 -12 226.5 13.5 c 128,-1,14
 167 39 167 39 123 86 c 128,-1,15
 79 133 79 133 54.5 199.5 c 128,-1,16
 30 266 30 266 30 349 c 0,17,18
 30 431 30 431 54.5 498 c 128,-1,19
 79 565 79 565 123 612 c 128,-1,20
 167 659 167 659 226.5 684.5 c 128,-1,21
 286 710 286 710 357 710 c 0,22,23
 427 710 427 710 487 684.5 c 128,-1,24
 547 659 547 659 591 612 c 128,-1,25
 635 565 635 565 659.5 498 c 128,-1,26
 684 431 684 431 684 349 c 1,27,-1
 214 349 l 1,28,-1
 214 88 l 1,0,1
500 407 m 1,29,-1
 500 613 l 1,30,31
 471 630 471 630 436 641 c 128,-1,32
 401 652 401 652 357 652 c 256,33,34
 313 652 313 652 278 641 c 128,-1,35
 243 630 243 630 214 613 c 1,36,-1
 214 407 l 1,37,-1
 500 407 l 1,29,-1
EndSplineSet
Validated: 1
EndChar

StartChar: uni2113
Encoding: 8467 8467 150
Width: 553
Flags: W
LayerCount: 2
Fore
SplineSet
314 -12 m 0,0,1
 274 -12 274 -12 239 0 c 128,-1,2
 204 12 204 12 177.5 34 c 128,-1,3
 151 56 151 56 136 87.5 c 128,-1,4
 121 119 121 119 121 159 c 2,5,-1
 121 162 l 1,6,-1
 80 135 l 1,7,-1
 16 238 l 1,8,9
 43 253 43 253 70.5 272 c 128,-1,10
 98 291 98 291 114 302 c 1,11,-1
 114 545 l 2,12,13
 114 601 114 601 128 640.5 c 128,-1,14
 142 680 142 680 166.5 704.5 c 128,-1,15
 191 729 191 729 224.5 740.5 c 128,-1,16
 258 752 258 752 296 752 c 0,17,18
 384 752 384 752 430.5 701 c 128,-1,19
 477 650 477 650 477 561 c 0,20,21
 477 514 477 514 463 472.5 c 128,-1,22
 449 431 449 431 421.5 391.5 c 128,-1,23
 394 352 394 352 352 312 c 128,-1,24
 310 272 310 272 254 228 c 1,25,-1
 254 187 l 2,26,27
 254 149 254 149 269.5 132.5 c 128,-1,28
 285 116 285 116 312 116 c 0,29,30
 340 116 340 116 361.5 137.5 c 128,-1,31
 383 159 383 159 412 219 c 1,32,-1
 532 158 l 1,33,34
 503 82 503 82 450 35 c 128,-1,35
 397 -12 397 -12 314 -12 c 0,0,1
300 621 m 256,36,37
 283 621 283 621 268.5 605 c 128,-1,38
 254 589 254 589 254 550 c 2,39,-1
 254 378 l 1,40,41
 292 412 292 412 316.5 453.5 c 128,-1,42
 341 495 341 495 341 549 c 2,43,-1
 341 559 l 2,44,45
 341 591 341 591 329 606 c 128,-1,46
 317 621 317 621 300 621 c 256,36,37
EndSplineSet
Validated: 1
EndChar

StartChar: uni2116
Encoding: 8470 8470 151
Width: 1060
Flags: W
LayerCount: 2
Fore
SplineSet
857 358 m 256,0,1
 778 358 778 358 734.5 404 c 128,-1,2
 691 450 691 450 691 534 c 256,3,4
 691 618 691 618 734.5 664 c 128,-1,5
 778 710 778 710 857 710 c 256,6,7
 936 710 936 710 979.5 664 c 128,-1,8
 1023 618 1023 618 1023 534 c 256,9,10
 1023 450 1023 450 979.5 404 c 128,-1,11
 936 358 936 358 857 358 c 256,0,1
77 0 m 1,12,-1
 77 698 l 1,13,-1
 243 698 l 1,14,-1
 408 378 l 1,15,-1
 475 226 l 1,16,-1
 478 226 l 1,17,-1
 478 698 l 1,18,-1
 621 698 l 1,19,-1
 621 0 l 1,20,-1
 455 0 l 1,21,-1
 290 320 l 1,22,-1
 223 472 l 1,23,-1
 220 472 l 1,24,-1
 220 0 l 1,25,-1
 77 0 l 1,12,-1
857 437 m 256,26,27
 885 437 885 437 901 455 c 128,-1,28
 917 473 917 473 917 507 c 2,29,-1
 917 561 l 2,30,31
 917 595 917 595 901 613 c 128,-1,32
 885 631 885 631 857 631 c 256,33,34
 829 631 829 631 813 613 c 128,-1,35
 797 595 797 595 797 561 c 2,36,-1
 797 507 l 2,37,38
 797 473 797 473 813 455 c 128,-1,39
 829 437 829 437 857 437 c 256,26,27
698 218 m 1,40,-1
 698 297 l 1,41,-1
 1016 297 l 1,42,-1
 1016 218 l 1,43,-1
 698 218 l 1,40,-1
EndSplineSet
Validated: 1
EndChar

StartChar: partialdiff
Encoding: 8706 8706 152
Width: 587
Flags: W
LayerCount: 2
Fore
SplineSet
548 274 m 0,0,1
 548 200 548 200 529.5 146 c 128,-1,2
 511 92 511 92 477.5 57 c 128,-1,3
 444 22 444 22 397.5 5 c 128,-1,4
 351 -12 351 -12 295 -12 c 0,5,6
 235 -12 235 -12 187.5 6.5 c 128,-1,7
 140 25 140 25 106.5 59.5 c 128,-1,8
 73 94 73 94 55.5 143.5 c 128,-1,9
 38 193 38 193 38 255 c 0,10,11
 38 311 38 311 51.5 357 c 128,-1,12
 65 403 65 403 90.5 435.5 c 128,-1,13
 116 468 116 468 152 486 c 128,-1,14
 188 504 188 504 233 504 c 0,15,16
 288 504 288 504 325.5 477.5 c 128,-1,17
 363 451 363 451 387 406 c 1,18,-1
 396 410 l 1,19,20
 368 491 368 491 291 560 c 128,-1,21
 214 629 214 629 89 698 c 1,22,-1
 306 698 l 1,23,24
 352 669 352 669 395.5 629.5 c 128,-1,25
 439 590 439 590 473 537.5 c 128,-1,26
 507 485 507 485 527.5 419.5 c 128,-1,27
 548 354 548 354 548 274 c 0,0,1
293 98 m 256,28,29
 341 98 341 98 368 129 c 128,-1,30
 395 160 395 160 395 217 c 2,31,-1
 395 273 l 2,32,33
 395 330 395 330 368 361 c 128,-1,34
 341 392 341 392 293 392 c 256,35,36
 245 392 245 392 218 361 c 128,-1,37
 191 330 191 330 191 273 c 2,38,-1
 191 217 l 2,39,40
 191 160 191 160 218 129 c 128,-1,41
 245 98 245 98 293 98 c 256,28,29
EndSplineSet
Validated: 1
EndChar

StartChar: currency
Encoding: 164 164 153
Width: 628
Flags: W
LayerCount: 2
Fore
SplineSet
314 107 m 256,0,1
 276 107 276 107 242 115 c 128,-1,2
 208 123 208 123 182 137 c 1,3,-1
 91 45 l 1,4,-1
 10 125 l 1,5,-1
 101 216 l 1,6,7
 69 271 69 271 69 349 c 256,8,9
 69 427 69 427 101 482 c 1,10,-1
 10 573 l 1,11,-1
 91 653 l 1,12,-1
 182 561 l 1,13,14
 208 575 208 575 242 583 c 128,-1,15
 276 591 276 591 314 591 c 256,16,17
 352 591 352 591 386 583 c 128,-1,18
 420 575 420 575 446 561 c 1,19,-1
 537 653 l 1,20,-1
 618 573 l 1,21,-1
 527 482 l 1,22,23
 559 427 559 427 559 349 c 256,24,25
 559 271 559 271 527 216 c 1,26,-1
 618 125 l 1,27,-1
 537 45 l 1,28,-1
 446 137 l 1,29,30
 420 123 420 123 386 115 c 128,-1,31
 352 107 352 107 314 107 c 256,0,1
314 214 m 256,32,33
 360 214 360 214 385.5 242 c 128,-1,34
 411 270 411 270 411 321 c 2,35,-1
 411 377 l 2,36,37
 411 428 411 428 385.5 456 c 128,-1,38
 360 484 360 484 314 484 c 256,39,40
 268 484 268 484 242.5 456 c 128,-1,41
 217 428 217 428 217 377 c 2,42,-1
 217 321 l 2,43,44
 217 270 217 270 242.5 242 c 128,-1,45
 268 214 268 214 314 214 c 256,32,33
EndSplineSet
Validated: 1
EndChar

StartChar: cent
Encoding: 162 162 154
Width: 552
Flags: W
LayerCount: 2
Fore
SplineSet
237 -114 m 1,0,-1
 237 -7 l 1,1,2
 143 11 143 11 92 80 c 128,-1,3
 41 149 41 149 41 258 c 256,4,5
 41 367 41 367 92.5 436.5 c 128,-1,6
 144 506 144 506 237 523 c 1,7,-1
 237 630 l 1,8,-1
 347 630 l 1,9,-1
 347 524 l 1,10,11
 408 514 408 514 447 482 c 128,-1,12
 486 450 486 450 508 402 c 1,13,-1
 402 344 l 1,14,15
 392 366 392 366 376.5 384 c 128,-1,16
 361 402 361 402 338 411 c 1,17,-1
 338 104 l 1,18,19
 364 113 364 113 381.5 131.5 c 128,-1,20
 399 150 399 150 411 173 c 1,21,-1
 516 114 l 1,22,23
 493 66 493 66 451.5 33.5 c 128,-1,24
 410 1 410 1 347 -8 c 1,25,-1
 347 -114 l 1,26,-1
 237 -114 l 1,0,-1
182 216 m 2,27,28
 182 176 182 176 198.5 147.5 c 128,-1,29
 215 119 215 119 247 106 c 1,30,-1
 247 410 l 1,31,32
 215 397 215 397 198.5 368.5 c 128,-1,33
 182 340 182 340 182 300 c 2,34,-1
 182 216 l 2,27,28
EndSplineSet
Validated: 1
EndChar

StartChar: Euro
Encoding: 8364 8364 155
Width: 627
Flags: W
LayerCount: 2
Fore
SplineSet
356 -12 m 0,0,1
 288 -12 288 -12 231.5 12.5 c 128,-1,2
 175 37 175 37 134.5 83 c 128,-1,3
 94 129 94 129 72 196 c 128,-1,4
 50 263 50 263 50 349 c 0,5,6
 50 434 50 434 72 501.5 c 128,-1,7
 94 569 94 569 134.5 615 c 128,-1,8
 175 661 175 661 231.5 685.5 c 128,-1,9
 288 710 288 710 356 710 c 0,10,11
 406 710 406 710 442.5 699.5 c 128,-1,12
 479 689 479 689 506 672.5 c 128,-1,13
 533 656 533 656 552.5 634 c 128,-1,14
 572 612 572 612 588 590 c 1,15,-1
 479 511 l 1,16,17
 457 550 457 550 428.5 569.5 c 128,-1,18
 400 589 400 589 356 589 c 0,19,20
 308 589 308 589 270.5 558 c 128,-1,21
 233 527 233 527 218 473 c 1,22,-1
 448 473 l 1,23,-1
 448 383 l 1,24,-1
 210 383 l 1,25,-1
 210 315 l 1,26,-1
 448 315 l 1,27,-1
 448 225 l 1,28,-1
 218 225 l 1,29,30
 232 168 232 168 269 138.5 c 128,-1,31
 306 109 306 109 356 109 c 0,32,33
 441 109 441 109 489 194 c 1,34,-1
 598 114 l 1,35,36
 583 91 583 91 562.5 68.5 c 128,-1,37
 542 46 542 46 512.5 28 c 128,-1,38
 483 10 483 10 444.5 -1 c 128,-1,39
 406 -12 406 -12 356 -12 c 0,0,1
EndSplineSet
Validated: 1
EndChar

StartChar: florin
Encoding: 402 402 156
Width: 484
Flags: W
LayerCount: 2
Fore
SplineSet
17 -19 m 1,0,-1
 132 -19 l 1,1,-1
 160 251 l 1,2,-1
 54 251 l 1,3,-1
 66 371 l 1,4,-1
 172 371 l 1,5,-1
 190 546 l 2,6,7
 197 612 197 612 239.5 655 c 128,-1,8
 282 698 282 698 362 698 c 2,9,-1
 472 698 l 1,10,-1
 460 583 l 1,11,-1
 341 583 l 1,12,-1
 319 371 l 1,13,-1
 444 371 l 1,14,-1
 434 251 l 1,15,-1
 307 251 l 1,16,-1
 283 17 l 2,17,18
 276 -49 276 -49 234 -91.5 c 128,-1,19
 192 -134 192 -134 111 -134 c 2,20,-1
 5 -134 l 1,21,-1
 17 -19 l 1,0,-1
EndSplineSet
Validated: 1
EndChar

StartChar: sterling
Encoding: 163 163 157
Width: 582
Flags: W
LayerCount: 2
Fore
SplineSet
66 0 m 1,0,-1
 66 136 l 1,1,2
 104 153 104 153 126.5 184 c 128,-1,3
 149 215 149 215 149 258 c 0,4,5
 149 276 149 276 145 291 c 1,6,-1
 34 291 l 1,7,-1
 34 411 l 1,8,-1
 100 411 l 1,9,10
 92 432 92 432 87 455.5 c 128,-1,11
 82 479 82 479 82 505 c 0,12,13
 82 551 82 551 99.5 589 c 128,-1,14
 117 627 117 627 150 654 c 128,-1,15
 183 681 183 681 229 695.5 c 128,-1,16
 275 710 275 710 332 710 c 0,17,18
 413 710 413 710 470.5 679.5 c 128,-1,19
 528 649 528 649 568 589 c 1,20,-1
 458 512 l 1,21,22
 430 548 430 548 401 563.5 c 128,-1,23
 372 579 372 579 336 579 c 0,24,25
 287 579 287 579 261 553.5 c 128,-1,26
 235 528 235 528 235 481 c 0,27,28
 235 461 235 461 239 444.5 c 128,-1,29
 243 428 243 428 249 411 c 1,30,-1
 445 411 l 1,31,-1
 445 291 l 1,32,-1
 295 291 l 1,33,34
 296 284 296 284 296.5 277.5 c 128,-1,35
 297 271 297 271 297 263 c 0,36,37
 297 237 297 237 290 216.5 c 128,-1,38
 283 196 283 196 271.5 180.5 c 128,-1,39
 260 165 260 165 246.5 154.5 c 128,-1,40
 233 144 233 144 220 137 c 1,41,-1
 220 128 l 1,42,-1
 554 128 l 1,43,-1
 554 0 l 1,44,-1
 66 0 l 1,0,-1
EndSplineSet
Validated: 1
EndChar

StartChar: dollar
Encoding: 36 36 158
Width: 601
Flags: W
LayerCount: 2
Fore
SplineSet
250 -82 m 1,0,-1
 250 10 l 1,1,2
 174 17 174 17 122 45 c 128,-1,3
 70 73 70 73 32 115 c 1,4,-1
 122 197 l 1,5,6
 151 167 151 167 186 147.5 c 128,-1,7
 221 128 221 128 263 122 c 1,8,-1
 263 302 l 1,9,10
 150 325 150 325 101 374 c 128,-1,11
 52 423 52 423 52 496 c 0,12,13
 52 575 52 575 102.5 625 c 128,-1,14
 153 675 153 675 250 686 c 1,15,-1
 250 780 l 1,16,-1
 364 780 l 1,17,-1
 364 686 l 1,18,19
 424 679 424 679 469 656.5 c 128,-1,20
 514 634 514 634 547 596 c 1,21,-1
 456 514 l 1,22,23
 438 534 438 534 413 550 c 128,-1,24
 388 566 388 566 352 574 c 1,25,-1
 352 408 l 1,26,27
 458 384 458 384 508.5 339 c 128,-1,28
 559 294 559 294 559 217 c 0,29,30
 559 143 559 143 511.5 87 c 128,-1,31
 464 31 464 31 364 14 c 1,32,-1
 364 -82 l 1,33,-1
 250 -82 l 1,0,-1
190 500 m 256,34,35
 190 471 190 471 207.5 455 c 128,-1,36
 225 439 225 439 263 428 c 1,37,-1
 263 576 l 1,38,39
 225 568 225 568 207.5 548.5 c 128,-1,40
 190 529 190 529 190 500 c 256,34,35
421 206 m 0,41,42
 421 228 421 228 408 248.5 c 128,-1,43
 395 269 395 269 352 282 c 1,44,-1
 352 124 l 1,45,46
 387 134 387 134 404 155.5 c 128,-1,47
 421 177 421 177 421 206 c 0,41,42
EndSplineSet
Validated: 1
EndChar

StartChar: yen
Encoding: 165 165 159
Width: 650
Flags: W
LayerCount: 2
Fore
SplineSet
399 133 m 1,0,-1
 399 0 l 1,1,-1
 246 0 l 1,2,-1
 246 133 l 1,3,-1
 78 133 l 1,4,-1
 78 223 l 1,5,-1
 246 223 l 1,6,-1
 246 291 l 1,7,-1
 78 291 l 1,8,-1
 78 381 l 1,9,-1
 188 381 l 1,10,-1
 19 698 l 1,11,-1
 191 698 l 1,12,-1
 329 423 l 1,13,-1
 331 423 l 1,14,-1
 468 698 l 1,15,-1
 631 698 l 1,16,-1
 457 381 l 1,17,-1
 567 381 l 1,18,-1
 567 291 l 1,19,-1
 399 291 l 1,20,-1
 399 223 l 1,21,-1
 567 223 l 1,22,-1
 567 133 l 1,23,-1
 399 133 l 1,0,-1
EndSplineSet
Validated: 1
EndChar

StartChar: uni0E3F
Encoding: 3647 3647 160
Width: 665
Flags: W
LayerCount: 2
Fore
SplineSet
390 -90 m 1,0,-1
 276 -90 l 1,1,-1
 276 20 l 1,2,-1
 77 20 l 1,3,-1
 77 678 l 1,4,-1
 276 678 l 1,5,-1
 276 780 l 1,6,-1
 390 780 l 1,7,-1
 390 678 l 1,8,-1
 427 678 l 2,9,10
 508 678 508 678 554 632 c 128,-1,11
 600 586 600 586 600 509 c 0,12,13
 600 440 600 440 569 408 c 128,-1,14
 538 376 538 376 472 368 c 1,15,-1
 472 362 l 1,16,17
 504 360 504 360 532 350.5 c 128,-1,18
 560 341 560 341 580.5 322.5 c 128,-1,19
 601 304 601 304 613 276 c 128,-1,20
 625 248 625 248 625 208 c 0,21,22
 625 169 625 169 612 134.5 c 128,-1,23
 599 100 599 100 576.5 74.5 c 128,-1,24
 554 49 554 49 522.5 34.5 c 128,-1,25
 491 20 491 20 455 20 c 2,26,-1
 390 20 l 1,27,-1
 390 -90 l 1,0,-1
286 408 m 1,28,-1
 286 557 l 1,29,-1
 220 557 l 1,30,-1
 220 408 l 1,31,-1
 286 408 l 1,28,-1
381 408 m 1,32,-1
 391 408 l 2,33,34
 420 408 420 408 436 423 c 128,-1,35
 452 438 452 438 452 467 c 2,36,-1
 452 498 l 2,37,38
 452 527 452 527 436 542 c 128,-1,39
 420 557 420 557 391 557 c 2,40,-1
 381 557 l 1,41,-1
 381 408 l 1,32,-1
286 141 m 1,42,-1
 286 292 l 1,43,-1
 220 292 l 1,44,-1
 220 141 l 1,45,-1
 286 141 l 1,42,-1
381 141 m 1,46,-1
 415 141 l 2,47,48
 444 141 444 141 460.5 156.5 c 128,-1,49
 477 172 477 172 477 201 c 2,50,-1
 477 232 l 2,51,52
 477 261 477 261 460.5 276.5 c 128,-1,53
 444 292 444 292 415 292 c 2,54,-1
 381 292 l 1,55,-1
 381 141 l 1,46,-1
EndSplineSet
Validated: 1
EndChar

StartChar: uni20A1
Encoding: 8353 8353 161
Width: 617
Flags: W
LayerCount: 2
Fore
SplineSet
323 9 m 1,0,1
 312 10 312 10 301.5 12 c 128,-1,2
 291 14 291 14 281 16 c 1,3,-1
 271 -82 l 1,4,-1
 201 -82 l 1,5,-1
 214 39 l 1,6,7
 139 77 139 77 94.5 156 c 128,-1,8
 50 235 50 235 50 350 c 0,9,10
 50 486 50 486 111.5 571 c 128,-1,11
 173 656 173 656 280 681 c 1,12,-1
 290 780 l 1,13,-1
 360 780 l 1,14,-1
 351 690 l 1,15,-1
 363 690 l 2,16,17
 371 690 371 690 378.5 690 c 128,-1,18
 386 690 386 690 394 689 c 1,19,-1
 403 780 l 1,20,-1
 473 780 l 1,21,-1
 462 675 l 1,22,23
 505 661 505 661 534 634.5 c 128,-1,24
 563 608 563 608 588 576 c 1,25,-1
 486 502 l 1,26,27
 470 529 470 529 447 545 c 1,28,-1
 404 132 l 1,29,30
 428 141 428 141 449 159 c 128,-1,31
 470 177 470 177 484 203 c 1,32,-1
 587 127 l 1,33,34
 575 108 575 108 557 89 c 128,-1,35
 539 70 539 70 514.5 54 c 128,-1,36
 490 38 490 38 459.5 26 c 128,-1,37
 429 14 429 14 392 10 c 1,38,-1
 383 -82 l 1,39,-1
 313 -82 l 1,40,-1
 323 9 l 1,0,1
338 575 m 1,41,-1
 292 135 l 1,42,43
 314 125 314 125 336 124 c 1,44,-1
 382 572 l 1,45,46
 375 574 375 574 364.5 574.5 c 128,-1,47
 354 575 354 575 346 575 c 2,48,-1
 338 575 l 1,41,-1
202 291 m 2,49,50
 202 260 202 260 209.5 233.5 c 128,-1,51
 217 207 217 207 231 187 c 1,52,-1
 267 548 l 1,53,54
 238 527 238 527 220 491 c 128,-1,55
 202 455 202 455 202 407 c 2,56,-1
 202 291 l 2,49,50
EndSplineSet
Validated: 1
EndChar

StartChar: uni20A4
Encoding: 8356 8356 162
Width: 582
Flags: W
LayerCount: 2
Fore
SplineSet
554 0 m 1,0,-1
 66 0 l 1,1,-1
 66 131 l 1,2,3
 97 145 97 145 117.5 170.5 c 128,-1,4
 138 196 138 196 146 227 c 1,5,-1
 34 227 l 1,6,-1
 34 317 l 1,7,-1
 138 317 l 1,8,9
 133 334 133 334 125.5 351 c 128,-1,10
 118 368 118 368 111 385 c 1,11,-1
 34 385 l 1,12,-1
 34 475 l 1,13,-1
 84 475 l 1,14,15
 83 483 83 483 82.5 490 c 128,-1,16
 82 497 82 497 82 505 c 0,17,18
 82 551 82 551 99.5 589 c 128,-1,19
 117 627 117 627 150 654 c 128,-1,20
 183 681 183 681 229 695.5 c 128,-1,21
 275 710 275 710 332 710 c 0,22,23
 413 710 413 710 470.5 679.5 c 128,-1,24
 528 649 528 649 568 589 c 1,25,-1
 458 516 l 1,26,27
 430 552 430 552 401 567.5 c 128,-1,28
 372 583 372 583 336 583 c 0,29,30
 287 583 287 583 261 555.5 c 128,-1,31
 235 528 235 528 235 481 c 2,32,-1
 235 475 l 1,33,-1
 425 475 l 1,34,-1
 425 385 l 1,35,-1
 260 385 l 1,36,37
 268 368 268 368 275.5 351.5 c 128,-1,38
 283 335 283 335 288 317 c 1,39,-1
 425 317 l 1,40,-1
 425 227 l 1,41,-1
 293 227 l 1,42,43
 285 191 285 191 263 167 c 128,-1,44
 241 143 241 143 220 132 c 1,45,-1
 220 123 l 1,46,-1
 554 123 l 1,47,-1
 554 0 l 1,0,-1
EndSplineSet
Validated: 1
EndChar

StartChar: uni20A6
Encoding: 8358 8358 163
Width: 776
Flags: W
LayerCount: 2
Fore
SplineSet
381 228 m 1,0,-1
 238 228 l 1,1,-1
 238 0 l 1,2,-1
 105 0 l 1,3,-1
 105 228 l 1,4,-1
 17 228 l 1,5,-1
 17 318 l 1,6,-1
 105 318 l 1,7,-1
 105 386 l 1,8,-1
 17 386 l 1,9,-1
 17 476 l 1,10,-1
 105 476 l 1,11,-1
 105 698 l 1,12,-1
 279 698 l 1,13,-1
 391 476 l 1,14,-1
 539 476 l 1,15,-1
 539 698 l 1,16,-1
 670 698 l 1,17,-1
 670 476 l 1,18,-1
 759 476 l 1,19,-1
 759 386 l 1,20,-1
 670 386 l 1,21,-1
 670 318 l 1,22,-1
 759 318 l 1,23,-1
 759 228 l 1,24,-1
 670 228 l 1,25,-1
 670 0 l 1,26,-1
 495 0 l 1,27,-1
 381 228 l 1,0,-1
338 314 m 1,28,-1
 241 514 l 1,29,-1
 238 514 l 1,30,-1
 238 314 l 1,31,-1
 338 314 l 1,28,-1
536 184 m 1,32,-1
 539 184 l 1,33,-1
 539 390 l 1,34,-1
 435 390 l 1,35,-1
 536 184 l 1,32,-1
EndSplineSet
Validated: 1
EndChar

StartChar: uni20A8
Encoding: 8360 8360 164
Width: 893
Flags: W
LayerCount: 2
Fore
SplineSet
77 0 m 1,0,-1
 77 698 l 1,1,-1
 313 698 l 2,2,3
 410 698 410 698 467 644 c 128,-1,4
 524 590 524 590 524 493 c 0,5,6
 524 439 524 439 504.5 394.5 c 128,-1,7
 485 350 485 350 450 320 c 1,8,-1
 516 195 l 2,9,10
 542 147 542 147 571.5 125 c 128,-1,11
 601 103 601 103 634 103 c 0,12,13
 664 103 664 103 680.5 115 c 128,-1,14
 697 127 697 127 697 144 c 0,15,16
 697 162 697 162 688.5 177.5 c 128,-1,17
 680 193 680 193 657 213 c 2,18,-1
 638 230 l 2,19,20
 598 266 598 266 577 300.5 c 128,-1,21
 556 335 556 335 556 381 c 0,22,23
 556 417 556 417 569 446 c 128,-1,24
 582 475 582 475 606 495 c 128,-1,25
 630 515 630 515 663 525.5 c 128,-1,26
 696 536 696 536 735 536 c 0,27,28
 767 536 767 536 800 529.5 c 128,-1,29
 833 523 833 523 861 506 c 1,30,-1
 813 409 l 1,31,32
 785 427 785 427 752 427 c 0,33,34
 729 427 729 427 712.5 417.5 c 128,-1,35
 696 408 696 408 696 386 c 0,36,37
 696 366 696 366 710.5 351 c 128,-1,38
 725 336 725 336 747 316 c 2,39,-1
 766 299 l 2,40,41
 806 262 806 262 825 229.5 c 128,-1,42
 844 197 844 197 844 150 c 0,43,44
 844 117 844 117 832 87.5 c 128,-1,45
 820 58 820 58 793.5 36 c 128,-1,46
 767 14 767 14 724.5 1 c 128,-1,47
 682 -12 682 -12 621 -12 c 0,48,49
 539 -12 539 -12 482.5 18 c 128,-1,50
 426 48 426 48 391 120 c 2,51,-1
 315 273 l 1,52,-1
 229 273 l 1,53,-1
 229 0 l 1,54,-1
 77 0 l 1,0,-1
293 396 m 2,55,56
 328 396 328 396 347.5 412.5 c 128,-1,57
 367 429 367 429 367 464 c 2,58,-1
 367 507 l 2,59,60
 367 542 367 542 347.5 558.5 c 128,-1,61
 328 575 328 575 293 575 c 2,62,-1
 229 575 l 1,63,-1
 229 396 l 1,64,-1
 293 396 l 2,55,56
EndSplineSet
Validated: 1
EndChar

StartChar: uni20A9
Encoding: 8361 8361 165
Width: 1023
Flags: W
LayerCount: 2
Fore
SplineSet
583 228 m 1,0,-1
 438 228 l 1,1,-1
 384 0 l 1,2,-1
 210 0 l 1,3,-1
 158 228 l 1,4,-1
 38 228 l 1,5,-1
 38 318 l 1,6,-1
 137 318 l 1,7,-1
 122 386 l 1,8,-1
 38 386 l 1,9,-1
 38 476 l 1,10,-1
 101 476 l 1,11,-1
 50 698 l 1,12,-1
 200 698 l 1,13,-1
 244 476 l 1,14,-1
 379 476 l 1,15,-1
 431 698 l 1,16,-1
 597 698 l 1,17,-1
 649 476 l 1,18,-1
 784 476 l 1,19,-1
 829 698 l 1,20,-1
 973 698 l 1,21,-1
 921 476 l 1,22,-1
 985 476 l 1,23,-1
 985 386 l 1,24,-1
 900 386 l 1,25,-1
 884 318 l 1,26,-1
 985 318 l 1,27,-1
 985 228 l 1,28,-1
 863 228 l 1,29,-1
 809 0 l 1,30,-1
 636 0 l 1,31,-1
 583 228 l 1,0,-1
352 358 m 1,32,-1
 359 390 l 1,33,-1
 261 390 l 1,34,-1
 267 357 l 1,35,-1
 305 165 l 1,36,-1
 308 165 l 1,37,-1
 352 358 l 1,32,-1
723 165 m 1,38,-1
 760 355 l 1,39,-1
 767 390 l 1,40,-1
 669 390 l 1,41,-1
 676 361 l 1,42,-1
 720 165 l 1,43,-1
 723 165 l 1,38,-1
458 314 m 1,44,-1
 563 314 l 1,45,-1
 554 353 l 1,46,-1
 512 533 l 1,47,-1
 509 533 l 1,48,-1
 467 354 l 1,49,-1
 458 314 l 1,44,-1
EndSplineSet
Validated: 1
EndChar

StartChar: uni20AA
Encoding: 8362 8362 166
Width: 916
Flags: W
LayerCount: 2
Fore
SplineSet
286 505 m 1,0,-1
 421 505 l 1,1,-1
 421 123 l 1,2,-1
 637 123 l 2,3,4
 672 123 672 123 688 144.5 c 128,-1,5
 704 166 704 166 704 199 c 2,6,-1
 704 698 l 1,7,-1
 839 698 l 1,8,-1
 839 198 l 2,9,10
 839 98 839 98 788.5 49 c 128,-1,11
 738 0 738 0 657 0 c 2,12,-1
 286 0 l 1,13,-1
 286 505 l 1,0,-1
77 0 m 1,14,-1
 77 698 l 1,15,-1
 448 698 l 2,16,17
 529 698 529 698 579.5 649 c 128,-1,18
 630 600 630 600 630 500 c 2,19,-1
 630 191 l 1,20,-1
 495 191 l 1,21,-1
 495 499 l 2,22,23
 495 532 495 532 480 553.5 c 128,-1,24
 465 575 465 575 428 575 c 2,25,-1
 212 575 l 1,26,-1
 212 0 l 1,27,-1
 77 0 l 1,14,-1
EndSplineSet
Validated: 1
EndChar

StartChar: uni20AB
Encoding: 8363 8363 167
Width: 576
Flags: W
LayerCount: 2
Fore
SplineSet
338 238 m 1,0,-1
 332 238 l 1,1,2
 324 222 324 222 313 207.5 c 128,-1,3
 302 193 302 193 286 181.5 c 128,-1,4
 270 170 270 170 248 163.5 c 128,-1,5
 226 157 226 157 198 157 c 0,6,7
 162 157 162 157 132.5 168 c 128,-1,8
 103 179 103 179 81.5 202.5 c 128,-1,9
 60 226 60 226 48 262.5 c 128,-1,10
 36 299 36 299 36 349 c 256,11,12
 36 399 36 399 48 435.5 c 128,-1,13
 60 472 60 472 81.5 495.5 c 128,-1,14
 103 519 103 519 132.5 530 c 128,-1,15
 162 541 162 541 198 541 c 0,16,17
 255 541 255 541 285.5 517.5 c 128,-1,18
 316 494 316 494 332 459 c 1,19,-1
 338 459 l 1,20,-1
 338 593 l 1,21,-1
 216 593 l 1,22,-1
 216 683 l 1,23,-1
 338 683 l 1,24,-1
 338 740 l 1,25,-1
 486 740 l 1,26,-1
 486 683 l 1,27,-1
 545 683 l 1,28,-1
 545 593 l 1,29,-1
 486 593 l 1,30,-1
 486 165 l 1,31,-1
 338 165 l 1,32,-1
 338 238 l 1,0,-1
259 261 m 256,33,34
 298 261 298 261 318 278 c 128,-1,35
 338 295 338 295 338 316 c 2,36,-1
 338 383 l 2,37,38
 338 404 338 404 318 421 c 128,-1,39
 298 438 298 438 259 438 c 256,40,41
 220 438 220 438 200 418 c 128,-1,42
 180 398 180 398 180 366 c 2,43,-1
 180 333 l 2,44,45
 180 301 180 301 200 281 c 128,-1,46
 220 261 220 261 259 261 c 256,33,34
53 0 m 1,47,-1
 53 105 l 1,48,-1
 504 105 l 1,49,-1
 504 0 l 1,50,-1
 53 0 l 1,47,-1
EndSplineSet
Validated: 1
EndChar

StartChar: uni20AD
Encoding: 8365 8365 168
Width: 684
Flags: W
LayerCount: 2
Fore
SplineSet
247 0 m 1,0,-1
 95 0 l 1,1,-1
 95 291 l 1,2,-1
 6 291 l 1,3,-1
 6 411 l 1,4,-1
 95 411 l 1,5,-1
 95 698 l 1,6,-1
 247 698 l 1,7,-1
 247 411 l 1,8,-1
 285 411 l 1,9,-1
 473 698 l 1,10,-1
 645 698 l 1,11,-1
 443 411 l 1,12,-1
 624 411 l 1,13,-1
 624 291 l 1,14,-1
 456 291 l 1,15,-1
 672 0 l 1,16,-1
 492 0 l 1,17,-1
 287 291 l 1,18,-1
 247 291 l 1,19,-1
 247 0 l 1,0,-1
EndSplineSet
Validated: 1
EndChar

StartChar: uni20AE
Encoding: 8366 8366 169
Width: 604
Flags: W
LayerCount: 2
Fore
SplineSet
378 208 m 1,0,-1
 378 0 l 1,1,-1
 226 0 l 1,2,-1
 226 136 l 1,3,-1
 106 79 l 1,4,-1
 106 169 l 1,5,-1
 226 226 l 1,6,-1
 226 293 l 1,7,-1
 106 237 l 1,8,-1
 106 326 l 1,9,-1
 226 383 l 1,10,-1
 226 575 l 1,11,-1
 37 575 l 1,12,-1
 37 698 l 1,13,-1
 567 698 l 1,14,-1
 567 575 l 1,15,-1
 378 575 l 1,16,-1
 378 455 l 1,17,-1
 499 512 l 1,18,-1
 499 422 l 1,19,-1
 378 365 l 1,20,-1
 378 298 l 1,21,-1
 499 355 l 1,22,-1
 499 265 l 1,23,-1
 378 208 l 1,0,-1
EndSplineSet
Validated: 1
EndChar

StartChar: uni20B1
Encoding: 8369 8369 170
Width: 698
Flags: W
LayerCount: 2
Fore
SplineSet
257 0 m 1,0,-1
 105 0 l 1,1,-1
 105 311 l 1,2,-1
 16 311 l 1,3,-1
 16 391 l 1,4,-1
 105 391 l 1,5,-1
 105 459 l 1,6,-1
 16 459 l 1,7,-1
 16 539 l 1,8,-1
 105 539 l 1,9,-1
 105 698 l 1,10,-1
 387 698 l 2,11,12
 463 698 463 698 513.5 661.5 c 128,-1,13
 564 625 564 625 583 539 c 1,14,-1
 682 539 l 1,15,-1
 682 459 l 1,16,-1
 592 459 l 1,17,18
 593 451 593 451 593 443.5 c 128,-1,19
 593 436 593 436 593 428 c 0,20,21
 593 418 593 418 593 409 c 128,-1,22
 593 400 593 400 592 391 c 1,23,-1
 682 391 l 1,24,-1
 682 311 l 1,25,-1
 580 311 l 1,26,27
 560 230 560 230 510.5 190.5 c 128,-1,28
 461 151 461 151 386 151 c 2,29,-1
 257 151 l 1,30,-1
 257 0 l 1,0,-1
257 533 m 1,31,-1
 439 533 l 1,32,33
 434 562 434 562 415.5 579 c 128,-1,34
 397 596 397 596 368 596 c 2,35,-1
 257 596 l 1,36,-1
 257 533 l 1,31,-1
441 387 m 1,37,-1
 441 463 l 1,38,-1
 257 463 l 1,39,-1
 257 387 l 1,40,-1
 441 387 l 1,37,-1
368 251 m 2,41,42
 397 251 397 251 415.5 268.5 c 128,-1,43
 434 286 434 286 439 317 c 1,44,-1
 257 317 l 1,45,-1
 257 251 l 1,46,-1
 368 251 l 2,41,42
EndSplineSet
Validated: 1
EndChar

StartChar: uni20B2
Encoding: 8370 8370 171
Width: 667
Flags: W
LayerCount: 2
Fore
SplineSet
197 -82 m 1,0,-1
 217 32 l 1,1,2
 143 65 143 65 96.5 144.5 c 128,-1,3
 50 224 50 224 50 348 c 0,4,5
 50 427 50 427 70 489 c 128,-1,6
 90 551 90 551 127 594.5 c 128,-1,7
 164 638 164 638 216 662 c 128,-1,8
 268 686 268 686 332 689 c 1,9,-1
 347 780 l 1,10,-1
 462 780 l 1,11,-1
 444 676 l 1,12,13
 550 644 550 644 603 537 c 1,14,-1
 486 483 l 1,15,16
 476 509 476 509 458.5 529.5 c 128,-1,17
 441 550 441 550 414 562 c 1,18,-1
 384 387 l 1,19,-1
 615 387 l 1,20,-1
 615 250 l 2,21,22
 615 184 615 184 587.5 138 c 128,-1,23
 560 92 560 92 518 63 c 128,-1,24
 476 34 476 34 426.5 21 c 128,-1,25
 377 8 377 8 333 8 c 2,26,-1
 328 8 l 1,27,-1
 312 -82 l 1,28,-1
 197 -82 l 1,0,-1
202 297 m 2,29,30
 202 247 202 247 214 213 c 128,-1,31
 226 179 226 179 248 158 c 1,32,-1
 321 573 l 1,33,34
 265 563 265 563 233.5 518.5 c 128,-1,35
 202 474 202 474 202 402 c 2,36,-1
 202 297 l 2,29,30
364 272 m 1,37,-1
 338 123 l 1,38,-1
 345 123 l 2,39,40
 372 123 372 123 396 130 c 128,-1,41
 420 137 420 137 438 152 c 128,-1,42
 456 167 456 167 467 190 c 128,-1,43
 478 213 478 213 478 245 c 2,44,-1
 478 272 l 1,45,-1
 364 272 l 1,37,-1
EndSplineSet
Validated: 1
EndChar

StartChar: uni20B4
Encoding: 8372 8372 172
Width: 644
Flags: W
LayerCount: 2
Fore
SplineSet
335 -12 m 0,0,1
 278 -12 278 -12 235.5 5 c 128,-1,2
 193 22 193 22 164.5 51 c 128,-1,3
 136 80 136 80 121.5 118 c 128,-1,4
 107 156 107 156 107 199 c 0,5,6
 107 207 107 207 107.5 214 c 128,-1,7
 108 221 108 221 109 228 c 1,8,-1
 38 228 l 1,9,-1
 38 318 l 1,10,-1
 146 318 l 1,11,-1
 275 386 l 1,12,-1
 38 386 l 1,13,-1
 38 476 l 1,14,-1
 397 476 l 1,15,16
 402 491 402 491 402 508 c 0,17,18
 402 551 402 551 379.5 570 c 128,-1,19
 357 589 357 589 316 589 c 0,20,21
 280 589 280 589 247.5 574.5 c 128,-1,22
 215 560 215 560 192 534 c 1,23,-1
 118 627 l 1,24,25
 150 664 150 664 204.5 687 c 128,-1,26
 259 710 259 710 322 710 c 0,27,28
 373 710 373 710 413 695 c 128,-1,29
 453 680 453 680 480.5 654 c 128,-1,30
 508 628 508 628 522.5 594 c 128,-1,31
 537 560 537 560 537 523 c 0,32,33
 537 512 537 512 536 500 c 128,-1,34
 535 488 535 488 532 476 c 1,35,-1
 606 476 l 1,36,-1
 606 386 l 1,37,-1
 487 386 l 1,38,-1
 363 318 l 1,39,-1
 606 318 l 1,40,-1
 606 228 l 1,41,-1
 245 228 l 1,42,43
 242 216 242 216 242 203 c 0,44,45
 242 154 242 154 268.5 130 c 128,-1,46
 295 106 295 106 341 106 c 0,47,48
 376 106 376 106 408 122 c 128,-1,49
 440 138 440 138 476 177 c 1,50,-1
 552 84 l 1,51,52
 517 42 517 42 462 15 c 128,-1,53
 407 -12 407 -12 335 -12 c 0,0,1
EndSplineSet
Validated: 1
EndChar

StartChar: uni20B5
Encoding: 8373 8373 173
Width: 607
Flags: W
LayerCount: 2
Fore
SplineSet
199 -82 m 1,0,-1
 219 36 l 1,1,2
 141 72 141 72 95.5 152 c 128,-1,3
 50 232 50 232 50 349 c 0,4,5
 50 425 50 425 70.5 486.5 c 128,-1,6
 91 548 91 548 128.5 591.5 c 128,-1,7
 166 635 166 635 218 660 c 128,-1,8
 270 685 270 685 333 689 c 1,9,-1
 349 780 l 1,10,-1
 464 780 l 1,11,-1
 446 678 l 1,12,13
 493 664 493 664 524.5 636.5 c 128,-1,14
 556 609 556 609 578 576 c 1,15,-1
 475 502 l 1,16,17
 452 542 452 542 415 561 c 1,18,-1
 339 123 l 1,19,-1
 352 123 l 2,20,21
 431 123 431 123 474 203 c 1,22,-1
 577 128 l 1,23,24
 563 107 563 107 543.5 85.5 c 128,-1,25
 524 64 524 64 496.5 46.5 c 128,-1,26
 469 29 469 29 433.5 18.5 c 128,-1,27
 398 8 398 8 352 8 c 2,28,-1
 329 8 l 1,29,-1
 314 -82 l 1,30,-1
 199 -82 l 1,0,-1
202 292 m 2,31,32
 202 250 202 250 214.5 218 c 128,-1,33
 227 186 227 186 250 164 c 1,34,-1
 322 573 l 1,35,36
 270 562 270 562 236 519 c 128,-1,37
 202 476 202 476 202 407 c 2,38,-1
 202 292 l 2,31,32
EndSplineSet
Validated: 1
EndChar

StartChar: uni20B8
Encoding: 8376 8376 174
Width: 604
Flags: W
LayerCount: 2
Fore
SplineSet
37 593 m 1,0,-1
 37 698 l 1,1,-1
 567 698 l 1,2,-1
 567 593 l 1,3,-1
 37 593 l 1,0,-1
378 406 m 1,4,-1
 378 0 l 1,5,-1
 226 0 l 1,6,-1
 226 406 l 1,7,-1
 37 406 l 1,8,-1
 37 511 l 1,9,-1
 567 511 l 1,10,-1
 567 406 l 1,11,-1
 378 406 l 1,4,-1
EndSplineSet
Validated: 1
EndChar

StartChar: uni20B9
Encoding: 8377 8377 175
Width: 629
Flags: W
LayerCount: 2
Fore
SplineSet
346 0 m 1,0,-1
 181 219 l 1,1,-1
 62 219 l 1,2,-1
 62 324 l 1,3,-1
 223 324 l 2,4,5
 314 324 314 324 321 406 c 1,6,-1
 62 406 l 1,7,-1
 62 511 l 1,8,-1
 321 511 l 1,9,10
 317 560 317 560 293 576.5 c 128,-1,11
 269 593 269 593 223 593 c 2,12,-1
 62 593 l 1,13,-1
 62 698 l 1,14,-1
 592 698 l 1,15,-1
 592 593 l 1,16,-1
 388 593 l 1,17,-1
 388 589 l 1,18,19
 411 586 411 586 432.5 565 c 128,-1,20
 454 544 454 544 465 511 c 1,21,-1
 592 511 l 1,22,-1
 592 406 l 1,23,-1
 469 406 l 1,24,25
 460 347 460 347 429.5 302 c 128,-1,26
 399 257 399 257 342 235 c 1,27,-1
 531 0 l 1,28,-1
 346 0 l 1,0,-1
EndSplineSet
Validated: 1
EndChar

StartChar: uni20BA
Encoding: 8378 8378 176
Width: 611
Flags: W
LayerCount: 2
Fore
SplineSet
105 213 m 1,0,-1
 17 171 l 1,1,-1
 17 261 l 1,2,-1
 105 303 l 1,3,-1
 105 371 l 1,4,-1
 17 329 l 1,5,-1
 17 418 l 1,6,-1
 105 460 l 1,7,-1
 105 698 l 1,8,-1
 257 698 l 1,9,-1
 257 532 l 1,10,-1
 408 604 l 1,11,-1
 408 514 l 1,12,-1
 257 443 l 1,13,-1
 257 375 l 1,14,-1
 408 446 l 1,15,-1
 408 357 l 1,16,-1
 257 285 l 1,17,-1
 257 123 l 1,18,-1
 306 123 l 2,19,20
 340 123 340 123 365 131 c 128,-1,21
 390 139 390 139 406.5 160 c 128,-1,22
 423 181 423 181 431.5 216 c 128,-1,23
 440 251 440 251 440 305 c 1,24,-1
 585 305 l 1,25,26
 585 241 585 241 570 185.5 c 128,-1,27
 555 130 555 130 523.5 88.5 c 128,-1,28
 492 47 492 47 442.5 23.5 c 128,-1,29
 393 0 393 0 325 0 c 2,30,-1
 105 0 l 1,31,-1
 105 213 l 1,0,-1
EndSplineSet
Validated: 1
EndChar

StartChar: uni20BD
Encoding: 8381 8381 177
Width: 661
Flags: W
LayerCount: 2
Fore
SplineSet
256 103 m 1,0,-1
 256 0 l 1,1,-1
 104 0 l 1,2,-1
 104 103 l 1,3,-1
 16 103 l 1,4,-1
 16 208 l 1,5,-1
 104 208 l 1,6,-1
 104 290 l 1,7,-1
 16 290 l 1,8,-1
 16 395 l 1,9,-1
 104 395 l 1,10,-1
 104 698 l 1,11,-1
 415 698 l 2,12,13
 513 698 513 698 569 645 c 128,-1,14
 625 592 625 592 625 494 c 256,15,16
 625 396 625 396 569 343 c 128,-1,17
 513 290 513 290 415 290 c 2,18,-1
 256 290 l 1,19,-1
 256 208 l 1,20,-1
 470 208 l 1,21,-1
 470 103 l 1,22,-1
 256 103 l 1,0,-1
256 395 m 1,23,-1
 396 395 l 2,24,25
 431 395 431 395 450 413.5 c 128,-1,26
 469 432 469 432 469 466 c 2,27,-1
 469 510 l 2,28,29
 469 544 469 544 449.5 559.5 c 128,-1,30
 430 575 430 575 396 575 c 2,31,-1
 256 575 l 1,32,-1
 256 395 l 1,23,-1
EndSplineSet
Validated: 1
EndChar

StartChar: uni20BF
Encoding: 8383 8383 178
Width: 665
Flags: W
LayerCount: 2
Fore
SplineSet
354 20 m 1,0,-1
 287 20 l 1,1,-1
 287 -82 l 1,2,-1
 177 -82 l 1,3,-1
 177 20 l 1,4,-1
 77 20 l 1,5,-1
 77 678 l 1,6,-1
 177 678 l 1,7,-1
 177 780 l 1,8,-1
 287 780 l 1,9,-1
 287 678 l 1,10,-1
 354 678 l 1,11,-1
 354 780 l 1,12,-1
 464 780 l 1,13,-1
 464 675 l 1,14,15
 529 664 529 664 564.5 620.5 c 128,-1,16
 600 577 600 577 600 509 c 0,17,18
 600 440 600 440 569 408 c 128,-1,19
 538 376 538 376 472 368 c 1,20,-1
 472 362 l 1,21,22
 506 360 506 360 534 350 c 128,-1,23
 562 340 562 340 582.5 321.5 c 128,-1,24
 603 303 603 303 614 275 c 128,-1,25
 625 247 625 247 625 208 c 0,26,27
 625 170 625 170 613 136.5 c 128,-1,28
 601 103 601 103 579 78 c 128,-1,29
 557 53 557 53 527.5 37.5 c 128,-1,30
 498 22 498 22 464 20 c 1,31,-1
 464 -82 l 1,32,-1
 354 -82 l 1,33,-1
 354 20 l 1,0,-1
220 408 m 1,34,-1
 391 408 l 2,35,36
 420 408 420 408 436 422.5 c 128,-1,37
 452 437 452 437 452 466 c 2,38,-1
 452 499 l 2,39,40
 452 528 452 528 436 542.5 c 128,-1,41
 420 557 420 557 391 557 c 2,42,-1
 220 557 l 1,43,-1
 220 408 l 1,34,-1
220 141 m 1,44,-1
 415 141 l 2,45,46
 444 141 444 141 460.5 156 c 128,-1,47
 477 171 477 171 477 200 c 2,48,-1
 477 233 l 2,49,50
 477 262 477 262 460.5 277 c 128,-1,51
 444 292 444 292 415 292 c 2,52,-1
 220 292 l 1,53,-1
 220 141 l 1,44,-1
EndSplineSet
Validated: 1
EndChar

StartChar: fi
Encoding: 64257 64257 179
Width: 647
GlyphClass: 3
Flags: W
LayerCount: 2
Fore
SplineSet
95 410 m 1,0,-1
 21 410 l 1,1,-1
 21 525 l 1,2,-1
 95 525 l 1,3,-1
 95 587 l 2,4,5
 95 663 95 663 135 701.5 c 128,-1,6
 175 740 175 740 252 740 c 2,7,-1
 348 740 l 1,8,-1
 348 625 l 1,9,-1
 243 625 l 1,10,-1
 243 525 l 1,11,-1
 578 525 l 1,12,-1
 578 0 l 1,13,-1
 430 0 l 1,14,-1
 430 410 l 1,15,-1
 243 410 l 1,16,-1
 243 0 l 1,17,-1
 95 0 l 1,18,-1
 95 410 l 1,0,-1
504 581 m 256,19,20
 459 581 459 581 438.5 601.5 c 128,-1,21
 418 622 418 622 418 654 c 2,22,-1
 418 676 l 2,23,24
 418 708 418 708 438.5 728.5 c 128,-1,25
 459 749 459 749 504 749 c 256,26,27
 549 749 549 749 569.5 728.5 c 128,-1,28
 590 708 590 708 590 676 c 2,29,-1
 590 654 l 2,30,31
 590 622 590 622 569.5 601.5 c 128,-1,32
 549 581 549 581 504 581 c 256,19,20
EndSplineSet
Validated: 1
Ligature2: "'liga' Standard Ligatures lookup 17 subtable" f i
EndChar

StartChar: aogonek
Encoding: 261 261 189
Width: 569
Flags: W
LayerCount: 2
Fore
SplineSet
539 0 m 1,0,1
 502 -23 502 -23 479.5 -38.5 c 128,-1,2
 457 -54 457 -54 445 -66 c 128,-1,3
 433 -78 433 -78 429 -87 c 128,-1,4
 425 -96 425 -96 425 -105 c 0,5,6
 425 -124 425 -124 436.5 -131 c 128,-1,7
 448 -138 448 -138 463 -138 c 0,8,9
 481 -138 481 -138 494 -130 c 128,-1,10
 507 -122 507 -122 518 -110 c 1,11,-1
 571 -161 l 1,12,13
 558 -185 558 -185 527.5 -198.5 c 128,-1,14
 497 -212 497 -212 449 -212 c 0,15,16
 424 -212 424 -212 401.5 -207.5 c 128,-1,17
 379 -203 379 -203 362 -193.5 c 128,-1,18
 345 -184 345 -184 335 -167.5 c 128,-1,19
 325 -151 325 -151 325 -127 c 0,20,21
 325 -85 325 -85 356.5 -57.5 c 128,-1,22
 388 -30 388 -30 444 -4 c 1,23,-1
 442 1 l 1,24,25
 408 6 408 6 385.5 30 c 128,-1,26
 363 54 363 54 357 92 c 1,27,-1
 351 92 l 1,28,29
 339 41 339 41 298 14.5 c 128,-1,30
 257 -12 257 -12 197 -12 c 0,31,32
 118 -12 118 -12 76 30 c 128,-1,33
 34 72 34 72 34 141 c 0,34,35
 34 224 34 224 94.5 264.5 c 128,-1,36
 155 305 155 305 259 305 c 2,37,-1
 342 305 l 1,38,-1
 342 338 l 2,39,40
 342 376 342 376 322 398.5 c 128,-1,41
 302 421 302 421 255 421 c 0,42,43
 211 421 211 421 185 402 c 128,-1,44
 159 383 159 383 142 359 c 1,45,-1
 54 437 l 1,46,47
 86 484 86 484 134.5 510.5 c 128,-1,48
 183 537 183 537 266 537 c 0,49,50
 378 537 378 537 434 488 c 128,-1,51
 490 439 490 439 490 345 c 2,52,-1
 490 116 l 1,53,-1
 539 116 l 1,54,-1
 539 0 l 1,0,1
270 221 m 2,55,56
 183 221 183 221 183 162 c 2,57,-1
 183 147 l 2,58,59
 183 118 183 118 201 104.5 c 128,-1,60
 219 91 219 91 252 91 c 0,61,62
 289 91 289 91 315.5 107 c 128,-1,63
 342 123 342 123 342 159 c 2,64,-1
 342 221 l 1,65,-1
 270 221 l 2,55,56
EndSplineSet
Validated: 1
Substitution2: "'salt' Stylistic Alternatives lookup 16 subtable" aogonek.alt01
Substitution2: "'ss01' Style Set 1 lookup 11 subtable" aogonek.alt01
Substitution2: "'aalt' Access All Alternates lookup 0 subtable" aogonek.alt01
EndChar

StartChar: aogonek.alt01
Encoding: 65550 -1 211
Width: 608
Flags: W
LayerCount: 2
Fore
SplineSet
539 0 m 1,0,1
 502 -23 502 -23 479.5 -38.5 c 128,-1,2
 457 -54 457 -54 445 -66 c 128,-1,3
 433 -78 433 -78 429 -87 c 128,-1,4
 425 -96 425 -96 425 -105 c 0,5,6
 425 -124 425 -124 436.5 -131 c 128,-1,7
 448 -138 448 -138 463 -138 c 0,8,9
 481 -138 481 -138 494 -130 c 128,-1,10
 507 -122 507 -122 518 -110 c 1,11,-1
 571 -161 l 1,12,13
 558 -185 558 -185 527.5 -198.5 c 128,-1,14
 497 -212 497 -212 449 -212 c 0,15,16
 424 -212 424 -212 401.5 -207.5 c 128,-1,17
 379 -203 379 -203 362 -193.5 c 128,-1,18
 345 -184 345 -184 335 -167.5 c 128,-1,19
 325 -151 325 -151 325 -127 c 0,20,21
 325 -85 325 -85 356.5 -57.5 c 128,-1,22
 388 -30 388 -30 444 -4 c 1,23,-1
 443 0 l 1,24,-1
 391 0 l 1,25,-1
 391 88 l 1,26,-1
 386 88 l 1,27,28
 380 67 380 67 367 48.5 c 128,-1,29
 354 30 354 30 335.5 16.5 c 128,-1,30
 317 3 317 3 293.5 -4.5 c 128,-1,31
 270 -12 270 -12 245 -12 c 0,32,33
 145 -12 145 -12 94 58.5 c 128,-1,34
 43 129 43 129 43 263 c 256,35,36
 43 397 43 397 94 467 c 128,-1,37
 145 537 145 537 245 537 c 0,38,39
 296 537 296 537 335.5 509 c 128,-1,40
 375 481 375 481 386 437 c 1,41,-1
 391 437 l 1,42,-1
 391 525 l 1,43,-1
 539 525 l 1,44,-1
 539 0 l 1,0,1
294 108 m 256,45,46
 336 108 336 108 363.5 128.5 c 128,-1,47
 391 149 391 149 391 185 c 2,48,-1
 391 340 l 2,49,50
 391 376 391 376 363.5 396.5 c 128,-1,51
 336 417 336 417 294 417 c 256,52,53
 252 417 252 417 224.5 387.5 c 128,-1,54
 197 358 197 358 197 308 c 2,55,-1
 197 217 l 2,56,57
 197 167 197 167 224.5 137.5 c 128,-1,58
 252 108 252 108 294 108 c 256,45,46
EndSplineSet
Validated: 1
EndChar

StartChar: ae
Encoding: 230 230 225
Width: 864
GlyphClass: 2
Flags: W
AnchorPoint: "Anchor-2" 432 540 basechar 0
LayerCount: 2
Fore
SplineSet
270 225 m 2,0,1
 230 225 230 225 206.5 210 c 128,-1,2
 183 195 183 195 183 166 c 2,3,-1
 183 152 l 2,4,5
 183 91 183 91 254 91 c 0,6,7
 289 91 289 91 315.5 107 c 128,-1,8
 342 123 342 123 342 159 c 2,9,-1
 342 225 l 1,10,-1
 270 225 l 2,0,1
675 312 m 1,11,-1
 675 321 l 2,12,13
 675 369 675 369 653.5 398.5 c 128,-1,14
 632 428 632 428 587 428 c 256,15,16
 542 428 542 428 516.5 398.5 c 128,-1,17
 491 369 491 369 491 320 c 2,18,-1
 491 312 l 1,19,-1
 675 312 l 1,11,-1
610 106 m 0,20,21
 656 106 656 106 686.5 125 c 128,-1,22
 717 144 717 144 739 167 c 1,23,-1
 813 75 l 1,24,25
 778 34 778 34 721.5 11 c 128,-1,26
 665 -12 665 -12 593 -12 c 0,27,28
 518 -12 518 -12 464 17.5 c 128,-1,29
 410 47 410 47 389 91 c 1,30,-1
 383 91 l 1,31,32
 375 70 375 70 360.5 51 c 128,-1,33
 346 32 346 32 323.5 18 c 128,-1,34
 301 4 301 4 270 -4 c 128,-1,35
 239 -12 239 -12 198 -12 c 0,36,37
 158 -12 158 -12 127.5 -0.5 c 128,-1,38
 97 11 97 11 76 32 c 128,-1,39
 55 53 55 53 44.5 81.5 c 128,-1,40
 34 110 34 110 34 144 c 0,41,42
 34 186 34 186 50.5 217.5 c 128,-1,43
 67 249 67 249 97 270 c 128,-1,44
 127 291 127 291 168.5 301.5 c 128,-1,45
 210 312 210 312 259 312 c 2,46,-1
 342 312 l 1,47,-1
 342 338 l 2,48,49
 342 376 342 376 322 398.5 c 128,-1,50
 302 421 302 421 255 421 c 0,51,52
 211 421 211 421 185 402 c 128,-1,53
 159 383 159 383 142 359 c 1,54,-1
 54 437 l 1,55,56
 86 484 86 484 134.5 510.5 c 128,-1,57
 183 537 183 537 266 537 c 0,58,59
 314 537 314 537 351.5 519.5 c 128,-1,60
 389 502 389 502 414 463 c 1,61,-1
 420 463 l 1,62,63
 444 501 444 501 487.5 519 c 128,-1,64
 531 537 531 537 588 537 c 0,65,66
 653 537 653 537 699 515 c 128,-1,67
 745 493 745 493 773.5 456 c 128,-1,68
 802 419 802 419 815 370.5 c 128,-1,69
 828 322 828 322 828 269 c 2,70,-1
 828 225 l 1,71,-1
 490 225 l 1,72,-1
 490 217 l 2,73,74
 490 166 490 166 521.5 136 c 128,-1,75
 553 106 553 106 610 106 c 0,20,21
EndSplineSet
Validated: 1
EndChar

StartChar: ccedilla
Encoding: 231 231 229
Width: 517
Flags: W
LayerCount: 2
Fore
SplineSet
281 537 m 0,0,1
 361 537 361 537 414.5 501 c 128,-1,2
 468 465 468 465 491 400 c 1,3,-1
 371 348 l 1,4,5
 364 378 364 378 342 399 c 128,-1,6
 320 420 320 420 281 420 c 0,7,8
 236 420 236 420 213 390.5 c 128,-1,9
 190 361 190 361 190 311 c 2,10,-1
 190 213 l 2,11,12
 190 163 190 163 213 134 c 128,-1,13
 236 105 236 105 281 105 c 0,14,15
 321 105 321 105 344.5 126.5 c 128,-1,16
 368 148 368 148 379 183 c 1,17,-1
 494 133 l 1,18,19
 468 60 468 60 416 25 c 128,-1,20
 364 -10 364 -10 291 -12 c 1,21,-1
 282 -55 l 1,22,-1
 286 -59 l 1,23,24
 298 -56 298 -56 310 -54 c 128,-1,25
 322 -52 322 -52 334 -52 c 0,26,27
 364 -52 364 -52 385.5 -68 c 128,-1,28
 407 -84 407 -84 407 -121 c 0,29,30
 407 -147 407 -147 396 -164 c 128,-1,31
 385 -181 385 -181 366.5 -192 c 128,-1,32
 348 -203 348 -203 324 -207.5 c 128,-1,33
 300 -212 300 -212 275 -212 c 0,34,35
 223 -212 223 -212 193.5 -197.5 c 128,-1,36
 164 -183 164 -183 151 -168 c 1,37,-1
 197 -112 l 1,38,39
 207 -124 207 -124 223.5 -132.5 c 128,-1,40
 240 -141 240 -141 263 -141 c 0,41,42
 282 -141 282 -141 294.5 -135 c 128,-1,43
 307 -129 307 -129 307 -116 c 0,44,45
 307 -110 307 -110 304 -104 c 128,-1,46
 301 -98 301 -98 292.5 -92.5 c 128,-1,47
 284 -87 284 -87 269.5 -82.5 c 128,-1,48
 255 -78 255 -78 232 -76 c 2,49,-1
 211 -74 l 1,50,-1
 225 -7 l 1,51,52
 133 10 133 10 84.5 81 c 128,-1,53
 36 152 36 152 36 263 c 0,54,55
 36 326 36 326 52 376.5 c 128,-1,56
 68 427 68 427 99 463 c 128,-1,57
 130 499 130 499 176 518 c 128,-1,58
 222 537 222 537 281 537 c 0,0,1
EndSplineSet
Validated: 1
EndChar

StartChar: dcroat
Encoding: 273 273 233
Width: 611
Flags: W
LayerCount: 2
Fore
SplineSet
391 88 m 1,0,-1
 386 88 l 1,1,2
 380 67 380 67 367 48.5 c 128,-1,3
 354 30 354 30 335.5 16.5 c 128,-1,4
 317 3 317 3 293.5 -4.5 c 128,-1,5
 270 -12 270 -12 245 -12 c 0,6,7
 145 -12 145 -12 94 58.5 c 128,-1,8
 43 129 43 129 43 263 c 256,9,10
 43 397 43 397 94 467 c 128,-1,11
 145 537 145 537 245 537 c 0,12,13
 296 537 296 537 335.5 509 c 128,-1,14
 375 481 375 481 386 437 c 1,15,-1
 391 437 l 1,16,-1
 391 590 l 1,17,-1
 250 590 l 1,18,-1
 250 690 l 1,19,-1
 391 690 l 1,20,-1
 391 740 l 1,21,-1
 539 740 l 1,22,-1
 539 690 l 1,23,-1
 600 690 l 1,24,-1
 600 590 l 1,25,-1
 539 590 l 1,26,-1
 539 0 l 1,27,-1
 391 0 l 1,28,-1
 391 88 l 1,0,-1
294 108 m 256,29,30
 336 108 336 108 363.5 128.5 c 128,-1,31
 391 149 391 149 391 185 c 2,32,-1
 391 340 l 2,33,34
 391 376 391 376 363.5 396.5 c 128,-1,35
 336 417 336 417 294 417 c 256,36,37
 252 417 252 417 224.5 387.5 c 128,-1,38
 197 358 197 358 197 308 c 2,39,-1
 197 217 l 2,40,41
 197 167 197 167 224.5 137.5 c 128,-1,42
 252 108 252 108 294 108 c 256,29,30
EndSplineSet
Validated: 1
EndChar

StartChar: eth
Encoding: 240 240 234
Width: 603
Flags: W
LayerCount: 2
Fore
SplineSet
479 693 m 1,0,-1
 406 649 l 1,1,2
 478 574 478 574 516.5 480.5 c 128,-1,3
 555 387 555 387 555 278 c 0,4,5
 555 202 555 202 536.5 147 c 128,-1,6
 518 92 518 92 484.5 57 c 128,-1,7
 451 22 451 22 404.5 5 c 128,-1,8
 358 -12 358 -12 301 -12 c 0,9,10
 240 -12 240 -12 191.5 6.5 c 128,-1,11
 143 25 143 25 109.5 59 c 128,-1,12
 76 93 76 93 58.5 142 c 128,-1,13
 41 191 41 191 41 253 c 0,14,15
 41 309 41 309 55 354.5 c 128,-1,16
 69 400 69 400 95 432.5 c 128,-1,17
 121 465 121 465 157.5 482.5 c 128,-1,18
 194 500 194 500 239 500 c 0,19,20
 295 500 295 500 333 473.5 c 128,-1,21
 371 447 371 447 395 402 c 1,22,-1
 402 405 l 1,23,24
 388 453 388 453 359.5 496.5 c 128,-1,25
 331 540 331 540 290 581 c 1,26,-1
 201 528 l 1,27,-1
 150 588 l 1,28,-1
 230 635 l 1,29,30
 193 665 193 665 153 691 c 128,-1,31
 113 717 113 717 71 740 c 1,32,-1
 297 740 l 1,33,34
 310 732 310 732 322 722.5 c 128,-1,35
 334 713 334 713 346 704 c 1,36,-1
 429 753 l 1,37,-1
 479 693 l 1,0,-1
298 98 m 256,38,39
 346 98 346 98 374 128.5 c 128,-1,40
 402 159 402 159 402 216 c 2,41,-1
 402 270 l 2,42,43
 402 327 402 327 374 357.5 c 128,-1,44
 346 388 346 388 298 388 c 256,45,46
 250 388 250 388 222 357.5 c 128,-1,47
 194 327 194 327 194 270 c 2,48,-1
 194 216 l 2,49,50
 194 159 194 159 222 128.5 c 128,-1,51
 250 98 250 98 298 98 c 256,38,39
EndSplineSet
Validated: 1
EndChar

StartChar: eogonek
Encoding: 281 281 245
Width: 562
Flags: W
LayerCount: 2
Fore
SplineSet
336 -212 m 0,0,1
 312 -212 312 -212 290 -207.5 c 128,-1,2
 268 -203 268 -203 251 -193.5 c 128,-1,3
 234 -184 234 -184 224 -168 c 128,-1,4
 214 -152 214 -152 214 -128 c 0,5,6
 214 -86 214 -86 245 -60.5 c 128,-1,7
 276 -35 276 -35 328 -12 c 1,8,-1
 327 -8 l 1,9,10
 313 -11 313 -11 302.5 -11.5 c 128,-1,11
 292 -12 292 -12 283 -12 c 0,12,13
 224 -12 224 -12 178 7.5 c 128,-1,14
 132 27 132 27 100.5 62.5 c 128,-1,15
 69 98 69 98 52.5 149 c 128,-1,16
 36 200 36 200 36 263 c 0,17,18
 36 325 36 325 52 375.5 c 128,-1,19
 68 426 68 426 99.5 462 c 128,-1,20
 131 498 131 498 177 517.5 c 128,-1,21
 223 537 223 537 282 537 c 0,22,23
 347 537 347 537 393.5 515 c 128,-1,24
 440 493 440 493 469.5 456 c 128,-1,25
 499 419 499 419 512.5 370.5 c 128,-1,26
 526 322 526 322 526 269 c 2,27,-1
 526 225 l 1,28,-1
 189 225 l 1,29,-1
 189 217 l 2,30,31
 189 165 189 165 217.5 134.5 c 128,-1,32
 246 104 246 104 307 104 c 0,33,34
 351 104 351 104 382 124 c 128,-1,35
 413 144 413 144 435 167 c 1,36,-1
 509 75 l 1,37,38
 498 62 498 62 472.5 42.5 c 128,-1,39
 447 23 447 23 402 -10 c 0,40,41
 358 -42 358 -42 335.5 -63 c 128,-1,42
 313 -84 313 -84 313 -106 c 0,43,44
 313 -123 313 -123 324.5 -130.5 c 128,-1,45
 336 -138 336 -138 351 -138 c 0,46,47
 368 -138 368 -138 381 -130 c 128,-1,48
 394 -122 394 -122 405 -110 c 1,49,-1
 457 -161 l 1,50,51
 444 -185 444 -185 414 -198.5 c 128,-1,52
 384 -212 384 -212 336 -212 c 0,0,1
373 312 m 1,53,-1
 373 321 l 2,54,55
 373 369 373 369 351.5 398.5 c 128,-1,56
 330 428 330 428 285 428 c 256,57,58
 240 428 240 428 214.5 398.5 c 128,-1,59
 189 369 189 369 189 320 c 2,60,-1
 189 312 l 1,61,-1
 373 312 l 1,53,-1
EndSplineSet
Validated: 1
EndChar

StartChar: uni0259
Encoding: 601 601 252
Width: 562
Flags: W
LayerCount: 2
Fore
SplineSet
373 300 m 1,0,-1
 373 308 l 2,1,2
 373 360 373 360 346 390.5 c 128,-1,3
 319 421 319 421 262 421 c 0,4,5
 237 421 237 421 218 415 c 128,-1,6
 199 409 199 409 184 400 c 128,-1,7
 169 391 169 391 157.5 379.5 c 128,-1,8
 146 368 146 368 136 358 c 1,9,-1
 62 450 l 1,10,11
 97 491 97 491 152 514 c 128,-1,12
 207 537 207 537 279 537 c 0,13,14
 338 537 338 537 384 517.5 c 128,-1,15
 430 498 430 498 461.5 462.5 c 128,-1,16
 493 427 493 427 509.5 376 c 128,-1,17
 526 325 526 325 526 262 c 0,18,19
 526 200 526 200 510 149.5 c 128,-1,20
 494 99 494 99 462.5 63 c 128,-1,21
 431 27 431 27 385 7.5 c 128,-1,22
 339 -12 339 -12 280 -12 c 0,23,24
 215 -12 215 -12 168.5 10 c 128,-1,25
 122 32 122 32 92.5 69 c 128,-1,26
 63 106 63 106 49.5 154.5 c 128,-1,27
 36 203 36 203 36 256 c 2,28,-1
 36 300 l 1,29,-1
 373 300 l 1,0,-1
189 204 m 2,30,31
 189 156 189 156 210.5 126.5 c 128,-1,32
 232 97 232 97 277 97 c 256,33,34
 322 97 322 97 347.5 126.5 c 128,-1,35
 373 156 373 156 373 205 c 2,36,-1
 373 213 l 1,37,-1
 189 213 l 1,38,-1
 189 204 l 2,30,31
EndSplineSet
Validated: 1
EndChar

StartChar: hbar
Encoding: 295 295 261
Width: 596
Flags: W
LayerCount: 2
Fore
SplineSet
69 0 m 1,0,-1
 69 590 l 1,1,-1
 7 590 l 1,2,-1
 7 690 l 1,3,-1
 69 690 l 1,4,-1
 69 740 l 1,5,-1
 217 740 l 1,6,-1
 217 690 l 1,7,-1
 357 690 l 1,8,-1
 357 590 l 1,9,-1
 217 590 l 1,10,-1
 217 436 l 1,11,-1
 223 436 l 1,12,13
 237 477 237 477 272 507 c 128,-1,14
 307 537 307 537 369 537 c 0,15,16
 450 537 450 537 491.5 483 c 128,-1,17
 533 429 533 429 533 329 c 2,18,-1
 533 0 l 1,19,-1
 385 0 l 1,20,-1
 385 317 l 2,21,22
 385 368 385 368 369 392.5 c 128,-1,23
 353 417 353 417 312 417 c 0,24,25
 294 417 294 417 277 412.5 c 128,-1,26
 260 408 260 408 246.5 398 c 128,-1,27
 233 388 233 388 225 373.5 c 128,-1,28
 217 359 217 359 217 340 c 2,29,-1
 217 0 l 1,30,-1
 69 0 l 1,0,-1
EndSplineSet
Validated: 1
EndChar

StartChar: dotlessi
Encoding: 305 305 263
Width: 286
GlyphClass: 2
Flags: W
AnchorPoint: "Anchor-2" 143 540 basechar 0
AnchorPoint: "Anchor-1" 218 0 basechar 0
AnchorPoint: "Anchor-0" 143 0 basechar 0
LayerCount: 2
Fore
SplineSet
69 0 m 1,0,-1
 69 525 l 1,1,-1
 217 525 l 1,2,-1
 217 0 l 1,3,-1
 69 0 l 1,0,-1
EndSplineSet
Validated: 1
EndChar

StartChar: iogonek
Encoding: 303 303 272
Width: 286
Flags: W
LayerCount: 2
Fore
SplineSet
69 525 m 1,0,-1
 217 525 l 1,1,-1
 217 0 l 1,2,3
 180 -23 180 -23 157.5 -38.5 c 128,-1,4
 135 -54 135 -54 123 -66 c 128,-1,5
 111 -78 111 -78 107 -87 c 128,-1,6
 103 -96 103 -96 103 -105 c 0,7,8
 103 -124 103 -124 114.5 -131 c 128,-1,9
 126 -138 126 -138 141 -138 c 0,10,11
 159 -138 159 -138 172 -130 c 128,-1,12
 185 -122 185 -122 196 -110 c 1,13,-1
 249 -161 l 1,14,15
 236 -185 236 -185 205.5 -198.5 c 128,-1,16
 175 -212 175 -212 127 -212 c 0,17,18
 102 -212 102 -212 79.5 -207.5 c 128,-1,19
 57 -203 57 -203 40 -193.5 c 128,-1,20
 23 -184 23 -184 13 -167.5 c 128,-1,21
 3 -151 3 -151 3 -127 c 0,22,23
 3 -85 3 -85 34.5 -57.5 c 128,-1,24
 66 -30 66 -30 122 -4 c 1,25,-1
 121 0 l 1,26,-1
 69 0 l 1,27,-1
 69 525 l 1,0,-1
143 581 m 256,28,29
 98 581 98 581 77.5 601.5 c 128,-1,30
 57 622 57 622 57 654 c 2,31,-1
 57 676 l 2,32,33
 57 708 57 708 77.5 728.5 c 128,-1,34
 98 749 98 749 143 749 c 256,35,36
 188 749 188 749 208.5 728.5 c 128,-1,37
 229 708 229 708 229 676 c 2,38,-1
 229 654 l 2,39,40
 229 622 229 622 208.5 601.5 c 128,-1,41
 188 581 188 581 143 581 c 256,28,29
EndSplineSet
Validated: 1
EndChar

StartChar: uni0237
Encoding: 567 567 275
Width: 286
GlyphClass: 2
Flags: W
AnchorPoint: "Anchor-2" 143 540 basechar 0
LayerCount: 2
Fore
SplineSet
-9 -85 m 1,0,-1
 69 -85 l 1,1,-1
 69 525 l 1,2,-1
 217 525 l 1,3,-1
 217 -56 l 2,4,5
 217 -126 217 -126 182 -163 c 128,-1,6
 147 -200 147 -200 69 -200 c 2,7,-1
 -9 -200 l 1,8,-1
 -9 -85 l 1,0,-1
EndSplineSet
Validated: 1
EndChar

StartChar: kgreenlandic
Encoding: 312 312 278
Width: 577
Flags: W
LayerCount: 2
Fore
SplineSet
282 219 m 1,0,-1
 217 148 l 1,1,-1
 217 0 l 1,2,-1
 69 0 l 1,3,-1
 69 525 l 1,4,-1
 217 525 l 1,5,-1
 217 303 l 1,6,-1
 223 303 l 1,7,-1
 292 396 l 1,8,-1
 405 525 l 1,9,-1
 571 525 l 1,10,-1
 385 320 l 1,11,-1
 577 0 l 1,12,-1
 404 0 l 1,13,-1
 282 219 l 1,0,-1
EndSplineSet
Validated: 1
EndChar

StartChar: lslash
Encoding: 322 322 283
Width: 314
Flags: W
LayerCount: 2
Fore
SplineSet
289 0 m 1,0,-1
 222 0 l 2,1,2
 146 0 146 0 110.5 37 c 128,-1,3
 75 74 75 74 75 144 c 2,4,-1
 75 295 l 1,5,-1
 -2 270 l 1,6,-1
 -2 379 l 1,7,-1
 75 404 l 1,8,-1
 75 740 l 1,9,-1
 223 740 l 1,10,-1
 223 452 l 1,11,-1
 327 486 l 1,12,-1
 327 377 l 1,13,-1
 223 343 l 1,14,-1
 223 115 l 1,15,-1
 289 115 l 1,16,-1
 289 0 l 1,0,-1
EndSplineSet
Validated: 1
EndChar

StartChar: eng
Encoding: 331 331 289
Width: 596
Flags: W
LayerCount: 2
Fore
SplineSet
307 -85 m 1,0,-1
 385 -85 l 1,1,-1
 385 317 l 2,2,3
 385 368 385 368 369 392.5 c 128,-1,4
 353 417 353 417 312 417 c 0,5,6
 294 417 294 417 277 412.5 c 128,-1,7
 260 408 260 408 246.5 398.5 c 128,-1,8
 233 389 233 389 225 374.5 c 128,-1,9
 217 360 217 360 217 340 c 2,10,-1
 217 0 l 1,11,-1
 69 0 l 1,12,-1
 69 525 l 1,13,-1
 217 525 l 1,14,-1
 217 436 l 1,15,-1
 223 436 l 1,16,17
 237 477 237 477 272 507 c 128,-1,18
 307 537 307 537 369 537 c 0,19,20
 450 537 450 537 491.5 483 c 128,-1,21
 533 429 533 429 533 329 c 2,22,-1
 533 -56 l 2,23,24
 533 -126 533 -126 498 -163 c 128,-1,25
 463 -200 463 -200 386 -200 c 2,26,-1
 307 -200 l 1,27,-1
 307 -85 l 1,0,-1
EndSplineSet
Validated: 1
EndChar

StartChar: oslash
Encoding: 248 248 299
Width: 572
GlyphClass: 2
Flags: W
AnchorPoint: "Anchor-2" 285 540 basechar 0
LayerCount: 2
Fore
SplineSet
14 10 m 1,0,-1
 81 93 l 1,1,2
 40 161 40 161 40 263 c 0,3,4
 40 326 40 326 57 377 c 128,-1,5
 74 428 74 428 105.5 463.5 c 128,-1,6
 137 499 137 499 182.5 518 c 128,-1,7
 228 537 228 537 286 537 c 0,8,9
 361 537 361 537 418 503 c 1,10,-1
 478 575 l 1,11,-1
 558 515 l 1,12,-1
 490 431 l 1,13,14
 532 365 532 365 532 262 c 0,15,16
 532 199 532 199 515 148 c 128,-1,17
 498 97 498 97 466.5 61.5 c 128,-1,18
 435 26 435 26 389.5 7 c 128,-1,19
 344 -12 344 -12 286 -12 c 0,20,21
 248 -12 248 -12 214.5 -3.5 c 128,-1,22
 181 5 181 5 154 21 c 1,23,-1
 94 -50 l 1,24,-1
 14 10 l 1,0,-1
286 96 m 0,25,26
 332 96 332 96 357.5 128 c 128,-1,27
 383 160 383 160 383 214 c 2,28,-1
 383 312 l 1,29,-1
 222 119 l 1,30,31
 247 96 247 96 286 96 c 0,25,26
189 214 m 1,32,-1
 349 406 l 1,33,34
 324 429 324 429 286 429 c 0,35,36
 240 429 240 429 214.5 397 c 128,-1,37
 189 365 189 365 189 311 c 2,38,-1
 189 214 l 1,32,-1
EndSplineSet
Validated: 1
EndChar

StartChar: ohorn
Encoding: 417 417 302
Width: 564
GlyphClass: 2
Flags: W
AnchorPoint: "Anchor-2" 281 540 basechar 0
AnchorPoint: "Anchor-0" 281 0 basechar 0
LayerCount: 2
Fore
SplineSet
551 631 m 1,0,-1
 551 537 l 2,1,2
 551 490 551 490 535.5 467 c 128,-1,3
 520 444 520 444 483 439 c 1,4,5
 507 402 507 402 517.5 360.5 c 128,-1,6
 528 319 528 319 528 266 c 0,7,8
 528 203 528 203 511 151.5 c 128,-1,9
 494 100 494 100 462.5 63.5 c 128,-1,10
 431 27 431 27 385.5 7.5 c 128,-1,11
 340 -12 340 -12 282 -12 c 256,12,13
 224 -12 224 -12 178.5 7.5 c 128,-1,14
 133 27 133 27 101.5 63.5 c 128,-1,15
 70 100 70 100 53 151.5 c 128,-1,16
 36 203 36 203 36 266 c 0,17,18
 36 393 36 393 101 465 c 128,-1,19
 166 537 166 537 282 537 c 0,20,21
 328 537 328 537 367 525 c 1,22,-1
 427 525 l 1,23,-1
 427 631 l 1,24,-1
 551 631 l 1,0,-1
282 105 m 256,25,26
 326 105 326 105 350 132 c 128,-1,27
 374 159 374 159 374 209 c 2,28,-1
 374 316 l 2,29,30
 374 366 374 366 350 393 c 128,-1,31
 326 420 326 420 282 420 c 256,32,33
 238 420 238 420 214 393 c 128,-1,34
 190 366 190 366 190 316 c 2,35,-1
 190 209 l 2,36,37
 190 159 190 159 214 132 c 128,-1,38
 238 105 238 105 282 105 c 256,25,26
EndSplineSet
Validated: 1
EndChar

StartChar: oe
Encoding: 339 339 313
Width: 901
Flags: W
LayerCount: 2
Fore
SplineSet
282 105 m 256,0,1
 326 105 326 105 350 132 c 128,-1,2
 374 159 374 159 374 209 c 2,3,-1
 374 316 l 2,4,5
 374 366 374 366 350 393 c 128,-1,6
 326 420 326 420 282 420 c 256,7,8
 238 420 238 420 214 393 c 128,-1,9
 190 366 190 366 190 316 c 2,10,-1
 190 209 l 2,11,12
 190 159 190 159 214 132 c 128,-1,13
 238 105 238 105 282 105 c 256,0,1
711 312 m 1,14,-1
 711 321 l 2,15,16
 711 369 711 369 689.5 398.5 c 128,-1,17
 668 428 668 428 623 428 c 256,18,19
 578 428 578 428 552.5 398.5 c 128,-1,20
 527 369 527 369 527 320 c 2,21,-1
 527 312 l 1,22,-1
 711 312 l 1,14,-1
630 -12 m 0,23,24
 563 -12 563 -12 516.5 8.5 c 128,-1,25
 470 29 470 29 454 62 c 1,26,-1
 448 62 l 1,27,28
 428 27 428 27 386.5 7.5 c 128,-1,29
 345 -12 345 -12 282 -12 c 0,30,31
 224 -12 224 -12 178.5 7.5 c 128,-1,32
 133 27 133 27 101.5 63.5 c 128,-1,33
 70 100 70 100 53 151.5 c 128,-1,34
 36 203 36 203 36 266 c 0,35,36
 36 393 36 393 101 465 c 128,-1,37
 166 537 166 537 282 537 c 0,38,39
 339 537 339 537 381.5 519.5 c 128,-1,40
 424 502 424 502 448 463 c 1,41,-1
 454 463 l 1,42,43
 474 498 474 498 518 517.5 c 128,-1,44
 562 537 562 537 625 537 c 0,45,46
 683 537 683 537 728 518 c 128,-1,47
 773 499 773 499 803.5 464 c 128,-1,48
 834 429 834 429 849.5 379.5 c 128,-1,49
 865 330 865 330 865 269 c 2,50,-1
 865 225 l 1,51,-1
 527 225 l 1,52,-1
 527 217 l 2,53,54
 527 165 527 165 556.5 134.5 c 128,-1,55
 586 104 586 104 647 104 c 0,56,57
 693 104 693 104 722 122.5 c 128,-1,58
 751 141 751 141 776 167 c 1,59,-1
 850 75 l 1,60,61
 815 34 815 34 758.5 11 c 128,-1,62
 702 -12 702 -12 630 -12 c 0,23,24
EndSplineSet
Validated: 1
EndChar

StartChar: scedilla
Encoding: 351 351 319
Width: 504
Flags: W
LayerCount: 2
Fore
SplineSet
262 -212 m 0,0,1
 210 -212 210 -212 180.5 -197.5 c 128,-1,2
 151 -183 151 -183 138 -168 c 1,3,-1
 184 -112 l 1,4,5
 194 -124 194 -124 210.5 -132.5 c 128,-1,6
 227 -141 227 -141 250 -141 c 0,7,8
 269 -141 269 -141 281.5 -135 c 128,-1,9
 294 -129 294 -129 294 -116 c 0,10,11
 294 -110 294 -110 291 -104 c 128,-1,12
 288 -98 288 -98 279.5 -92.5 c 128,-1,13
 271 -87 271 -87 256.5 -82.5 c 128,-1,14
 242 -78 242 -78 219 -76 c 2,15,-1
 198 -74 l 1,16,-1
 211 -10 l 1,17,18
 150 -5 150 -5 105.5 18.5 c 128,-1,19
 61 42 61 42 26 82 c 1,20,-1
 113 170 l 1,21,22
 141 139 141 139 175 121 c 128,-1,23
 209 103 209 103 252 103 c 0,24,25
 296 103 296 103 313 116.5 c 128,-1,26
 330 130 330 130 330 153 c 0,27,28
 330 190 330 190 277 197 c 2,29,-1
 220 204 l 2,30,31
 43 226 43 226 43 366 c 0,32,33
 43 404 43 404 57.5 435.5 c 128,-1,34
 72 467 72 467 98.5 489.5 c 128,-1,35
 125 512 125 512 162.5 524.5 c 128,-1,36
 200 537 200 537 247 537 c 0,37,38
 288 537 288 537 319.5 531.5 c 128,-1,39
 351 526 351 526 375.5 515.5 c 128,-1,40
 400 505 400 505 420.5 489.5 c 128,-1,41
 441 474 441 474 461 455 c 1,42,-1
 376 368 l 1,43,44
 351 393 351 393 319.5 407.5 c 128,-1,45
 288 422 288 422 255 422 c 0,46,47
 217 422 217 422 201 410 c 128,-1,48
 185 398 185 398 185 378 c 0,49,50
 185 357 185 357 196.5 345.5 c 128,-1,51
 208 334 208 334 240 329 c 2,52,-1
 299 321 l 2,53,54
 472 298 472 298 472 163 c 0,55,56
 472 128 472 128 458.5 98 c 128,-1,57
 445 68 445 68 419.5 45 c 128,-1,58
 394 22 394 22 358 7.5 c 128,-1,59
 322 -7 322 -7 278 -11 c 1,60,-1
 269 -55 l 1,61,-1
 273 -59 l 1,62,63
 285 -56 285 -56 297 -54 c 128,-1,64
 309 -52 309 -52 321 -52 c 0,65,66
 351 -52 351 -52 372.5 -68 c 128,-1,67
 394 -84 394 -84 394 -121 c 0,68,69
 394 -147 394 -147 383 -164 c 128,-1,70
 372 -181 372 -181 353.5 -192 c 128,-1,71
 335 -203 335 -203 311 -207.5 c 128,-1,72
 287 -212 287 -212 262 -212 c 0,0,1
EndSplineSet
Validated: 1
EndChar

StartChar: germandbls
Encoding: 223 223 322
Width: 692
Flags: W
LayerCount: 2
Fore
SplineSet
667 173 m 0,0,1
 667 130 667 130 652.5 96 c 128,-1,2
 638 62 638 62 612.5 38 c 128,-1,3
 587 14 587 14 551.5 1 c 128,-1,4
 516 -12 516 -12 473 -12 c 0,5,6
 410 -12 410 -12 363 6 c 128,-1,7
 316 24 316 24 287 63 c 1,8,-1
 371 149 l 1,9,10
 394 122 394 122 418 110 c 128,-1,11
 442 98 442 98 471 98 c 0,12,13
 498 98 498 98 514.5 112.5 c 128,-1,14
 531 127 531 127 531 155 c 0,15,16
 531 181 531 181 515.5 194.5 c 128,-1,17
 500 208 500 208 465 219 c 2,18,-1
 434 229 l 2,19,20
 382 246 382 246 352 279.5 c 128,-1,21
 322 313 322 313 322 374 c 0,22,23
 322 434 322 434 359 474 c 128,-1,24
 396 514 396 514 463 529 c 1,25,-1
 463 531 l 2,26,27
 463 589 463 589 435.5 615.5 c 128,-1,28
 408 642 408 642 353 642 c 256,29,30
 298 642 298 642 270.5 615.5 c 128,-1,31
 243 589 243 589 243 531 c 2,32,-1
 243 0 l 1,33,-1
 95 0 l 1,34,-1
 95 410 l 1,35,-1
 21 410 l 1,36,-1
 21 525 l 1,37,-1
 95 525 l 1,38,-1
 95 529 l 2,39,40
 95 581 95 581 113.5 622.5 c 128,-1,41
 132 664 132 664 165.5 693 c 128,-1,42
 199 722 199 722 246 737 c 128,-1,43
 293 752 293 752 349 752 c 256,44,45
 405 752 405 752 451 737 c 128,-1,46
 497 722 497 722 530 694 c 128,-1,47
 563 666 563 666 581 624.5 c 128,-1,48
 599 583 599 583 599 531 c 2,49,-1
 599 434 l 1,50,-1
 543 434 l 2,51,52
 496 434 496 434 477 423.5 c 128,-1,53
 458 413 458 413 458 387 c 0,54,55
 458 363 458 363 473 352.5 c 128,-1,56
 488 342 488 342 520 331 c 2,57,-1
 551 321 l 2,58,59
 605 304 605 304 636 269.5 c 128,-1,60
 667 235 667 235 667 173 c 0,0,1
EndSplineSet
Validated: 1
Substitution2: "'salt' Stylistic Alternatives lookup 16 subtable" germandbls.alt01
Substitution2: "'ss05' Style Set 5 lookup 15 subtable" germandbls.alt01
Substitution2: "'aalt' Access All Alternates lookup 0 subtable" germandbls.alt01
EndChar

StartChar: germandbls.alt01
Encoding: 65568 -1 323
Width: 602
Flags: W
LayerCount: 2
Fore
SplineSet
69 0 m 1,0,-1
 69 590 l 2,1,2
 69 623 69 623 78.5 650.5 c 128,-1,3
 88 678 88 678 107.5 698 c 128,-1,4
 127 718 127 718 156.5 729 c 128,-1,5
 186 740 186 740 226 740 c 2,6,-1
 345 740 l 1,7,-1
 345 625 l 1,8,-1
 213 625 l 1,9,-1
 213 525 l 1,10,-1
 548 525 l 1,11,-1
 548 419 l 1,12,-1
 413 222 l 1,13,14
 492 207 492 207 536.5 158 c 128,-1,15
 581 109 581 109 581 20 c 0,16,17
 581 -35 581 -35 563 -76 c 128,-1,18
 545 -117 545 -117 511.5 -144.5 c 128,-1,19
 478 -172 478 -172 430.5 -186 c 128,-1,20
 383 -200 383 -200 324 -200 c 2,21,-1
 260 -200 l 1,22,-1
 260 -85 l 1,23,-1
 310 -85 l 2,24,25
 373 -85 373 -85 402.5 -65 c 128,-1,26
 432 -45 432 -45 432 3 c 2,27,-1
 432 36 l 2,28,29
 432 84 432 84 402.5 106 c 128,-1,30
 373 128 373 128 310 128 c 2,31,-1
 286 128 l 1,32,-1
 286 239 l 1,33,-1
 403 410 l 1,34,-1
 213 410 l 1,35,-1
 213 0 l 1,36,-1
 69 0 l 1,0,-1
EndSplineSet
Validated: 1
EndChar

StartChar: tbar
Encoding: 359 359 324
Width: 391
Flags: W
LayerCount: 2
Fore
SplineSet
345 0 m 1,0,-1
 257 0 l 2,1,2
 180 0 180 0 140.5 39 c 128,-1,3
 101 78 101 78 101 153 c 2,4,-1
 101 221 l 1,5,-1
 37 221 l 1,6,-1
 37 321 l 1,7,-1
 101 321 l 1,8,-1
 101 410 l 1,9,-1
 27 410 l 1,10,-1
 27 525 l 1,11,-1
 64 525 l 2,12,13
 94 525 94 525 105 539.5 c 128,-1,14
 116 554 116 554 116 581 c 2,15,-1
 116 667 l 1,16,-1
 249 667 l 1,17,-1
 249 525 l 1,18,-1
 353 525 l 1,19,-1
 353 410 l 1,20,-1
 249 410 l 1,21,-1
 249 321 l 1,22,-1
 334 321 l 1,23,-1
 334 221 l 1,24,-1
 249 221 l 1,25,-1
 249 115 l 1,26,-1
 345 115 l 1,27,-1
 345 0 l 1,0,-1
EndSplineSet
Validated: 1
EndChar

StartChar: thorn
Encoding: 254 254 328
Width: 608
Flags: W
LayerCount: 2
Fore
SplineSet
69 740 m 1,0,-1
 217 740 l 1,1,-1
 217 437 l 1,2,-1
 222 437 l 1,3,4
 233 481 233 481 272.5 509 c 128,-1,5
 312 537 312 537 363 537 c 0,6,7
 463 537 463 537 514 467 c 128,-1,8
 565 397 565 397 565 263 c 256,9,10
 565 129 565 129 514 58.5 c 128,-1,11
 463 -12 463 -12 363 -12 c 0,12,13
 337 -12 337 -12 314 -4.5 c 128,-1,14
 291 3 291 3 272.5 16.5 c 128,-1,15
 254 30 254 30 241 48.5 c 128,-1,16
 228 67 228 67 222 88 c 1,17,-1
 217 88 l 1,18,-1
 217 -200 l 1,19,-1
 69 -200 l 1,20,-1
 69 740 l 1,0,-1
314 108 m 256,21,22
 356 108 356 108 383.5 137.5 c 128,-1,23
 411 167 411 167 411 217 c 2,24,-1
 411 308 l 2,25,26
 411 358 411 358 383.5 387.5 c 128,-1,27
 356 417 356 417 314 417 c 256,28,29
 272 417 272 417 244.5 396.5 c 128,-1,30
 217 376 217 376 217 340 c 2,31,-1
 217 185 l 2,32,33
 217 149 217 149 244.5 128.5 c 128,-1,34
 272 108 272 108 314 108 c 256,21,22
EndSplineSet
Validated: 1
EndChar

StartChar: uogonek
Encoding: 371 371 338
Width: 596
Flags: W
LayerCount: 2
Fore
SplineSet
526 0 m 1,0,1
 489 -23 489 -23 467 -38.5 c 128,-1,2
 445 -54 445 -54 433 -66 c 128,-1,3
 421 -78 421 -78 417 -87 c 128,-1,4
 413 -96 413 -96 413 -105 c 0,5,6
 413 -124 413 -124 424.5 -131 c 128,-1,7
 436 -138 436 -138 451 -138 c 0,8,9
 469 -138 469 -138 482 -130 c 128,-1,10
 495 -122 495 -122 506 -110 c 1,11,-1
 559 -161 l 1,12,13
 546 -185 546 -185 515.5 -198.5 c 128,-1,14
 485 -212 485 -212 437 -212 c 0,15,16
 412 -212 412 -212 389.5 -207.5 c 128,-1,17
 367 -203 367 -203 350 -193.5 c 128,-1,18
 333 -184 333 -184 323 -167.5 c 128,-1,19
 313 -151 313 -151 313 -127 c 0,20,21
 313 -85 313 -85 344.5 -57.5 c 128,-1,22
 376 -30 376 -30 432 -4 c 1,23,-1
 431 0 l 1,24,-1
 379 0 l 1,25,-1
 379 88 l 1,26,-1
 374 88 l 1,27,28
 367 68 367 68 355.5 50 c 128,-1,29
 344 32 344 32 326 18 c 128,-1,30
 308 4 308 4 283.5 -4 c 128,-1,31
 259 -12 259 -12 227 -12 c 0,32,33
 146 -12 146 -12 104.5 41.5 c 128,-1,34
 63 95 63 95 63 195 c 2,35,-1
 63 525 l 1,36,-1
 211 525 l 1,37,-1
 211 208 l 2,38,39
 211 160 211 160 228 134 c 128,-1,40
 245 108 245 108 286 108 c 0,41,42
 303 108 303 108 320 113 c 128,-1,43
 337 118 337 118 350 127.5 c 128,-1,44
 363 137 363 137 371 151 c 128,-1,45
 379 165 379 165 379 184 c 2,46,-1
 379 525 l 1,47,-1
 526 525 l 1,48,-1
 526 0 l 1,0,1
EndSplineSet
Validated: 1
EndChar

StartChar: uhorn
Encoding: 432 432 341
Width: 596
GlyphClass: 2
Flags: W
AnchorPoint: "Anchor-2" 294 540 basechar 0
AnchorPoint: "Anchor-0" 294 0 basechar 0
LayerCount: 2
Fore
SplineSet
590 537 m 2,0,1
 590 494 590 494 576.5 469.5 c 128,-1,2
 563 445 563 445 526 439 c 1,3,-1
 526 0 l 1,4,-1
 379 0 l 1,5,-1
 379 88 l 1,6,-1
 374 88 l 1,7,8
 367 68 367 68 355.5 50 c 128,-1,9
 344 32 344 32 326 18 c 128,-1,10
 308 4 308 4 283.5 -4 c 128,-1,11
 259 -12 259 -12 227 -12 c 0,12,13
 146 -12 146 -12 104.5 41.5 c 128,-1,14
 63 95 63 95 63 195 c 2,15,-1
 63 525 l 1,16,-1
 211 525 l 1,17,-1
 211 208 l 2,18,19
 211 160 211 160 228 134 c 128,-1,20
 245 108 245 108 286 108 c 0,21,22
 303 108 303 108 320 113 c 128,-1,23
 337 118 337 118 350 127.5 c 128,-1,24
 363 137 363 137 371 151 c 128,-1,25
 379 165 379 165 379 184 c 2,26,-1
 379 525 l 1,27,-1
 466 525 l 1,28,-1
 466 631 l 1,29,-1
 590 631 l 1,30,-1
 590 537 l 2,0,1
EndSplineSet
Validated: 1
EndChar

StartChar: Aogonek
Encoding: 260 260 369
Width: 685
Flags: W
LayerCount: 2
Fore
SplineSet
250 698 m 1,0,-1
 438 698 l 1,1,-1
 665 0 l 1,2,3
 628 -23 628 -23 605.5 -38.5 c 128,-1,4
 583 -54 583 -54 571 -66 c 128,-1,5
 559 -78 559 -78 555 -87 c 128,-1,6
 551 -96 551 -96 551 -105 c 0,7,8
 551 -124 551 -124 562.5 -131 c 128,-1,9
 574 -138 574 -138 589 -138 c 0,10,11
 607 -138 607 -138 620 -130 c 128,-1,12
 633 -122 633 -122 644 -110 c 1,13,-1
 697 -161 l 1,14,15
 684 -185 684 -185 653.5 -198.5 c 128,-1,16
 623 -212 623 -212 575 -212 c 0,17,18
 550 -212 550 -212 527.5 -207.5 c 128,-1,19
 505 -203 505 -203 488 -193.5 c 128,-1,20
 471 -184 471 -184 461 -167.5 c 128,-1,21
 451 -151 451 -151 451 -127 c 0,22,23
 451 -85 451 -85 482.5 -57.5 c 128,-1,24
 514 -30 514 -30 570 -4 c 1,25,-1
 569 0 l 1,26,-1
 507 0 l 1,27,-1
 457 166 l 1,28,-1
 224 166 l 1,29,-1
 174 0 l 1,30,-1
 20 0 l 1,31,-1
 250 698 l 1,0,-1
342 560 m 1,32,-1
 337 560 l 1,33,-1
 260 295 l 1,34,-1
 420 295 l 1,35,-1
 342 560 l 1,32,-1
EndSplineSet
Validated: 1
EndChar

StartChar: AE
Encoding: 198 198 383
Width: 968
GlyphClass: 2
Flags: W
AnchorPoint: "Anchor-2" 645 698 basechar 0
LayerCount: 2
Fore
SplineSet
438 166 m 1,0,-1
 229 166 l 1,1,-1
 151 0 l 1,2,-1
 -1 0 l 1,3,-1
 340 698 l 1,4,-1
 913 698 l 1,5,-1
 913 563 l 1,6,-1
 589 563 l 1,7,-1
 589 420 l 1,8,-1
 867 420 l 1,9,-1
 867 286 l 1,10,-1
 589 286 l 1,11,-1
 589 135 l 1,12,-1
 913 135 l 1,13,-1
 913 0 l 1,14,-1
 438 0 l 1,15,-1
 438 166 l 1,0,-1
415 563 m 1,16,-1
 290 295 l 1,17,-1
 438 295 l 1,18,-1
 438 563 l 1,19,-1
 415 563 l 1,16,-1
EndSplineSet
Validated: 1
EndChar

StartChar: Ccedilla
Encoding: 199 199 387
Width: 651
Flags: W
LayerCount: 2
Fore
SplineSet
359 575 m 0,0,1
 292 575 292 575 251.5 531.5 c 128,-1,2
 211 488 211 488 211 405 c 2,3,-1
 211 293 l 2,4,5
 211 210 211 210 251.5 166.5 c 128,-1,6
 292 123 292 123 359 123 c 0,7,8
 415 123 415 123 448.5 153.5 c 128,-1,9
 482 184 482 184 498 227 c 1,10,-1
 622 155 l 1,11,12
 583 75 583 75 520 31.5 c 128,-1,13
 457 -12 457 -12 364 -12 c 1,14,-1
 355 -55 l 1,15,-1
 359 -59 l 1,16,17
 371 -56 371 -56 383 -54 c 128,-1,18
 395 -52 395 -52 407 -52 c 0,19,20
 437 -52 437 -52 458.5 -68 c 128,-1,21
 480 -84 480 -84 480 -121 c 0,22,23
 480 -147 480 -147 469 -164 c 128,-1,24
 458 -181 458 -181 439.5 -192 c 128,-1,25
 421 -203 421 -203 397 -207.5 c 128,-1,26
 373 -212 373 -212 348 -212 c 0,27,28
 296 -212 296 -212 266.5 -197.5 c 128,-1,29
 237 -183 237 -183 224 -168 c 1,30,-1
 270 -112 l 1,31,32
 280 -124 280 -124 296.5 -132.5 c 128,-1,33
 313 -141 313 -141 336 -141 c 0,34,35
 355 -141 355 -141 367.5 -135 c 128,-1,36
 380 -129 380 -129 380 -116 c 0,37,38
 380 -110 380 -110 377 -104 c 128,-1,39
 374 -98 374 -98 365.5 -92.5 c 128,-1,40
 357 -87 357 -87 342.5 -82.5 c 128,-1,41
 328 -78 328 -78 305 -76 c 2,42,-1
 284 -74 l 1,43,-1
 298 -7 l 1,44,45
 183 10 183 10 116.5 98.5 c 128,-1,46
 50 187 50 187 50 344 c 0,47,48
 50 432 50 432 72 500.5 c 128,-1,49
 94 569 94 569 134 615.5 c 128,-1,50
 174 662 174 662 231 686 c 128,-1,51
 288 710 288 710 359 710 c 0,52,53
 456 710 456 710 519 670.5 c 128,-1,54
 582 631 582 631 620 546 c 1,55,-1
 489 478 l 1,56,57
 475 522 475 522 445.5 548.5 c 128,-1,58
 416 575 416 575 359 575 c 0,0,1
EndSplineSet
Validated: 1
EndChar

StartChar: Dcroat
Encoding: 272 272 391
Width: 702
Flags: W
LayerCount: 2
Fore
SplineSet
82 297 m 1,0,-1
 7 297 l 1,1,-1
 7 411 l 1,2,-1
 82 411 l 1,3,-1
 82 698 l 1,4,-1
 345 698 l 2,5,6
 414 698 414 698 471 676 c 128,-1,7
 528 654 528 654 568 610.5 c 128,-1,8
 608 567 608 567 630 501.5 c 128,-1,9
 652 436 652 436 652 349 c 256,10,11
 652 262 652 262 630 196.5 c 128,-1,12
 608 131 608 131 568 87.5 c 128,-1,13
 528 44 528 44 471 22 c 128,-1,14
 414 0 414 0 345 0 c 2,15,-1
 82 0 l 1,16,-1
 82 297 l 1,0,-1
345 135 m 2,17,18
 413 135 413 135 452 173 c 128,-1,19
 491 211 491 211 491 295 c 2,20,-1
 491 403 l 2,21,22
 491 487 491 487 452 525 c 128,-1,23
 413 563 413 563 345 563 c 2,24,-1
 234 563 l 1,25,-1
 234 411 l 1,26,-1
 353 411 l 1,27,-1
 353 297 l 1,28,-1
 234 297 l 1,29,-1
 234 135 l 1,30,-1
 345 135 l 2,17,18
EndSplineSet
Validated: 1
EndChar

StartChar: Eogonek
Encoding: 280 280 403
Width: 607
Flags: W
LayerCount: 2
Fore
SplineSet
77 698 m 1,0,-1
 552 698 l 1,1,-1
 552 563 l 1,2,-1
 229 563 l 1,3,-1
 229 420 l 1,4,-1
 506 420 l 1,5,-1
 506 286 l 1,6,-1
 229 286 l 1,7,-1
 229 135 l 1,8,-1
 552 135 l 1,9,-1
 552 0 l 1,10,11
 515 -23 515 -23 493 -38.5 c 128,-1,12
 471 -54 471 -54 459 -66 c 128,-1,13
 447 -78 447 -78 443 -87 c 128,-1,14
 439 -96 439 -96 439 -105 c 0,15,16
 439 -124 439 -124 450.5 -131 c 128,-1,17
 462 -138 462 -138 477 -138 c 0,18,19
 495 -138 495 -138 508 -130 c 128,-1,20
 521 -122 521 -122 532 -110 c 1,21,-1
 585 -161 l 1,22,23
 572 -185 572 -185 541.5 -198.5 c 128,-1,24
 511 -212 511 -212 463 -212 c 0,25,26
 438 -212 438 -212 415.5 -207.5 c 128,-1,27
 393 -203 393 -203 376 -193.5 c 128,-1,28
 359 -184 359 -184 349 -167.5 c 128,-1,29
 339 -151 339 -151 339 -127 c 0,30,31
 339 -85 339 -85 370.5 -57.5 c 128,-1,32
 402 -30 402 -30 458 -4 c 1,33,-1
 457 0 l 1,34,-1
 77 0 l 1,35,-1
 77 698 l 1,0,-1
EndSplineSet
Validated: 1
EndChar

StartChar: uni018F
Encoding: 399 399 410
Width: 714
Flags: W
LayerCount: 2
Fore
SplineSet
50 399 m 1,0,-1
 503 399 l 1,1,-1
 503 402 l 2,2,3
 503 485 503 485 464 530 c 128,-1,4
 425 575 425 575 357 575 c 0,5,6
 323 575 323 575 299 567.5 c 128,-1,7
 275 560 275 560 257.5 545.5 c 128,-1,8
 240 531 240 531 229 510.5 c 128,-1,9
 218 490 218 490 211 464 c 1,10,-1
 74 513 l 1,11,12
 87 554 87 554 111 590 c 128,-1,13
 135 626 135 626 170 652.5 c 128,-1,14
 205 679 205 679 251.5 694.5 c 128,-1,15
 298 710 298 710 357 710 c 0,16,17
 427 710 427 710 483.5 687 c 128,-1,18
 540 664 540 664 580 618 c 128,-1,19
 620 572 620 572 642 504.5 c 128,-1,20
 664 437 664 437 664 349 c 0,21,22
 664 260 664 260 642 193 c 128,-1,23
 620 126 620 126 580 80 c 128,-1,24
 540 34 540 34 483.5 11 c 128,-1,25
 427 -12 427 -12 357 -12 c 256,26,27
 287 -12 287 -12 230.5 11 c 128,-1,28
 174 34 174 34 134 80 c 128,-1,29
 94 126 94 126 72 193 c 128,-1,30
 50 260 50 260 50 349 c 2,31,-1
 50 399 l 1,0,-1
357 123 m 256,32,33
 420 123 420 123 458.5 162 c 128,-1,34
 497 201 497 201 502 274 c 1,35,-1
 212 274 l 1,36,37
 217 201 217 201 255.5 162 c 128,-1,38
 294 123 294 123 357 123 c 256,32,33
EndSplineSet
Validated: 1
EndChar

StartChar: Hbar
Encoding: 294 294 415
Width: 734
Flags: W
LayerCount: 2
Fore
SplineSet
500 286 m 1,0,-1
 234 286 l 1,1,-1
 234 0 l 1,2,-1
 82 0 l 1,3,-1
 82 506 l 1,4,-1
 8 506 l 1,5,-1
 8 620 l 1,6,-1
 82 620 l 1,7,-1
 82 698 l 1,8,-1
 234 698 l 1,9,-1
 234 620 l 1,10,-1
 500 620 l 1,11,-1
 500 698 l 1,12,-1
 652 698 l 1,13,-1
 652 620 l 1,14,-1
 726 620 l 1,15,-1
 726 506 l 1,16,-1
 652 506 l 1,17,-1
 652 0 l 1,18,-1
 500 0 l 1,19,-1
 500 286 l 1,0,-1
500 420 m 1,20,-1
 500 506 l 1,21,-1
 234 506 l 1,22,-1
 234 420 l 1,23,-1
 500 420 l 1,20,-1
EndSplineSet
Validated: 1
EndChar

StartChar: Iogonek
Encoding: 302 302 426
Width: 432
Flags: W
LayerCount: 2
Fore
SplineSet
50 121 m 1,0,-1
 140 121 l 1,1,-1
 140 577 l 1,2,-1
 50 577 l 1,3,-1
 50 698 l 1,4,-1
 383 698 l 1,5,-1
 383 577 l 1,6,-1
 292 577 l 1,7,-1
 292 121 l 1,8,-1
 383 121 l 1,9,-1
 383 0 l 1,10,11
 346 -23 346 -23 323.5 -38.5 c 128,-1,12
 301 -54 301 -54 289 -66 c 128,-1,13
 277 -78 277 -78 273 -87 c 128,-1,14
 269 -96 269 -96 269 -105 c 0,15,16
 269 -124 269 -124 280.5 -131 c 128,-1,17
 292 -138 292 -138 307 -138 c 0,18,19
 325 -138 325 -138 338 -130 c 128,-1,20
 351 -122 351 -122 362 -110 c 1,21,-1
 415 -161 l 1,22,23
 402 -185 402 -185 371.5 -198.5 c 128,-1,24
 341 -212 341 -212 293 -212 c 0,25,26
 268 -212 268 -212 245.5 -207.5 c 128,-1,27
 223 -203 223 -203 206 -193.5 c 128,-1,28
 189 -184 189 -184 179 -167.5 c 128,-1,29
 169 -151 169 -151 169 -127 c 0,30,31
 169 -85 169 -85 200.5 -57.5 c 128,-1,32
 232 -30 232 -30 288 -4 c 1,33,-1
 287 0 l 1,34,-1
 50 0 l 1,35,-1
 50 121 l 1,0,-1
EndSplineSet
Validated: 1
EndChar

StartChar: IJ
Encoding: 306 306 428
Width: 656
Flags: W
LayerCount: 2
Fore
SplineSet
583 698 m 1,0,-1
 583 210 l 2,1,2
 583 159 583 159 565 118 c 128,-1,3
 547 77 547 77 513.5 48.5 c 128,-1,4
 480 20 480 20 433.5 4.5 c 128,-1,5
 387 -11 387 -11 330 -11 c 0,6,7
 219 -11 219 -11 157 43 c 128,-1,8
 95 97 95 97 80 185 c 1,9,-1
 222 213 l 1,10,11
 230 168 230 168 258 145 c 128,-1,12
 286 122 286 122 329 122 c 0,13,14
 348 122 348 122 366.5 127.5 c 128,-1,15
 385 133 385 133 399.5 144.5 c 128,-1,16
 414 156 414 156 422.5 174.5 c 128,-1,17
 431 193 431 193 431 219 c 2,18,-1
 431 576 l 1,19,-1
 343 576 l 1,20,-1
 343 698 l 1,21,-1
 583 698 l 1,0,-1
73 698 m 1,22,-1
 225 698 l 1,23,-1
 225 309 l 1,24,-1
 73 309 l 1,25,-1
 73 698 l 1,22,-1
EndSplineSet
Validated: 1
EndChar

StartChar: Lslash
Encoding: 321 321 435
Width: 540
Flags: W
LayerCount: 2
Fore
SplineSet
500 0 m 1,0,-1
 82 0 l 1,1,-1
 82 243 l 1,2,-1
 -7 214 l 1,3,-1
 -7 327 l 1,4,-1
 82 356 l 1,5,-1
 82 698 l 1,6,-1
 234 698 l 1,7,-1
 234 404 l 1,8,-1
 392 455 l 1,9,-1
 392 342 l 1,10,-1
 234 291 l 1,11,-1
 234 135 l 1,12,-1
 500 135 l 1,13,-1
 500 0 l 1,0,-1
EndSplineSet
Validated: 1
EndChar

StartChar: Eng
Encoding: 330 330 440
Width: 724
Flags: W
LayerCount: 2
Fore
SplineSet
77 0 m 1,0,-1
 77 698 l 1,1,-1
 243 698 l 1,2,-1
 434 368 l 1,3,-1
 501 228 l 1,4,-1
 504 228 l 1,5,-1
 504 698 l 1,6,-1
 647 698 l 1,7,-1
 647 -56 l 2,8,9
 647 -126 647 -126 611.5 -163 c 128,-1,10
 576 -200 576 -200 499 -200 c 2,11,-1
 420 -200 l 1,12,-1
 420 -85 l 1,13,-1
 504 -85 l 1,14,-1
 504 0 l 1,15,-1
 481 0 l 1,16,-1
 290 330 l 1,17,-1
 223 470 l 1,18,-1
 220 470 l 1,19,-1
 220 0 l 1,20,-1
 77 0 l 1,0,-1
EndSplineSet
Validated: 1
EndChar

StartChar: Oslash
Encoding: 216 216 450
Width: 714
GlyphClass: 2
Flags: W
AnchorPoint: "Anchor-2" 357 698 basechar 0
LayerCount: 2
Fore
SplineSet
357 -12 m 0,0,1
 273 -12 273 -12 207 22 c 1,2,-1
 154 -56 l 1,3,-1
 62 3 l 1,4,-1
 123 93 l 1,5,6
 88 138 88 138 69 202 c 128,-1,7
 50 266 50 266 50 349 c 0,8,9
 50 438 50 438 72 505.5 c 128,-1,10
 94 573 94 573 134 618.5 c 128,-1,11
 174 664 174 664 231 687 c 128,-1,12
 288 710 288 710 357 710 c 0,13,14
 441 710 441 710 507 676 c 1,15,-1
 560 754 l 1,16,-1
 652 695 l 1,17,-1
 591 605 l 1,18,19
 626 560 626 560 645 496 c 128,-1,20
 664 432 664 432 664 349 c 0,21,22
 664 260 664 260 642 192.5 c 128,-1,23
 620 125 620 125 580 79.5 c 128,-1,24
 540 34 540 34 483 11 c 128,-1,25
 426 -12 426 -12 357 -12 c 0,0,1
204 294 m 2,26,27
 204 247 204 247 216 211 c 1,28,-1
 439 565 l 1,29,30
 406 586 406 586 357 586 c 0,31,32
 285 586 285 586 244.5 539 c 128,-1,33
 204 492 204 492 204 404 c 2,34,-1
 204 294 l 2,26,27
510 404 m 2,35,36
 510 451 510 451 498 487 c 1,37,-1
 275 133 l 1,38,39
 308 112 308 112 357 112 c 0,40,41
 429 112 429 112 469.5 159 c 128,-1,42
 510 206 510 206 510 294 c 2,43,-1
 510 404 l 2,35,36
EndSplineSet
Validated: 1
EndChar

StartChar: Ohorn
Encoding: 416 416 453
Width: 714
GlyphClass: 2
Flags: W
AnchorPoint: "Anchor-2" 357 698 basechar 0
AnchorPoint: "Anchor-0" 357 0 basechar 0
LayerCount: 2
Fore
SplineSet
685 804 m 1,0,-1
 685 710 l 2,1,2
 685 661 685 661 665 635.5 c 128,-1,3
 645 610 645 610 587 609 c 1,4,5
 624 564 624 564 644 499 c 128,-1,6
 664 434 664 434 664 349 c 0,7,8
 664 260 664 260 642 192.5 c 128,-1,9
 620 125 620 125 580 79.5 c 128,-1,10
 540 34 540 34 483 11 c 128,-1,11
 426 -12 426 -12 357 -12 c 256,12,13
 288 -12 288 -12 231 11 c 128,-1,14
 174 34 174 34 134 79.5 c 128,-1,15
 94 125 94 125 72 192.5 c 128,-1,16
 50 260 50 260 50 349 c 256,17,18
 50 438 50 438 72 505.5 c 128,-1,19
 94 573 94 573 134 618.5 c 128,-1,20
 174 664 174 664 231 687 c 128,-1,21
 288 710 288 710 357 710 c 0,22,23
 408 710 408 710 450 698 c 1,24,-1
 561 698 l 1,25,-1
 561 804 l 1,26,-1
 685 804 l 1,0,-1
357 123 m 256,27,28
 426 123 426 123 464.5 168 c 128,-1,29
 503 213 503 213 503 297 c 2,30,-1
 503 401 l 2,31,32
 503 485 503 485 464.5 530 c 128,-1,33
 426 575 426 575 357 575 c 256,34,35
 288 575 288 575 249.5 530 c 128,-1,36
 211 485 211 485 211 401 c 2,37,-1
 211 297 l 2,38,39
 211 213 211 213 249.5 168 c 128,-1,40
 288 123 288 123 357 123 c 256,27,28
EndSplineSet
Validated: 1
EndChar

StartChar: OE
Encoding: 338 338 464
Width: 998
Flags: W
LayerCount: 2
Fore
SplineSet
472 0 m 1,0,1
 450 -6 450 -6 420.5 -9 c 128,-1,2
 391 -12 391 -12 357 -12 c 0,3,4
 288 -12 288 -12 231 11 c 128,-1,5
 174 34 174 34 134 79.5 c 128,-1,6
 94 125 94 125 72 192.5 c 128,-1,7
 50 260 50 260 50 349 c 256,8,9
 50 438 50 438 72 505.5 c 128,-1,10
 94 573 94 573 134 618.5 c 128,-1,11
 174 664 174 664 231 687 c 128,-1,12
 288 710 288 710 357 710 c 0,13,14
 424 710 424 710 480 698 c 1,15,-1
 943 698 l 1,16,-1
 943 563 l 1,17,-1
 619 563 l 1,18,-1
 619 420 l 1,19,-1
 897 420 l 1,20,-1
 897 286 l 1,21,-1
 619 286 l 1,22,-1
 619 135 l 1,23,-1
 943 135 l 1,24,-1
 943 0 l 1,25,-1
 472 0 l 1,0,1
357 123 m 0,26,27
 416 123 416 123 467 132 c 1,28,-1
 467 565 l 1,29,30
 441 570 441 570 413.5 572.5 c 128,-1,31
 386 575 386 575 357 575 c 0,32,33
 289 575 289 575 250 530 c 128,-1,34
 211 485 211 485 211 401 c 2,35,-1
 211 297 l 2,36,37
 211 213 211 213 250 168 c 128,-1,38
 289 123 289 123 357 123 c 0,26,27
EndSplineSet
Validated: 1
EndChar

StartChar: Scedilla
Encoding: 350 350 470
Width: 624
Flags: W
LayerCount: 2
Fore
SplineSet
312 576 m 0,0,1
 261 576 261 576 236 558 c 128,-1,2
 211 540 211 540 211 508 c 0,3,4
 211 472 211 472 230.5 456 c 128,-1,5
 250 440 250 440 294 433 c 2,6,-1
 363 422 l 2,7,8
 471 405 471 405 523 355.5 c 128,-1,9
 575 306 575 306 575 215 c 0,10,11
 575 168 575 168 559 128.5 c 128,-1,12
 543 89 543 89 512.5 59.5 c 128,-1,13
 482 30 482 30 437.5 11.5 c 128,-1,14
 393 -7 393 -7 335 -11 c 1,15,-1
 326 -55 l 1,16,-1
 330 -59 l 1,17,18
 342 -56 342 -56 354 -54 c 128,-1,19
 366 -52 366 -52 378 -52 c 0,20,21
 408 -52 408 -52 429.5 -68 c 128,-1,22
 451 -84 451 -84 451 -121 c 0,23,24
 451 -147 451 -147 440 -164 c 128,-1,25
 429 -181 429 -181 410.5 -192 c 128,-1,26
 392 -203 392 -203 368 -207.5 c 128,-1,27
 344 -212 344 -212 319 -212 c 0,28,29
 267 -212 267 -212 237.5 -197.5 c 128,-1,30
 208 -183 208 -183 195 -168 c 1,31,-1
 241 -112 l 1,32,33
 251 -124 251 -124 267.5 -132.5 c 128,-1,34
 284 -141 284 -141 307 -141 c 0,35,36
 326 -141 326 -141 338.5 -135 c 128,-1,37
 351 -129 351 -129 351 -116 c 0,38,39
 351 -110 351 -110 348 -104 c 128,-1,40
 345 -98 345 -98 336.5 -92.5 c 128,-1,41
 328 -87 328 -87 313.5 -82.5 c 128,-1,42
 299 -78 299 -78 276 -76 c 2,43,-1
 255 -74 l 1,44,-1
 268 -11 l 1,45,46
 190 -5 190 -5 134.5 25.5 c 128,-1,47
 79 56 79 56 38 101 c 1,48,-1
 138 202 l 1,49,50
 209 122 209 122 313 122 c 0,51,52
 369 122 369 122 396 145 c 128,-1,53
 423 168 423 168 423 206 c 0,54,55
 423 235 423 235 407 254.5 c 128,-1,56
 391 274 391 274 342 281 c 2,57,-1
 273 290 l 2,58,59
 162 304 162 304 110.5 357 c 128,-1,60
 59 410 59 410 59 498 c 0,61,62
 59 545 59 545 77 584 c 128,-1,63
 95 623 95 623 128.5 651 c 128,-1,64
 162 679 162 679 210.5 694.5 c 128,-1,65
 259 710 259 710 321 710 c 0,66,67
 400 710 400 710 460 685 c 128,-1,68
 520 660 520 660 563 612 c 1,69,-1
 462 510 l 1,70,71
 437 539 437 539 401.5 557.5 c 128,-1,72
 366 576 366 576 312 576 c 0,0,1
EndSplineSet
Validated: 1
EndChar

StartChar: uni1E9E
Encoding: 7838 7838 473
Width: 731
Flags: W
LayerCount: 2
Fore
SplineSet
701 216 m 0,0,1
 701 167 701 167 685 125.5 c 128,-1,2
 669 84 669 84 639.5 53.5 c 128,-1,3
 610 23 610 23 567.5 5.5 c 128,-1,4
 525 -12 525 -12 472 -12 c 0,5,6
 406 -12 406 -12 356.5 9 c 128,-1,7
 307 30 307 30 274 67 c 1,8,-1
 369 164 l 1,9,10
 390 141 390 141 413.5 127.5 c 128,-1,11
 437 114 437 114 472 114 c 256,12,13
 507 114 507 114 527.5 137 c 128,-1,14
 548 160 548 160 548 192 c 2,15,-1
 548 228 l 2,16,17
 548 260 548 260 526 281 c 128,-1,18
 504 302 504 302 452 302 c 2,19,-1
 356 302 l 1,20,-1
 356 419 l 1,21,-1
 486 570 l 1,22,-1
 229 570 l 1,23,-1
 229 0 l 1,24,-1
 77 0 l 1,25,-1
 77 698 l 1,26,-1
 637 698 l 1,27,-1
 637 559 l 1,28,-1
 513 415 l 1,29,-1
 513 411 l 1,30,31
 544 409 544 409 577 397 c 128,-1,32
 610 385 610 385 637.5 361.5 c 128,-1,33
 665 338 665 338 683 302 c 128,-1,34
 701 266 701 266 701 216 c 0,0,1
EndSplineSet
Validated: 1
EndChar

StartChar: Tbar
Encoding: 358 358 474
Width: 594
Flags: W
LayerCount: 2
Fore
SplineSet
373 274 m 1,0,-1
 373 0 l 1,1,-1
 221 0 l 1,2,-1
 221 274 l 1,3,-1
 82 274 l 1,4,-1
 82 388 l 1,5,-1
 221 388 l 1,6,-1
 221 563 l 1,7,-1
 32 563 l 1,8,-1
 32 698 l 1,9,-1
 562 698 l 1,10,-1
 562 563 l 1,11,-1
 373 563 l 1,12,-1
 373 388 l 1,13,-1
 512 388 l 1,14,-1
 512 274 l 1,15,-1
 373 274 l 1,0,-1
EndSplineSet
Validated: 1
EndChar

StartChar: Thorn
Encoding: 222 222 478
Width: 656
Flags: W
LayerCount: 2
Fore
SplineSet
77 0 m 1,0,-1
 77 698 l 1,1,-1
 229 698 l 1,2,-1
 229 578 l 1,3,-1
 407 578 l 2,4,5
 456 578 456 578 495 561.5 c 128,-1,6
 534 545 534 545 561.5 515.5 c 128,-1,7
 589 486 589 486 604 445 c 128,-1,8
 619 404 619 404 619 355 c 256,9,10
 619 306 619 306 604 265 c 128,-1,11
 589 224 589 224 561.5 194.5 c 128,-1,12
 534 165 534 165 495 148.5 c 128,-1,13
 456 132 456 132 407 132 c 2,14,-1
 229 132 l 1,15,-1
 229 0 l 1,16,-1
 77 0 l 1,0,-1
229 264 m 1,17,-1
 389 264 l 2,18,19
 423 264 423 264 442.5 281.5 c 128,-1,20
 462 299 462 299 462 333 c 2,21,-1
 462 377 l 2,22,23
 462 411 462 411 442.5 428.5 c 128,-1,24
 423 446 423 446 389 446 c 2,25,-1
 229 446 l 1,26,-1
 229 264 l 1,17,-1
EndSplineSet
Validated: 1
EndChar

StartChar: Uogonek
Encoding: 370 370 488
Width: 694
Flags: W
LayerCount: 2
Fore
SplineSet
221 698 m 1,0,-1
 221 270 l 2,1,2
 221 196 221 196 250 159.5 c 128,-1,3
 279 123 279 123 347 123 c 256,4,5
 415 123 415 123 444 159.5 c 128,-1,6
 473 196 473 196 473 270 c 2,7,-1
 473 698 l 1,8,-1
 621 698 l 1,9,-1
 621 286 l 2,10,11
 621 234 621 234 615.5 192 c 128,-1,12
 610 150 610 150 596 114.5 c 128,-1,13
 582 79 582 79 558.5 50 c 128,-1,14
 535 21 535 21 499 -6 c 0,15,16
 482 -18 482 -18 464 -29.5 c 128,-1,17
 446 -41 446 -41 431 -53 c 128,-1,18
 416 -65 416 -65 406.5 -78 c 128,-1,19
 397 -91 397 -91 397 -106 c 0,20,21
 397 -123 397 -123 408.5 -130.5 c 128,-1,22
 420 -138 420 -138 435 -138 c 0,23,24
 453 -138 453 -138 465.5 -130 c 128,-1,25
 478 -122 478 -122 489 -110 c 1,26,-1
 542 -161 l 1,27,28
 529 -185 529 -185 498.5 -198.5 c 128,-1,29
 468 -212 468 -212 421 -212 c 0,30,31
 396 -212 396 -212 374 -207.5 c 128,-1,32
 352 -203 352 -203 335 -193 c 128,-1,33
 318 -183 318 -183 308 -167 c 128,-1,34
 298 -151 298 -151 298 -128 c 0,35,36
 298 -86 298 -86 330 -61.5 c 128,-1,37
 362 -37 362 -37 417 -14 c 1,38,-1
 415 -8 l 1,39,40
 399 -10 399 -10 382.5 -11 c 128,-1,41
 366 -12 366 -12 347 -12 c 0,42,43
 272 -12 272 -12 220 5.5 c 128,-1,44
 168 23 168 23 135 59.5 c 128,-1,45
 102 96 102 96 87.5 152.5 c 128,-1,46
 73 209 73 209 73 286 c 2,47,-1
 73 698 l 1,48,-1
 221 698 l 1,0,-1
EndSplineSet
Validated: 1
EndChar

StartChar: Uhorn
Encoding: 431 431 491
Width: 694
GlyphClass: 2
Flags: W
AnchorPoint: "Anchor-2" 347 698 basechar 0
AnchorPoint: "Anchor-0" 347 0 basechar 0
LayerCount: 2
Fore
SplineSet
221 698 m 1,0,-1
 221 270 l 2,1,2
 221 196 221 196 250 159.5 c 128,-1,3
 279 123 279 123 347 123 c 256,4,5
 415 123 415 123 444 159.5 c 128,-1,6
 473 196 473 196 473 270 c 2,7,-1
 473 698 l 1,8,-1
 550 698 l 1,9,-1
 550 804 l 1,10,-1
 674 804 l 1,11,-1
 674 710 l 2,12,13
 674 672 674 672 663 648.5 c 128,-1,14
 652 625 652 625 621 616 c 1,15,-1
 621 286 l 2,16,17
 621 209 621 209 606.5 152.5 c 128,-1,18
 592 96 592 96 559 59.5 c 128,-1,19
 526 23 526 23 474 5.5 c 128,-1,20
 422 -12 422 -12 347 -12 c 256,21,22
 272 -12 272 -12 220 5.5 c 128,-1,23
 168 23 168 23 135 59.5 c 128,-1,24
 102 96 102 96 87.5 152.5 c 128,-1,25
 73 209 73 209 73 286 c 2,26,-1
 73 698 l 1,27,-1
 221 698 l 1,0,-1
EndSplineSet
Validated: 1
EndChar

StartChar: mu
Encoding: 181 181 511
Width: 602
Flags: W
LayerCount: 2
Fore
SplineSet
69 -200 m 1,0,-1
 69 525 l 1,1,-1
 217 525 l 1,2,-1
 217 206 l 2,3,4
 217 158 217 158 234 133 c 128,-1,5
 251 108 251 108 291 108 c 0,6,7
 309 108 309 108 325.5 113 c 128,-1,8
 342 118 342 118 355.5 127.5 c 128,-1,9
 369 137 369 137 377 151.5 c 128,-1,10
 385 166 385 166 385 184 c 2,11,-1
 385 525 l 1,12,-1
 533 525 l 1,13,-1
 533 0 l 1,14,-1
 385 0 l 1,15,-1
 385 88 l 1,16,-1
 380 88 l 1,17,18
 367 47 367 47 338 17.5 c 128,-1,19
 309 -12 309 -12 264 -12 c 0,20,21
 235 -12 235 -12 217.5 0 c 128,-1,22
 200 12 200 12 192 30 c 1,23,-1
 187 30 l 1,24,-1
 217 -106 l 1,25,-1
 217 -200 l 1,26,-1
 69 -200 l 1,0,-1
EndSplineSet
Validated: 1
EndChar

StartChar: Delta
Encoding: 8710 8710 512
Width: 684
Flags: W
LayerCount: 2
Fore
SplineSet
49 121 m 1,0,-1
 248 698 l 1,1,-1
 436 698 l 1,2,-1
 635 121 l 1,3,-1
 635 0 l 1,4,-1
 49 0 l 1,5,-1
 49 121 l 1,0,-1
342 560 m 1,6,-1
 337 560 l 1,7,-1
 204 135 l 1,8,-1
 475 135 l 1,9,-1
 342 560 l 1,6,-1
EndSplineSet
Validated: 1
EndChar

StartChar: product
Encoding: 8719 8719 513
Width: 726
Flags: W
LayerCount: 2
Fore
SplineSet
124 -200 m 1,0,-1
 124 563 l 1,1,-1
 24 563 l 1,2,-1
 24 698 l 1,3,-1
 702 698 l 1,4,-1
 702 563 l 1,5,-1
 602 563 l 1,6,-1
 602 -200 l 1,7,-1
 450 -200 l 1,8,-1
 450 563 l 1,9,-1
 276 563 l 1,10,-1
 276 -200 l 1,11,-1
 124 -200 l 1,0,-1
EndSplineSet
Validated: 1
EndChar

StartChar: summation
Encoding: 8721 8721 514
Width: 558
Flags: W
LayerCount: 2
Fore
SplineSet
521 -200 m 1,0,-1
 49 -200 l 1,1,-1
 49 -59 l 1,2,-1
 264 247 l 1,3,-1
 264 251 l 1,4,-1
 49 557 l 1,5,-1
 49 698 l 1,6,-1
 521 698 l 1,7,-1
 521 563 l 1,8,-1
 213 563 l 1,9,-1
 407 299 l 1,10,-1
 407 199 l 1,11,-1
 213 -65 l 1,12,-1
 521 -65 l 1,13,-1
 521 -200 l 1,0,-1
EndSplineSet
Validated: 1
EndChar

StartChar: Omega
Encoding: 8486 8486 515
Width: 724
Flags: W
LayerCount: 2
Fore
SplineSet
50 134 m 1,0,-1
 209 134 l 1,1,-1
 209 144 l 1,2,3
 134 178 134 178 94.5 240.5 c 128,-1,4
 55 303 55 303 55 400 c 0,5,6
 55 465 55 465 75.5 521.5 c 128,-1,7
 96 578 96 578 135.5 620 c 128,-1,8
 175 662 175 662 232 686 c 128,-1,9
 289 710 289 710 362 710 c 256,10,11
 435 710 435 710 492 686 c 128,-1,12
 549 662 549 662 588.5 620 c 128,-1,13
 628 578 628 578 648.5 521.5 c 128,-1,14
 669 465 669 465 669 400 c 0,15,16
 669 303 669 303 629.5 240.5 c 128,-1,17
 590 178 590 178 515 144 c 1,18,-1
 515 134 l 1,19,-1
 674 134 l 1,20,-1
 674 0 l 1,21,-1
 405 0 l 1,22,-1
 405 205 l 1,23,24
 428 212 428 212 447.5 226.5 c 128,-1,25
 467 241 467 241 480.5 260.5 c 128,-1,26
 494 280 494 280 501.5 303 c 128,-1,27
 509 326 509 326 509 350 c 2,28,-1
 509 431 l 2,29,30
 509 459 509 459 499 485 c 128,-1,31
 489 511 489 511 470 531 c 128,-1,32
 451 551 451 551 423.5 563 c 128,-1,33
 396 575 396 575 362 575 c 256,34,35
 328 575 328 575 300.5 563 c 128,-1,36
 273 551 273 551 254 531 c 128,-1,37
 235 511 235 511 225 485 c 128,-1,38
 215 459 215 459 215 431 c 2,39,-1
 215 350 l 2,40,41
 215 326 215 326 222.5 303 c 128,-1,42
 230 280 230 280 243.5 260.5 c 128,-1,43
 257 241 257 241 276.5 226.5 c 128,-1,44
 296 212 296 212 319 205 c 1,45,-1
 319 0 l 1,46,-1
 50 0 l 1,47,-1
 50 134 l 1,0,-1
EndSplineSet
Validated: 1
EndChar

StartChar: alpha
Encoding: 945 945 516
Width: 667
GlyphClass: 2
Flags: W
AnchorPoint: "Anchor-2" 288 540 basechar 0
LayerCount: 2
Fore
SplineSet
633 0 m 1,0,-1
 574 0 l 2,1,2
 515 0 515 0 486.5 22.5 c 128,-1,3
 458 45 458 45 446 104 c 2,4,-1
 437 148 l 1,5,-1
 434 148 l 1,6,7
 410 68 410 68 367.5 28 c 128,-1,8
 325 -12 325 -12 251 -12 c 0,9,10
 154 -12 154 -12 98.5 58 c 128,-1,11
 43 128 43 128 43 262 c 256,12,13
 43 396 43 396 98.5 466.5 c 128,-1,14
 154 537 154 537 251 537 c 0,15,16
 325 537 325 537 370.5 498.5 c 128,-1,17
 416 460 416 460 440 377 c 1,18,-1
 444 377 l 1,19,-1
 462 448 l 1,20,-1
 485 525 l 1,21,-1
 633 525 l 1,22,-1
 517 266 l 1,23,-1
 577 115 l 1,24,-1
 633 115 l 1,25,-1
 633 0 l 1,0,-1
264 108 m 0,26,27
 288 108 288 108 308.5 129.5 c 128,-1,28
 329 151 329 151 346 199 c 2,29,-1
 368 263 l 1,30,-1
 346 326 l 2,31,32
 329 374 329 374 308.5 395.5 c 128,-1,33
 288 417 288 417 264 417 c 0,34,35
 231 417 231 417 214 389.5 c 128,-1,36
 197 362 197 362 197 302 c 2,37,-1
 197 223 l 2,38,39
 197 163 197 163 214 135.5 c 128,-1,40
 231 108 231 108 264 108 c 0,26,27
EndSplineSet
Validated: 1
Substitution2: "'salt' Stylistic Alternatives lookup 16 subtable" alpha.alt01
Substitution2: "'ss01' Style Set 1 lookup 11 subtable" alpha.alt01
Substitution2: "'aalt' Access All Alternates lookup 0 subtable" alpha.alt01
EndChar

StartChar: alpha.alt01
Encoding: 65569 -1 517
Width: 622
GlyphClass: 2
Flags: W
AnchorPoint: "Anchor-2" 296 540 basechar 0
LayerCount: 2
Fore
SplineSet
588 0 m 1,0,-1
 538 0 l 2,1,2
 474 0 474 0 440.5 25.5 c 128,-1,3
 407 51 407 51 396 96 c 1,4,-1
 391 96 l 1,5,6
 376 46 376 46 337 17 c 128,-1,7
 298 -12 298 -12 245 -12 c 0,8,9
 145 -12 145 -12 94 58.5 c 128,-1,10
 43 129 43 129 43 263 c 256,11,12
 43 397 43 397 94 467 c 128,-1,13
 145 537 145 537 245 537 c 0,14,15
 296 537 296 537 335.5 509 c 128,-1,16
 375 481 375 481 386 437 c 1,17,-1
 391 437 l 1,18,-1
 391 525 l 1,19,-1
 539 525 l 1,20,-1
 539 115 l 1,21,-1
 588 115 l 1,22,-1
 588 0 l 1,0,-1
294 108 m 256,23,24
 336 108 336 108 363.5 128.5 c 128,-1,25
 391 149 391 149 391 185 c 2,26,-1
 391 340 l 2,27,28
 391 376 391 376 363.5 396.5 c 128,-1,29
 336 417 336 417 294 417 c 256,30,31
 252 417 252 417 224.5 387.5 c 128,-1,32
 197 358 197 358 197 308 c 2,33,-1
 197 217 l 2,34,35
 197 167 197 167 224.5 137.5 c 128,-1,36
 252 108 252 108 294 108 c 256,23,24
EndSplineSet
Validated: 1
EndChar

StartChar: beta
Encoding: 946 946 518
Width: 609
Flags: W
LayerCount: 2
Fore
SplineSet
69 478 m 2,0,1
 69 612 69 612 126.5 682 c 128,-1,2
 184 752 184 752 301 752 c 0,3,4
 362 752 362 752 406.5 737 c 128,-1,5
 451 722 451 722 479 695.5 c 128,-1,6
 507 669 507 669 520.5 634 c 128,-1,7
 534 599 534 599 534 560 c 0,8,9
 534 492 534 492 503.5 449.5 c 128,-1,10
 473 407 473 407 416 389 c 1,11,-1
 416 384 l 1,12,13
 487 375 487 375 526 332.5 c 128,-1,14
 565 290 565 290 565 217 c 0,15,16
 565 167 565 167 552 125 c 128,-1,17
 539 83 539 83 514 52.5 c 128,-1,18
 489 22 489 22 451.5 5 c 128,-1,19
 414 -12 414 -12 365 -12 c 0,20,21
 311 -12 311 -12 272 16.5 c 128,-1,22
 233 45 233 45 222 88 c 1,23,-1
 217 88 l 1,24,-1
 217 -200 l 1,25,-1
 69 -200 l 1,26,-1
 69 478 l 2,0,1
277 435 m 1,27,-1
 310 435 l 2,28,29
 342 435 342 435 363.5 457 c 128,-1,30
 385 479 385 479 385 514 c 2,31,-1
 385 544 l 2,32,33
 385 585 385 585 365 610 c 128,-1,34
 345 635 345 635 301 635 c 0,35,36
 263 635 263 635 240 608 c 128,-1,37
 217 581 217 581 217 531 c 2,38,-1
 217 185 l 2,39,40
 217 147 217 147 244 126 c 128,-1,41
 271 105 271 105 316 105 c 0,42,43
 363 105 363 105 389.5 130 c 128,-1,44
 416 155 416 155 416 200 c 2,45,-1
 416 234 l 2,46,47
 416 274 416 274 389.5 297 c 128,-1,48
 363 320 363 320 316 320 c 2,49,-1
 277 320 l 1,50,-1
 277 435 l 1,27,-1
EndSplineSet
Validated: 1
EndChar

StartChar: gamma
Encoding: 947 947 519
Width: 540
Flags: W
LayerCount: 2
Fore
SplineSet
192 0 m 1,0,-1
 57 410 l 1,1,-1
 8 410 l 1,2,-1
 8 525 l 1,3,-1
 60 525 l 2,4,5
 118 525 118 525 149.5 502 c 128,-1,6
 181 479 181 479 198 418 c 2,7,-1
 233 293 l 1,8,-1
 266 145 l 1,9,-1
 274 145 l 1,10,-1
 315 293 l 1,11,-1
 391 525 l 1,12,-1
 531 525 l 1,13,-1
 340 0 l 1,14,-1
 340 -200 l 1,15,-1
 192 -200 l 1,16,-1
 192 0 l 1,0,-1
EndSplineSet
Validated: 1
EndChar

StartChar: delta
Encoding: 948 948 520
Width: 564
Flags: W
LayerCount: 2
Fore
SplineSet
323 625 m 1,0,-1
 230 636 l 1,1,-1
 230 632 l 1,2,-1
 335 568 l 2,3,4
 388 535 388 535 425 500.5 c 128,-1,5
 462 466 462 466 485 428 c 128,-1,6
 508 390 508 390 518 349 c 128,-1,7
 528 308 528 308 528 263 c 0,8,9
 528 199 528 199 511 148 c 128,-1,10
 494 97 494 97 462.5 61.5 c 128,-1,11
 431 26 431 26 385.5 7 c 128,-1,12
 340 -12 340 -12 282 -12 c 256,13,14
 224 -12 224 -12 178.5 7.5 c 128,-1,15
 133 27 133 27 101.5 62 c 128,-1,16
 70 97 70 97 53 145 c 128,-1,17
 36 193 36 193 36 250 c 0,18,19
 36 308 36 308 51 353.5 c 128,-1,20
 66 399 66 399 91.5 429.5 c 128,-1,21
 117 460 117 460 150.5 476 c 128,-1,22
 184 492 184 492 221 492 c 1,23,-1
 221 498 l 1,24,-1
 90 600 l 1,25,-1
 90 740 l 1,26,-1
 481 740 l 1,27,-1
 481 625 l 1,28,-1
 323 625 l 1,0,-1
374 250 m 2,29,30
 374 281 374 281 370.5 306.5 c 128,-1,31
 367 332 367 332 357.5 354.5 c 128,-1,32
 348 377 348 377 332 398 c 128,-1,33
 316 419 316 419 292 441 c 1,34,35
 241 433 241 433 215.5 396.5 c 128,-1,36
 190 360 190 360 190 303 c 2,37,-1
 190 209 l 2,38,39
 190 159 190 159 214 132 c 128,-1,40
 238 105 238 105 282 105 c 256,41,42
 326 105 326 105 350 132 c 128,-1,43
 374 159 374 159 374 209 c 2,44,-1
 374 250 l 2,29,30
EndSplineSet
Validated: 1
EndChar

